<svg id="レイヤー_3" data-name="レイヤー 3" xmlns="http://www.w3.org/2000/svg" viewBox="0 0 1000 1000"><defs><style>.cls-1{opacity:0.2;}.cls-2{fill:#f6dabc;}.cls-3{fill:#db995b;}.cls-4{fill:#b33d0c;}.cls-5{fill:#5c1a10;}</style></defs><path class="cls-1" d="M673.14,827c-8.23-.51-16.59-.79-24.73-2.43-6.35-1.38-12.5-3.75-18.63-5.9-2.94-1.17-6.06-2.53-8.1-5a22.28,22.28,0,0,1-4.1-11.83c.3-7.44,4.59-14,8.75-19.92a114.5,114.5,0,0,0,7.46-11.36,68.6,68.6,0,0,0,3.73-9c2.39-7.33,5.54-14.45,8.4-21.6a313.85,313.85,0,0,0,11.34-33.79c3.25-12.07,6.28-24.48,5.31-37.17-.53-7.87-1.22-17.45-8.48-22.61-3-1.89-6-3.68-9-5.5-2.09-1.4-4-3.13-5.91-4.71a55.58,55.58,0,0,1-8.65-7.69c-2.9-3.27-5.79-6.69-7.67-10.6a59.81,59.81,0,0,1-3.51-10.35,119.24,119.24,0,0,1-3-13.14c-1.51-7.81-.73-16.23-4.61-23.52A56,56,0,0,0,597.27,555c-6.39-4.74-13.58-8.7-18.8-14.78-4.58-5.17-9.06-10.6-14.23-15.24-11.23-9.66-18.57-19.18-18.66-34.17-.06.11-1.62,13.8-1.85,13.81l-.13-.07-.38-1-.55-1.34c-1.09-2.66-2.26-5.55-3.22-8.25-2.57-7.3-4.22-15-6.27-22.43-2.72-9.66-5.27-19.57-6-29.54-1.18-17.83-2.45-36.47,3.25-53.5,7.85-20.86,25-37.47,44.77-47.85,15.13-8.08,32-13,49-16.45a223.76,223.76,0,0,1,60.3-4.73c20.85.95,43.8,4.16,59.73,19.25,9.86,9.09,17.59,20.09,26,30.37,6.75,8.54,14.59,16.24,22,24.19A105.19,105.19,0,0,1,808,415.59c4.86,9.31,8.29,19.25,12.47,28.83,4,9.29,8.78,18.37,12.09,27.91,5.41,15.21,7.55,31.12,8.55,46.94,1,10.21,2.4,20.5,1.9,30.72-.13,14.75-1.84,29.39-6.38,43.34-4.12,15.1-11.59,22.25-22.89,32.46a63.29,63.29,0,0,0-14,17.31c-2.43,4.54-4.61,9.58-4.42,14.86a69.23,69.23,0,0,0,6.77,25.34c4.42,8.45,10.15,16.35,13.26,25.36,3.57,9.23,6.17,19,5.58,28.78a111.63,111.63,0,0,1-1.37,16,95.68,95.68,0,0,1-5.36,17.35c-4.52,10.48-10,21.34-19.79,28a62.63,62.63,0,0,1-15.79,8.29c-8.42,2.92-17.11,5.27-25.68,7.79-5.75,1.86-11.37,4.31-17.46,5.18-3,.47-6.15.42-9.22.6-3.27.2-6.54.75-9.78,1.15-7.83.76-15.48,2.56-23.17,4A82.73,82.73,0,0,1,673.14,827Z"/><path class="cls-2" d="M571.57,527.11a90.64,90.64,0,0,1-15.67-2.56c-5.07-1.39-10.1-3.43-15.12-5-4.18-1.29-8.7-2.15-12.69-4-9.2-4.44-16.36-12.4-22.16-20.49-6.81-1.17-16.4-6.81-21.71-11.3-3.93-3.48-7.12-7.68-10.36-11.75a42.85,42.85,0,0,0-4.38-5,18.58,18.58,0,0,0-6.42-3.87,45.44,45.44,0,0,0-8.91-1.88c-3-.17-6.1-.11-9.13-.48a56.94,56.94,0,0,1-5.58-1.15c-4.09-.76-8.17-1.61-12.28-2.21a47.11,47.11,0,0,1-8.5-1.56c-6-1.77-11.59-4.76-17.26-7.38a47.33,47.33,0,0,1-11.83-8.08c-2.47-2.5-4.39-5.48-7-7.86-2-1.84-3.86-3.85-6-5.54a31,31,0,0,0-8.74-4.84c-1.93-.63-3.94-1-5.91-1.47-1.52-.37-3-.82-4.57-1.17a137.16,137.16,0,0,1-13.29-4.86c-3.14-1.33-6.44-2.29-9.66-3.4-4.39-1.58-8.38-4.13-12.33-6.57a17.93,17.93,0,0,0-5.66-2.8,30.23,30.23,0,0,0-3.43-.38,64.4,64.4,0,0,1-12.71-2,46.66,46.66,0,0,1-6.06-2.57,25,25,0,0,1-5.49-3.4,46,46,0,0,1-6.29-7.37,44.56,44.56,0,0,1-2.89-5.41A102.88,102.88,0,0,1,273,363.21,61.71,61.71,0,0,1,270.23,347a75.58,75.58,0,0,1-.5-8.23,62.57,62.57,0,0,1,1.4-10,87.27,87.27,0,0,1,3.63-12.2,20.61,20.61,0,0,1,4.36-6.12,25.13,25.13,0,0,1,12.46-6.55c3.2-.76,7-.89,9.4-3.32,1.59-1.93,2.56-4.29,4.12-6.25a12.33,12.33,0,0,1,5.2-3.86,19.19,19.19,0,0,1,6.89-.56c1,0,2,.13,2.95.12a3.05,3.05,0,0,0,2.15-.58,5.57,5.57,0,0,0,1-1.79c.48-1.16,1-2.35,1.41-3.52a75.74,75.74,0,0,1,5-10.69c1-1.33,2-2.71,3-4.09,2.33-3.05,3.93-7,7.57-8.76,1.7-.85,3.45-1.62,5.13-2.51,4-2.15,7.86-4.7,12.08-6.51,3.86-2.23,13.39-3,17.52-4.6,4.21-1.41,8.19-3.54,12.47-4.79,5.64-1.55,11.49-2.5,17.2-3.79,4.26-.91,8.69-1.24,12.93-2.18a110.57,110.57,0,0,0,13-4.21,73.71,73.71,0,0,1,16.13-3.73,43.41,43.41,0,0,1,10.38-.43c3.19.41,6.3,1.57,9.51,1.92a16.87,16.87,0,0,0,9.25-1.8,46.54,46.54,0,0,0,6.42-4.6,16.4,16.4,0,0,1,7.37-4.26c3.56-.82,7.56-.95,11,.6a35.08,35.08,0,0,1,4.95,3.65c2.8,2.08,5.17,4.65,7.86,6.86,3.09,2.64,6.47,5,9.06,8.13s5.59,6.42,8,9.86c3.32,5,6,10.53,9.69,15.36a106.63,106.63,0,0,1,9.33,15.77c2.25,4.56,4.86,9.15,6.6,13.91,1.82,5.31,2.31,11.07,2.75,16.57.51,7.74.67,15.74.41,23.45,9.83,1.82,19.9,3.9,29.29,7.51,6.81,2.66,13.53,6.14,20.21,9.11,6.91,3.14,14.17,5.89,21.23,8.66s14.16,5.84,21.25,8.51c6.79,2.65,14,4.84,20.25,8.58,5.13,3.1,9.6,7.25,14.23,11s9.28,7.55,12.39,12.55c2.73,4.33,3.59,9.4,4.64,14.24A74.77,74.77,0,0,1,705,428a47.85,47.85,0,0,1-1.15,11.89c-.76,3-1.85,6-2.32,9.08-1.36,7.84-1,15.78-5.69,22.58a68.53,68.53,0,0,1-14.05,14.05A99.09,99.09,0,0,1,664,495.54c-4.58,2-9.74,2.46-14.4,4.18a47.22,47.22,0,0,0-8.72,5c-2.8,1.86-5.66,3.8-8.33,5.84-2.83,2.14-5.57,4.52-8.5,6.53a63.54,63.54,0,0,1-11.86,6.31c-3.57,1.3-7.49,1.5-11.29,1.83a99.85,99.85,0,0,1-10.37.93C584.19,526.31,577.94,527.72,571.57,527.11Z"/><path class="cls-2" d="M670.7,833.42a88.19,88.19,0,0,1-11.55-1.31c-6.23-1.3-12.53-2.62-18.89-2.66-3.86,0-7.62.92-11.48.95-3,.08-6-.1-8.93-.27-2.32-.13-4.65-.26-7-.53a40.47,40.47,0,0,1-5.87-1c-2.83-.8-5.58-1.9-8.39-2.78-5.45-1.77-11-3.27-16.31-5.43a58.59,58.59,0,0,1-8.45-4.34,74.65,74.65,0,0,1-10.18-6.86c-2.46-1.86-4.72-4-7.16-5.84a27.69,27.69,0,0,0-6-3.11,39.65,39.65,0,0,0-6.73-1.58,53.16,53.16,0,0,0-8.07-.49c-2.71,0-5.45-.09-8.16-.15-4.94-.07-9.86.45-14.81.23-3.17,0-6.36-.27-9.53-.46-4.81-.25-9.63-.55-14.41-1.22a120.44,120.44,0,0,1-15.58-2.2c-8.29-1.58-9.67-2.84-16.12-8a37.34,37.34,0,0,0-6.58-4.32,40,40,0,0,1-11.25-3.81c-2.51-1.23-4.75-2.94-7.19-4.29-3.4-1.85-7.18-2.86-10.75-4.33a78.78,78.78,0,0,1-14-7.62,27.47,27.47,0,0,1-7.56-6.54c-.84-1.11-1.47-2.36-2.2-3.53a13.25,13.25,0,0,0-4.86-4.48,34.93,34.93,0,0,0-4.76-1.89c-5.21-1.87-10.93-3.14-15.17-6.86a65.5,65.5,0,0,1-10.81,2c-4.28.55-8.56,1.26-12.83,1.86-3.29.33-6.6.65-9.91.8a26.7,26.7,0,0,1-6.92-1.08l-.12,0a22,22,0,0,1-5.31-2.53,57,57,0,0,1-8.45-7.68,127.49,127.49,0,0,1-8.85-10.18c-1.61-2.2-3-4.54-4.56-6.78-2.61-3.74-5.28-7.47-8.21-11-3.8-4.27-8.3-8.21-13.77-10.23a145.81,145.81,0,0,0-14.88-4.26c-3.32-.71-6.69-1.14-10-1.92a47.72,47.72,0,0,1-14.28-5.51c-6.2-3.73-9.63-10.19-13.51-15.92-2.31-3.52-5-6.83-6.87-10.61a74.15,74.15,0,0,1-3.65-9.1c-.84-2.32-1.85-4.6-2.74-6.9-4.37-11.18-4.58-22.07-2-33.52.87-3.82,1.54-7.73,3-11.36,1.09-2.42,2.22-4.86,3.32-7.28a31.28,31.28,0,0,1,2.72-5.07,28.68,28.68,0,0,1,5.15-4.14c8.35-6,12.51-.39,16.41-4.42,2.24-2.76,3.48-6.18,5.62-9,2-2.68,5.49-3.42,8.34-4.93,1.58-.71,2.32-2.26,3.16-3.64a27.15,27.15,0,0,1,5.93-7.19,61.1,61.1,0,0,1,12-7.27,16.53,16.53,0,0,1,4.45-1.48,21.46,21.46,0,0,1,4.39,0c3.19.36,6.56,1,9.14,3.07a50.56,50.56,0,0,0,4,3.29,27.53,27.53,0,0,0,10.16,3.94,67.2,67.2,0,0,0,22.28-1.71c5.6-1.36,11.4-2.26,17-3.78a131.68,131.68,0,0,0,16-6c11.32-5.16,23.6-9.18,33.19-17.14,4.91-4.15,9-9.28,13.54-13.76l8.09,9,2.31,1a35.89,35.89,0,0,1,6.81,3.7c5.38,4,9.9,9.05,14.5,13.82,8.41,8.45,13.15,19,16.86,30,3.72,10,7.51,20.35,7.12,31,12.37-5.23,25.56-9.56,39.35-9.66,11.31-.55-25.14,4.33-23.85,4.37,12.88,3.35,26.61,2.32,39.29,6.68,10.33,3.74,19,11.12,26.91,18.42,6.54,6.11,13.34,12.62,17.36,20.61,6.43-4.57,13-9.51,19.9-13.34,6.67-3.76,13.7-5.84,21.28-2.36,1.92,1.59,13.26,2.79,15,4.63,8.86,6.72,16,15.38,23.94,23.06,11.61,11.06,21.35,23.81,30.67,36.66,5.13,7,9.91,14.49,14.57,21.77,4,6.29,8.5,12.62,12,19.2a145.46,145.46,0,0,1,14.49,49c.65,7.2,1.91,14.51,1.6,21.71a48.86,48.86,0,0,1-5.44,19.81c-1.93,3.72-4.17,7.48-7.43,10.24a22.28,22.28,0,0,1-7.5,4.22,39.15,39.15,0,0,1-7.78,2.15c-3.88.57-7.85,0-11.76-.09C679,833.46,674.86,833.59,670.7,833.42Z"/><path class="cls-3" d="M289.18,387.21c.6,1.77,2.3,3,3.78,4,3.3,2.3,7.32,3.38,10.47,5.9,2.11,1.7,4.2,3.45,6.29,5.17.68.58,1.39,1.16,2.08,1.73a3.74,3.74,0,0,0,1.86,1c2.13-.14,3.28-2.66,4.42-4.15.9-1.39,1.85-2.76,2.65-4.21a9.93,9.93,0,0,1,1.33-2.19c1.23-.78,3.22,1.46,4.13,2.23,2.23,2,4.07,4.46,6.38,6.41,3.11,2.4,6.74,4.05,10.07,6.12,5.3,3.3,10.41,7,16.29,9.28a34.3,34.3,0,0,0,5.23,1.6c2.94,1,3.93-1.73,4.59-3.94,2.13-6.46-2.5-10.6-7.2-14.54a36.17,36.17,0,0,0-4.83-3,49.34,49.34,0,0,1-6.16-4.37c-3.78-3.27-7.78-6.51-10.64-10.61-2.74-4.45-4.83-9.64-4.59-14.83a3.23,3.23,0,0,1,2-2.51,4.84,4.84,0,0,0,2-1.16c4.1-5.05-3.14-19.8-5.43-25.4a82.42,82.42,0,0,1-4.59-16c-.5-3.92-1-7.87-1.26-11.8-.19-2.93-.11-5.9-.29-8.83a16.29,16.29,0,0,0-.58-3.31l-.15-.48-6.62-9.73c-7.57,2.18-12.57,4.88-16,12.09-2.26,4.25-.88,6.32,2.74,9.15,2.3,1.89,4.66,3.83,6.92,5.76,2.66,2.2,5.22,4.79,6.28,8.1,2.67,7.57-1.19,15-3.34,22a15.91,15.91,0,0,0-.73,6.13,21.06,21.06,0,0,0,1.1,3.43,55.07,55.07,0,0,0,3.44,8.12c.54,1.09,1.07,2.24,1.57,3.35a3.88,3.88,0,0,1,.57,2.43c-1.8,3.21-8.75-.4-11.62-.83-2.63-.63-4.11,1.9-4.46,4.07a21.6,21.6,0,0,0,.08,5.62c.05,1.17.63,2.7-.44,3.55-3.95,2.16-9.46-1-13.74.47C291,383.74,288.59,385,289.18,387.21Z"/><path class="cls-3" d="M334.14,275.15c1.56,6.7,13.5,8.75,19.17,10.88,4,1.93,1.32,8.84.49,12-1.07,2.81-.35,5.87.44,8.71s1.63,5.65,2.23,8.5c1.88,8,1.89,16.26,3.4,24.32.6,2.86,1.18,5.79,1.66,8.66a39.11,39.11,0,0,0,1.36,6.23c4.39,10.22,16.74,7.39,17.69,21.07.35,4.31-.69,8.55-1.51,12.72a68.35,68.35,0,0,0-1.35,11.06c-.14,2.45-.44,4.36,1.9,6.14,3.29,2.29,7.06-1.2,9.66-2.91,1.6-1,4.14-3.53,6-1.46,4.18,5.79-2.06,15.23-5.2,20.22-3.09,4.53-1.65,7.18,4.13,7.75,3.3.16,6.56-.66,9.84-.8,5.85-.46,8.17,3.57,10.18,8.23,2.74,7.31,10.41,7.81,17.18,8.53,4.45.53,8.32,3.13,11.86,5.73,1.64,1.2,3.23,2.51,4.76,3.84,1.88,1.81,4.39,3.37,7.09,2.86,6.73-.88,3.77-8.38,1.69-12.4-1.89-3.19-3.74-6.53-4.31-10.2a58.67,58.67,0,0,1-.64-14.61,52.33,52.33,0,0,0,.18-6.62c-1.39-4.45-14.26,3.55-16.5-10.31-1.75-11.7,3.35-22.67,5.49-33.85.33-2,.78-4.16-.13-6.1-2-3.71-6.13-6.1-7.72-10.07-2.32-6.65-1.68-13.81-1.2-20.62.62-7.12,1.34-14.29,1.61-21.44.08-4.06-.3-8.17-.25-12.23a84.08,84.08,0,0,1,2.91-19.47c.51-1.9,2.44-2.95,3.95-4a40.51,40.51,0,0,1,5.37-3.14,9.35,9.35,0,0,1,4.48-1.14c2.76.64,3.37,3.94,3.81,6.26a82.11,82.11,0,0,1,.88,14c0,2.3-.12,4.62.06,6.92.22,2.55.76,5.09,1.05,7.64.47,3.94.29,7.91.37,11.86.57,16.8,9.43,7.48,13.69-1.22A31.16,31.16,0,0,0,473.27,305c.28-3.71,0-7.49.06-11.22,0-4.22.28-8.45.46-12.66s.24-8.34.59-12.48c.35-3.65,1-7.28,1.6-10.88,1.25-6.48,3.52-12.86,3.26-19.57a31.2,31.2,0,0,0-.73-4.89,10.16,10.16,0,0,0-1.64-4.37c-3.3-3.77-10.55-3.9-15.19-4.1-4.32-.07-8.7.11-13,0-3.69-.06-7.45-.43-11.14-.52-5-.07-9.9,1-14.79,1.73A49.47,49.47,0,0,0,414.1,228c-3.49,1.18-6.86,2.81-10.28,4.16-5.26,2.06-10.81,3.52-16,5.78,0-.14,12-7.5,11.88-7.73h0l-.13-.07c-9.86,1.78-14.69,4.88-22.81,10-5.09,3-10.37,5.73-15.43,8.75-3.34,2.07-6.86,3.87-10.38,5.64a77.31,77.31,0,0,0-7.29,4.56c-3.48,2.28-6.68,5.22-8.25,9.12C334.56,270.35,333.73,272.76,334.14,275.15Z"/><path class="cls-3" d="M796.15,519.26c.1-3.69-1.12-7.26-1.7-10.9-.63-4.09-.17-8.2-.07-12.28,0-3.23-.06-6.48-.32-9.71-.24-2.24-.7-4.47-1-6.7-.56-3.9-.87-7.84-1.74-11.7a147.91,147.91,0,0,0-8.83-26.28c-2.62-5.67-6.52-10.76-10.61-15.53-3.46-3.81-7.17-7.45-10.73-11.18a78,78,0,0,1-8-9,61.81,61.81,0,0,1-9.45-18.29c-1.36-4-2.09-8.09-3.17-12.11a28.62,28.62,0,0,0-2.25-5.14c-.72-1.22-1.59-2.38-2.36-3.57-2.71-4.17-5.82-8.12-8.35-12.39-1.53-2.77-2.8-5.68-4.09-8.55-.82-1.9-1.48-3.89-2.39-5.75a57.67,57.67,0,0,0-14.45-18.05A70.93,70.93,0,0,0,693,312.34c-3.73-2.21-7.49-4.49-11.41-6.36-7.49-3.38-15-7-21.76-11.68-4.52-3.24-8.55-7.25-13.21-10.32-5.61-3.63-11.76-6.53-17.26-10.36A84.64,84.64,0,0,0,618.06,267c-7-3.14-14.32-5.58-21.21-8.88-9.76-4.58-19.56-9.25-29.11-14.25-6.38-3.4-12.62-7.28-19-10.67-5.23-2.66-10.21-5.87-15.41-8.58-8.47-4.61-19.6-4.32-28.86-5.18-6.47,3.36-14,8-15.12,15.75-.32,5.33,2.21,10.48,3.88,15.51,3.66,9.18,3.89,16.88.14,25.8-2.76,6.6-8.31,11.71-10.63,18.55a52.32,52.32,0,0,0-2.57,12.73,86.38,86.38,0,0,0,0,17.83,153.94,153.94,0,0,0,2.79,21c.58,3.24,1.57,6.5,1.51,9.78-.09,4-2.14,8-.58,12a40.1,40.1,0,0,0,7.65,13.44c2.31,2.58,5.07,4.87,7.1,7.68,2.42,3.26,4.1,7,5.94,10.56,1.54,3,3.49,5.94,4.66,9.12,3.09,8.06.2,11.51-3.37,18.23-1.77,3.35-3,7.64-.87,11.23,2.37,3.9,6.42,6.65,10.44,8.77,5.58,3,13.93,5.25,15.47,12.1.68,3-.49,6.06-1.65,8.79a61.7,61.7,0,0,0-3,7.87c-1.85,6.77,1.89,12.43,9.14,13.58,7,1.23,15.89-4.24,21.78-1.84,2.2,1,3.67,3,5.11,4.84.93,1.12,1.45,2.78,3.2,1.84,2.64-1.59,4.25-4.45,5.86-6.94A34.53,34.53,0,0,0,576,476.57c1.42-7,.77-14.38,3.51-21,3.08-8.31,8.31-16.58,16.72-20.48,3.06-1.22,7.81-3,9.82.88,1.42,2.59,1.56,5.61,1.86,8.45a6.48,6.48,0,0,0,.5,2.58c1.24,1.26,3.21,0,4.43-.63,4.59-2.8,8.44-6.79,12.57-10.15a68.88,68.88,0,0,1,13.6-8.81c2.82-1.34,6-2.74,9.24-1.91,1.26.31,2.5.89,3.77,1.12,6,.91,11.33-2.78,17.15-3.32,4.84-.24,3,5.34,1.51,7.74a31.32,31.32,0,0,1-7.83,8.8c-2.87,2.23-6.32,3.69-9.41,5.6-4.55,3-9,6.22-13.33,9.47s-8.24,7.28-12.86,10.31c-1.8,1.21-3.86,2.11-5.72,3.23-2.75,1.62-5.5,3.36-8.4,4.74-1.18.57-2.4,1.15-3.62,1.61a12.63,12.63,0,0,0-4,2c-1.64,1.37-3.83,3.17-3.27,5.56.73,2.46,2.37,4.63,3.49,7,1.85,2.9.13,5.28-2.65,6.52a21.92,21.92,0,0,1-7.12,1.39,50.88,50.88,0,0,1-7.2,0c-3-.26-5.78-1.35-8.64-2.09-2.22-.69-4.53-.32-6.78-.17a29.58,29.58,0,0,0-5.49.61,11.44,11.44,0,0,0-4.38,3c-2.44,2.29-4.52,5.49-4.13,9,1,5.44,10.18,8.51,14.92,10.09,2.87.95,5.85,1.62,8.69,2.65a53.74,53.74,0,0,1,12,6.28c3.06,2.33,6,4.86,9,7.16a75.07,75.07,0,0,0,7.88,5.09c4.49,2.23,9.25,3.91,13.91,5.74a93,93,0,0,1,10.58,4.36c3,1.56,5.47,3.81,8.14,5.77,2.32,1.68,4.85,3.09,7.32,4.55a57.05,57.05,0,0,0,7.85,3.33c3.34,1.28,6.64,2.73,9.88,4.25,11.11,4.89,18.72,2.49,29.51-.43a56.53,56.53,0,0,1,14-1.86c1.79-.05,3.71-.21,5.33.77,1.25.76,2.33,1.77,3.54,2.59a17,17,0,0,0,5.06,2.37c5,1.48,10.09.24,14.83-1.09,2.71-.73,5.55-1.35,8.18-2.32,2.92-1.08,5.74-2.56,8.55-3.85,8.89-3.69,17.28-8.86,23.38-16.17a65,65,0,0,0,5-7.28c1-1.74,1.84-3.55,2.81-5.29,1.46-2.65,3.41-5,4.52-7.87A16.92,16.92,0,0,0,796.15,519.26Z"/><path class="cls-3" d="M758.9,762.85a38,38,0,0,0-.95-9c-2-6.83-6.25-12.84-9.91-19-3.19-5.25-3.58-11.48-4.32-17.32-.62-6.62-.54-12.94-4.86-18.65a51.84,51.84,0,0,0-8.13-7.22c-2.3-1.64-4.43-3.53-6.68-5.25a44,44,0,0,1-6.49-5.93c-2.6-2.5-5.75-4.46-8.2-7.12-3-3.44-6-7-8.69-10.67s-5.45-7.7-8.18-11.54c-1.09-1.69-2.23-3.38-3.21-5.13-.68-1.38-1.2-2.84-1.74-4.26a135.14,135.14,0,0,0-5.69-12.8c-1.3-2.59-2.91-5.12-3.6-7.93a56.4,56.4,0,0,1-1.17-6.69c-.28-3.72-.29-7.48-.88-11.19A31.33,31.33,0,0,0,671,591.06c-3.76-4.92-8.91-8.63-13.3-13-2.13-2.12-4.48-4.06-6.45-6.32a46.08,46.08,0,0,0-7.87-7.67h0c-7.59-5.58-16-10-24.08-14.83-6.54-3.65-12-9-18.76-12.28-6.44-3-13.49-4.47-20-7.43-4.43-1.92-8.53-4.55-12.79-6.82-5.6-2.75-11.23-5.54-16.89-8.18a79.61,79.61,0,0,1-14.67-7.87c-2.88-2.1-5.68-4.34-8.66-6.31a63.83,63.83,0,0,0-7.2-4.09,49.67,49.67,0,0,0-13.57-5c-3.49-.64-7.05-1-10.55-1.63-3.3-.52-6.63-.83-9.93-1.34-3.09-.48-6.09-1.68-9.24-1.86a70.08,70.08,0,0,0-10.93.69,94.34,94.34,0,0,1-10,.55c-4.79,0-9.59-.42-14.37-.23a87.12,87.12,0,0,0-10.6.15c-7.12.26-10.72,2-16.86,4.93-4.17,1.91-8.58,3.28-12.91,4.8-3.17,1.22-6.66,1.13-10.05,1.23a50.07,50.07,0,0,0-11.7,1.68c-3.65,1.05-7.29,2.22-10.91,3.34A34.54,34.54,0,0,0,362.4,506,37.9,37.9,0,0,0,357,509.6a15.53,15.53,0,0,1-4,2.53,22.61,22.61,0,0,1-5.81.63,38.19,38.19,0,0,0-9.82,1.67,37.44,37.44,0,0,0-7.39,3.81,48.39,48.39,0,0,0-5.49,3.81c-2.1,1.68-4,3.63-6.13,5.3a56.91,56.91,0,0,1-6.94,4.62c-6,3.42-11.78,7.28-18.24,9.9-1.77.79-3.73,1.63-5.47,2.48-.15.14-11.72,7.5-11.36,7.91a50.64,50.64,0,0,0-9.32,13A42.88,42.88,0,0,0,263.75,584a32.43,32.43,0,0,0,2,9.75c2.39,7,6.63-3.15,7.83-5.62,2.61-6,4.25-9.29,9.87-13.13,3.51-2.57,7.22-5.33,11.75-5.92,3.3-.67,6.49.77,9.29,2.44a44.63,44.63,0,0,1,5.51,3.34,28.52,28.52,0,0,1,5.8,6.84,37.54,37.54,0,0,1,3.19,5,64.76,64.76,0,0,1,3.24,8.36c1,3.12,3.29,4.9,6.48,5.72,1.93.58,4.29.62,5.57,2.41a9.43,9.43,0,0,1,1.65,4.93c.1.71.08,1.47.16,2.18.46,2.31,2.37.11,3.07-.83,4.74-6.11,16.05-28.16,23.84-28.67,4.14.75,3.74,9.88,4,13.09s0,6.49,0,9.72a78.46,78.46,0,0,0,1,9,6.63,6.63,0,0,0,1.06,2.65,8.74,8.74,0,0,1,1.83,3.47c1.84,7,1,14.32,1.93,21.43.13,1.21.27,2.53.46,3.73a13.94,13.94,0,0,0,.26,1.41c.1.26.23.73.59.78l.23-.05c.94-1.13,1-2.93,1.3-4.34.36-2.8.61-6,.82-8.78.77-9.5,1.58-19.31,5-28.24a45.87,45.87,0,0,1,5.63-10.13c1.88-3,3.11-3.64,4,.55,1.56,9.3-.49,18.57-.82,27.81a17.44,17.44,0,0,0,1,4.82c.72,2.58,1.91,2.34,3.22.5,3.92-6.66,5.54-14.48,9-21.38.91-1.9,1.9-3.9,2.86-5.78a10,10,0,0,1,1.91-3.06c2.07-1.6,3.26,5.77,3.49,7a82.94,82.94,0,0,1,.72,13.35c0,7.86-.75,15.85.86,23.66,1.05,4.47,3.38,8.63,4,13.18.34,1.86.29,3.75.62,5.6a11.46,11.46,0,0,0,3.48,5.93c1.81,2,3.83.58,5.33-.82a63.83,63.83,0,0,0,5.59-6.88c1.57-1.94,3.92-3.08,5.95-4.51,5.75-4,7.56-1.93,7.45,4.39-.33,8.23-3,15-7.06,22-2.34,4.46-4.46,9.07-7.05,13.41-1.4,2.64-3.29,5.2-3.9,8.17-.33,1.9.59,3.83,1.39,5.55,2.59,5.22,7,9.42,9.55,14.64a10.29,10.29,0,0,1,1.45,4.67c.06,3.78-2.43,6.18-5.87,7.47a35.8,35.8,0,0,1-9.23,2.24c-5.05.57-10-1.19-15-2.09a39.15,39.15,0,0,0-10.19-.5c-1.32.19-2.88.16-3.79,1.23-1.51,2.1-.59,5,.07,7.29,1.77,5.66,5.48,10.61,9.41,15.1,5.95,6.16,12.29,12.69,20.54,15.82,5.16,1.64,8.8,1.34,13.64-.65,4.71-1.6,6.09-3.92,7.2-8.42,1.67-5.84,2.2-12.54,6.55-17.15a8.84,8.84,0,0,1,2.22-2c4.8-2.53,7.28-11.34,9.31-16.15a59.07,59.07,0,0,1,4.7-10.6c2.34-3.54,4.9-7.14,8.3-9.78,6.15-4.35,11.34.55,13.82,6.28,3.21,8.26.87,17.15,0,25.53-.62,4.85-1.06,9.75-1.4,14.64-.12,1.18-.25,2.37-.36,3.54-.26,1.5-.05,3.41,1.83,3.77,2,.15,3.71-1.32,5.28-2.31a37.76,37.76,0,0,0,9.5-9.41c5.09-7,9.77-14.45,16.44-20.14a66.35,66.35,0,0,1,10.58-7.19c.95-.53,2-1.1,2.94-1.61a3.76,3.76,0,0,1,1.81-.61c3.64.42-1.47,11.51-1.93,13.7-1,3.12,1.9,2,3.41.91,5.34-3.88,10.19-8.56,15.59-12.38,8.31-5.81,16.91-11.39,24.64-17.92a80.32,80.32,0,0,1,18.77-11.15c2.36-.81,6.17-3,6.46,1.2-.66,8.08-10.34,14.32-15.15,20.45a98.77,98.77,0,0,0-9.83,13.65c-.86,1.56-2.09,3.06-2.45,4.83-.33,2.47,2.73,2.87,4.56,2.38,3.54-.79,6.8-2.58,10-4.07,4.61-2.09,9.09-4.57,13.85-6.34a25.9,25.9,0,0,1,3.14-.83,3.62,3.62,0,0,1,2.23,0c1.84.75,3,2.47,4.39,3.74,3.36,3.12,8.26,1.72,12,.43a5,5,0,0,1,2.46-.45,2,2,0,0,1,1.2,1.51,14,14,0,0,1,.5,2.7c.37,3.8.32,7.78-1.36,11.24a13.38,13.38,0,0,1-3.68,4.39c-1.74,1.52-3.49,3.13-5.2,4.68-2.69,2.43-5.7,4.59-8.22,7.2-3.85,4.31-8.18,7.84-13.87,9.72-3.92,1.48-7.83,3-11.74,4.53-2.06.77-4.22,1.45-6.19,2.41a47.43,47.43,0,0,0-7.1,4.39c-4.87,3.47-6.71,9.43-8.09,14.91-.34,1.58-1,3.23-.78,4.87,1.19,3.15,5.39,0,7-1.09,3.92-2.71,7.82-5.65,11.45-8.72a103,103,0,0,1,11.77-9.09c4.2-2.8,5-2.4,7,2.24,1.86,5.06,5.84,5,10.52,4.15,2.61-.55,3.21-.54,2.4,2.33s-1.6,5.48-2.38,8.19a13.92,13.92,0,0,0-.79,3.58c1,5,10,.68,13.06.11a49,49,0,0,1,6.4-1.17,9.47,9.47,0,0,1,4,0,4.24,4.24,0,0,1,2.17,2.84,30,30,0,0,1,1.07,5.7c.36,2.26.25,4.79,1.8,6.7,3.62,4,10.34-.58,13.54-2.9,4.67-3.74,8.87-8.09,13.51-11.86,3.1-2.6,6.33-5.22,9.36-7.89a54.35,54.35,0,0,1,8.64-6.44,1.6,1.6,0,0,1,1.14,0,2,2,0,0,1,.93,1.1c.59,2.42-1.51,4.74-2.94,6.46-1.72,1.82-3.78,3.38-5.64,5.07a47.86,47.86,0,0,0-5.47,5.92A29,29,0,0,0,672,812a6.33,6.33,0,0,0-1,3.06c.23,2.92,4,3.89,6.48,3.22a31.31,31.31,0,0,0,3.81-1.1c1.13-.34,2.4-1,3.58-.37,1.13.76,1.43,2.21,1.66,3.42.33,1.85.36,3.76.51,5.62.2,1.56.23,3.29,1.25,4.6a9.89,9.89,0,0,0,5.42,2.55,22.33,22.33,0,0,0,8.95-.74c2.53-.59,5.07-1.28,7.58-1.9,4.32-1.12,8.87-1.26,13.34-1.5a25,25,0,0,0,5.44-1,7.87,7.87,0,0,0,4-2.26c1.3-1.41,2.26-3.12,3.5-4.57,1.38-1.66,3.1-3.06,4.46-4.72,1.56-1.9,2.82-4,4.37-5.94a36.34,36.34,0,0,0,5.45-8.8,51.21,51.21,0,0,0,6.63-21.46A150.73,150.73,0,0,0,758.9,762.85Z"/><path class="cls-3" d="M387.68,737.79a24.29,24.29,0,0,0-2-7.33,53.06,53.06,0,0,0-5-9.64c-1.18-1.91-2.32-3.88-3.52-5.79a55.76,55.76,0,0,1-3.24-5.47,44.35,44.35,0,0,1-3.6-11.4c-2.37-13.91-2.7-28.17-6.59-41.87-.72-2-2.39-8.29-4.86-8.23-.54.23-.73.87-.89,1.39-.26.86-.45,1.8-.66,2.68a45.29,45.29,0,0,0-1.31,12.5,74.89,74.89,0,0,0,1.76,11.21,123.58,123.58,0,0,1,2,14.68c0,2.15.56,6.15-1.94,7.1a6.39,6.39,0,0,1-2.33-.26,33.3,33.3,0,0,0-3.41-.59,6.26,6.26,0,0,1-3.11-1.06c-2.88-1.92-5-4.71-7.56-7-5.73-4.94-4,3.56-3.69,6.65.67,5.27,2,10.54,2.2,15.85-.06,1.33.27,4.95-1.73,4.81a21.78,21.78,0,0,1-3-2.11,61.18,61.18,0,0,1-11.13-11c-5.87-7.54-8.46-16.75-12.26-25.28-1.14-2.44-5-10.14-7.57-5.18-1.67,3.05-2.07,6.64-2.22,10.08,0,4.27,1,8.54,1.69,12.76.23,1.24.45,2.74.59,4,0,.74.27,1.83-.29,2.42-.5.16-1-.32-1.34-.63-.45-.47-.93-1-1.37-1.47-1.35-1.52-2.67-3.1-3.88-4.74-2.61-3.57-4.27-7.93-7.77-10.83-1-.73-2.3-1.89-3.6-1.4-.71.34-.92,1.18-1.28,1.81-.71,1.12-1.21,2.66-2.55,3.19a6.69,6.69,0,0,1-2.85-.64,23.35,23.35,0,0,1-7.94-5c-5.56-4.89-9.3-11.32-14.06-16.87-1.24-1.29-2.83-2.82-4.75-2.81-2.35.15-3.31,2.67-3.29,4.67.34,8.56,3.83,16.82,7.62,24.52,3.1-.19,13-1.12,15.9-.49a78.15,78.15,0,0,1,10,1.26c4.06.77,7.38,3.42,10.41,6.05,3,3,5.76,6.27,8.52,9.5,3.69,4.32,7.21,8.77,10.64,13.29a68.28,68.28,0,0,0,9.09,9.77A29.81,29.81,0,0,0,333,738.42a18.82,18.82,0,0,0,4.67,1.17,24.39,24.39,0,0,0,4.6-.24,45.39,45.39,0,0,0,6.31-1.66,17.59,17.59,0,0,1,4.38-.9,33.58,33.58,0,0,1,9.44,1.72,42,42,0,0,1,6,2.41,13.83,13.83,0,0,0,6.53,1.71c2.05,0,4.1-.22,6.13-.44C383.86,741.93,387.88,741.15,387.68,737.79Z"/><path class="cls-4" d="M352.7,576.41c1.43-.87,3.27-.65,4.9-.56.88.06,1.8.16,2.68.23a4.14,4.14,0,0,0,2-.09c2.39-1.16,3.34-6.46,3.89-8.91,1-6.63,1.52-13.64-.41-20.25-1.18-3.55-3.4-6.68-5-10.07a31.85,31.85,0,0,1-3-15.11l-5.27-8.41c-10.24-1.8-13.94.45-22.58,4.79a36.09,36.09,0,0,0-15.46,13c-1.59,2.46-2.6,5.25-4,7.8-1.67,2.85-5.54,1.43-8.25,1.09s-5.47-.93-8.22-1.07c-7.06-.14-11.47,5.75-15.4,10.57-2.78,3.57-9.61,13-1.94,15.16,3.57,1,7.41.65,10.88,2a28.23,28.23,0,0,1,6.44,3.75,23,23,0,0,1,6.23,6c1,1.39,1.71,2.95,2.81,4.26,2.7,3.15,6.44,4.32,10.32,2.74,4.59-1.51,8.43-6.08,12.57-.77,3.13,4.46,3.23,10.9,2.15,15.93-1,4.45-2.14,8.9-2.17,13.5a13.67,13.67,0,0,0,.79,5.52c.53,1,1.07,2.53,2.39,2.7h0c3.43-.33,7.74-11.23,9.53-14.29,3.53-7.18,6.51-14.62,9.92-21.85.75-1.66,1.5-3.38,2.31-5A6.5,6.5,0,0,1,352.7,576.41Z"/><path class="cls-4" d="M384.76,731.87a154,154,0,0,0-4-16.9c-1.74-5.35-3.91-10.63-5-16.14-1.93-9.2-2.78-18.57-4-27.86-.83-6.14-.93-12.36-1.57-18.51a70.32,70.32,0,0,0-3.77-16.68c-.94-2.72-3.19-9.92-4-12.74-.09,0-.24,0-.27.1-.16.37-.48,1.17-.63,1.56-3.1,7.26-2.52,15.42-4.63,22.95-1.56,6.44-5.57,12-6.81,18.56-1.11,4.64.56,9.15,2,13.58,1.63,5.22,4.92,9.77,8,14.32,2,2.95,3.76,6,5.73,9,2.48,4,5.37,7.81,7.73,11.9s4.13,8.5,6.31,12.7c1.26,2.51,2.19,5.2,3.51,7.69C384.83,736.67,385,732.59,384.76,731.87Z"/><path class="cls-4" d="M802.24,556.69a29.69,29.69,0,0,0-1.08-7.16,29.28,29.28,0,0,1-1-4.1c-.38-3.83.21-7.67-.23-11.51a19.26,19.26,0,0,0-1.68-6.54,9.35,9.35,0,0,0-2.43-3.59c-1.8-1.49-4.21-1.87-6.46-2a15.48,15.48,0,0,0-3.47,0,29.91,29.91,0,0,0-7.11,2.45c-3.14,1.4-6.38,2.7-9.51,4.11-5.46,2.43-11,5.22-17,6.29-1.4.21-6.37.84-5.62-1.6a11.44,11.44,0,0,1,2.08-2.15c1.38-1.24,2.85-2.47,4.32-3.61A87.36,87.36,0,0,1,764.54,520a88.61,88.61,0,0,1,10-5c5.21-2.12,11.09-3.44,15.05-7.55,1.81-1.73,3.2-4.18,2.6-6.77-.25-1.23-.9-2.72-2.28-3.05-1.06-.3-2,.35-3,.64-1.85.71-3.69,1.46-5.52,2.2-14.32,5.81-29.32,10.25-43,17.34-8.58,4.57-17.33,9.09-25.18,14.78-3.84,2.6-12.74,11.31-17.53,8.65a8.79,8.79,0,0,1-2.12-2.18,3.55,3.55,0,0,0-1.86-1.56,53.75,53.75,0,0,1,10.6-11.74c3.86-3.08,8-5.85,12.16-8.57A78.38,78.38,0,0,0,725,509c1.77-1.68,3.21-3.68,5-5.31,2.88-2.51,5.89-4.93,9-7.21,2.28-1.63,4.69-3.11,7-4.64,4.26-2.7,9.35-3.83,14.27-5,4-1.07,7.88-2.36,11.77-3.64a62.47,62.47,0,0,1,8.25-2.15c.89-.21,1.82-.28,2.71-.5a9.4,9.4,0,0,0,5.29-4.24,20.47,20.47,0,0,0,2.88-8.72,25.41,25.41,0,0,0,.09-7.39c-.7-3.85-2.54-7.47-4.43-10.94-1.21-2-2.23-4.1-3.51-6.06-2.42-3.28-4.81-6.69-6.09-10.54a56.18,56.18,0,0,0-3.53-9.24c-2.4-4.58-5.52-8.79-8.15-13.24-3.66-6-7-12.13-10.71-18-4.3-6.21-8.58-12.47-13.42-18.32l-9.76-1.46c-1.62,1.8-3,3.86-4.63,5.68-2.65,3.14-5.63,6.12-8.34,9.21-3.64,4.06-6.7,8.68-10.55,12.57-4.43,4.3-9.26,8.27-14,12.28s-9.91,7.49-14.88,11.19a81.22,81.22,0,0,0-12.8,12.61c-2.58,3.26-4.72,6.86-7.4,10-3.67,4.77-9.5,8.06-11.54,13.92-1.8,5.94,4.77,10,9.55,12.31,3.83,1.86,8.63,4.26,12.62,1.93,3.19-1.81,5.81-4.46,8.62-6.75,5-4.22,10-7.32,16.59-8.66,4.54-1.12,9.3-1.93,14-1.24,3.47.58,7.16,1.65,9.82,4.06,1.88,1.69,1.9,4.39,1.21,6.55-1.24,3.82-3.86,7-6.46,10.05a26,26,0,0,0-4.95,6.94c-1.2,2.56-1,5.55-.47,8.31s1.31,5.6.63,8.34c-1.37,5.12-6.71,7.49-11.44,9.11-4.12,1.54-8.33,3-12.5,4.39a80.48,80.48,0,0,0-13,5.91c-2.75,1.6-5.23,3.6-7.84,5.38a27.1,27.1,0,0,1-6,2.81,22.34,22.34,0,0,1-6.08,1.53c-4.35.11-6.57-4.4-7.9-7.81-1.06-2.68-2-5.71-5.47-5.81-6.35.06-11.86,5.27-17.16,8.08a18.82,18.82,0,0,1-6.29,2.31,36,36,0,0,0-3.58.57A5.88,5.88,0,0,0,609,529a5.25,5.25,0,0,0-1,6.55c-7.83-4.52-17-6-25.07-9.86-4.79-2-8.8-5.43-13.43-7.73-8.14-3.86-16.3-7.76-24.73-11a145.7,145.7,0,0,0-22.22-7.36c-6.23-1.6-12.39-1.48-16.35,3.94a19.41,19.41,0,0,0-3.31,11.23,11.82,11.82,0,0,0,3.69,7.51,87.52,87.52,0,0,0,8.73,7.19c3.33,2.64,7.63,5.86,7.29,10.43-.65,5.86-6.81,8.85-11.78,10.93-4.39,1.75-9.51,2.6-14.12.75-5-1.84-6.56-7.47-6.93-12.11-.3-4,.92-7.8,1.53-11.65a14,14,0,0,0-.14-6.2,41.52,41.52,0,0,1-1.15-8c.11-2.31.7-4.58.87-6.89a37,37,0,0,0,.2-7.14c-.12-1.28-.64-2.52-.85-3.78-.37-2.14.26-4.69-2-6.05-6.93-4.51-15.5-5.23-23.49-5.72a36.91,36.91,0,0,0-7.58.44c.08.47-7.84-1.64-8-1.61-5.9,4.29-11.43,9.44-14.7,16a95.34,95.34,0,0,0-4.9,13.95,32.66,32.66,0,0,0-1.24,7.14,18.15,18.15,0,0,0,1.88,8.28c1.2,2.16,2.81,4.11,3.87,6.35a6.85,6.85,0,0,1,.38,5c-.63,2.81-2.62,5-4.44,7.15-8.56,9.92-13.54,22.91-10.85,36.14,1.5,8.69,5.83,16.58,9.26,24.68,4.57,11,2.64,19.75-.81,30.4-1.78,6.48-3,13.41-1.55,20.15.67,3.13,1.69,6.21,2.61,9.28.67,2.13,1.16,4.33,2,6.41,1.06,2.84,3.28,3.43,6,2.5,3.22-1,5.83-3.3,8-5.68,4.54-5.15,8.15-11.1,12.51-16.38,2.41-2.69,6.9-9.17,10.66-4.41,4.29,7.63.59,17.3-1.14,25a87.14,87.14,0,0,0-2.36,18.65c-.59,11.45,9.08,9.78,17.36,11.83,4.26,1.25,5.85,3.47,5.6,7.76-.11,5.77-1.64,11.44-3.37,16.89-2.47,7.76-4.89,15.61-7.29,23.39-1.49,4.14-2.55,8.51-4.77,12.35-2.48,4-5,8.1-7.56,12.09-.66.88-1.48,1.66-2.18,2.51-.48.65-1.13,1.34-1,2.2a3.49,3.49,0,0,0,3.09,2.16,9.28,9.28,0,0,0,5.5-1.05c3.38-1.62,6.32-4,9.51-5.89,3.71-2.18,6.83-5.13,10.28-7.65,1.72-1.27,3.39-2.64,5-4a31,31,0,0,0,4.23-3.94,50.41,50.41,0,0,0,5.36-7.16c1.57-2.34,3.16-4.7,4.63-7.09,2.76-4.58,6.08-8.82,8.87-13.37,4.42-7.55,9.83-14.5,15.2-21.41a63.24,63.24,0,0,1,4.71-5.5c1.67-1.58,3.34-3.16,5-4.7.5-.47,1.06-.87,1.56-1.32.69-.64,1.3-1.37,1.95-2a35.46,35.46,0,0,0,5.48-7c4.89-8.29,8.26-17.38,13.1-25.7a191.63,191.63,0,0,1,11.13-17.28c3.06-4.55,6-9.2,9.49-13.5,4.19-5.52,8.57-10.93,12.92-16.33,3-3.83,5.81-7.78,8.79-11.6,4.52-6.18,9.64-11.74,14.27-17.77A137.82,137.82,0,0,1,632,577c1.65-1.67,3.58-3.07,5.1-4.85a14.44,14.44,0,0,0,2.59-4.37,32,32,0,0,0,2-5.91,77.68,77.68,0,0,1,8.31,4.65,5.29,5.29,0,0,0,3.7,1.08,28.78,28.78,0,0,0,6.44-1.6c1,1,2.45,1.6,3.59,2.41,1.83,1.13,3.67,2.3,5.48,3.43,5.14,3.28,10.44,6.64,14.84,10.85,5.83,5,9.22,12.09,15.29,16.81,5.25,4.18,15.71,6.91,22.37,7.25a123.77,123.77,0,0,0,12.64-.5c5.85-.12,11.56-1.34,17.28-2.27,4.67-.72,9.47-.85,14-2,7.06-2.13,14.29-4.65,19.88-9.38a34.79,34.79,0,0,0,6.61-8.44,82.65,82.65,0,0,0,4.33-10.38c1.13-2.72,2.4-5.4,3.52-8.12A22.48,22.48,0,0,0,802.24,556.69Z"/><path class="cls-4" d="M699.06,784.18c3.93-2.72,8.07-5.22,11.88-8.09a119,119,0,0,0,18.58-18A46,46,0,0,0,734.83,748a31.45,31.45,0,0,0,2.55-16.76,44.68,44.68,0,0,0-2.33-10.35c-1-2.21-2.47-4.16-3.58-6.3a15.93,15.93,0,0,1-1.87-7.75c.11-3.34,1.17-6.6.82-10a36.2,36.2,0,0,0-9-19.07c-2.24-2.43-5.13-4.18-7.77-6.17-4.73-3.51-9.53-7-14.08-10.69-1.46-1.81-9.46-4.64-11.48-5.64-8.69,6.54-10.5,10.37-14.71,19.83a31.48,31.48,0,0,1-5.83,7.86c-3.93,4-8,7.81-11.79,11.92-2.6,2.92-5,6.07-7.45,9.08-2.79,3.34-5.37,6.88-8.25,10.14-3.93,4.32-8.1,8.46-12.12,12.71-5.88,5.89-11.15,12.33-17,18.29-3.58,3.43-7.61,6.43-11.17,9.89a66.64,66.64,0,0,0-8.11,7.82c-1.88,2.21-1.82,5.38-3.47,7.73-2,2.85-5.34,4.59-7.63,7.24-1.14,1.38-2.74,2.6-3.28,4.34-.22,3.49,3.89,5.33,6.92,5.92,3.88.75,7.48-1.24,11-2.32,4.48-1.72,8.44-4.63,13.28-5.5a16.07,16.07,0,0,1,2.4-.3,2.2,2.2,0,0,1,1.92.57c2.41,3.53-3.94,10.15-5.63,13.31-.33.53-.8,1.32-1.11,1.87-.89,1.79-2.27,3.68-2,5.78.49,2.19,3.15,3.31,5.26,3.18,5.35-.69,9.25-4.85,13.25-7.91,5.57-4.29,10.31-9.69,16.48-13.21,1-.46,2-1.22,3.17-1.21,2.55.94.14,5.61-.85,7-2,3-4.7,5.42-7.12,8-3.33,3.68-7,7.21-9.62,11.4-.85,1.66-1.89,3.48-1.65,5.41.58,2.15,3.48,1.68,5.08,1.1,3.85-1.29,6.88-4,10.52-5.7a41.57,41.57,0,0,1,7.57-2.09,22.57,22.57,0,0,1,2.84-.4,2.39,2.39,0,0,1,2.46.93c1.34,2.37.24,5.12.31,7.63.08,1.41,1.59,1.76,2.81,1.56,3.47-.57,6.34-2.74,9.21-4.51,2.61-1.86,5.69-3.07,8.24-5,2.37-1.87,4.52-4,6.77-6a61.32,61.32,0,0,0,6.1-5.73c2.24-2.26,4.2-4.8,6.6-6.9C693.84,787.09,696.62,785.85,699.06,784.18Z"/><path class="cls-4" d="M754.73,770.18h-.2c-3.74,5.2-6.81,10.86-10.39,16.17a34.38,34.38,0,0,1-11,9.8,21,21,0,0,1-5.67,2.26c-2.24.39-4,2-5.37,3.58-2.61,3.44-4.72,7.32-8.16,10.09-4.31,3.63-9.5,6.17-13.86,9.75a10.76,10.76,0,0,0-2.17,2.09c-1.06,1.87,1.3,3.34,3,3.66a38.71,38.71,0,0,0,5.46.64c1.16.12,2.49.1,3.41.92,1.25,1.05,1.64,2.66,2.53,3.94,3.17,4.15,10.18,1.34,14-.32,7-3.17,13.87-6.75,19.23-12.13,1.46-1.42,3-2.8,4.35-4.31a32.54,32.54,0,0,0,3.39-4.86,52.45,52.45,0,0,0,4-9.3,66.92,66.92,0,0,0,1.5-7.16,104,104,0,0,0,1.8-16.89Z"/><path class="cls-4" d="M315.17,323.42c.41,3,2.13,5.69,3.62,8.31a36.28,36.28,0,0,1,4.13,9c3.9,13.31-6.92,20-.84,24.42,4.76,3.09,10.73,2.77,16,4.37,3.32.71,5.73,3.38,7.71,5.93.57.23-.12-1.84-.14-2.05-.56-2-1.21-4.07-1.78-6-1.43-5.07-3-10.16-4.83-15.12a87.56,87.56,0,0,1-4.62-16.82c-.89-4.5-.27-9.05-.38-13.57a26.9,26.9,0,0,0-3.11-10.56,21.8,21.8,0,0,0-1.54-2.25l-.31-.41-.33-.43L324.39,298c-.41-.6-.28,2.3-.39,2.42a26.36,26.36,0,0,1-1.17,6c-.87,2.48-2.62,4.55-4.15,6.64C316.54,316,314.63,319.6,315.17,323.42Z"/><path class="cls-4" d="M423.64,392.89c5.85-.49,7.17-20.11,8.26-24.95.41-1.32,2-.42,2.8.09,2.82,2,4.82,5,6.78,7.74,2.82,4,4.7,8.46,7,12.69.65,1,1,2.37,2.06,3.12,2,1,3.84-3.9,4.55-5.17,3.35-7.5,4.21-15.93,4.87-24.08a112.61,112.61,0,0,0,.12-15.26c-.36-4.58-1.1-9.21-1.58-13.78-.75-7.34-2.1-14.68-2.26-22.05.33-4.46,3.94-7.84,6.93-10.84,2.12-2.14,4.8-3.79,6.77-6.07,2.7-3.46,1.55-8.2.49-12.17a79.94,79.94,0,0,1-2.67-25.62,47.42,47.42,0,0,1,3.31-14.32,48.61,48.61,0,0,0,2.17-6.88c.25-1.33.9-2.81.25-4.13a4.91,4.91,0,0,0-2.49-1.68,22.73,22.73,0,0,0-3.44-.94,42.68,42.68,0,0,0-7.48-.71,25.23,25.23,0,0,1-5.2-.41c-4.12-1-8.4-2.33-12.63-1.71-3.93.68-7.54,2.44-11.13,4-1.62.73-3.12,1.71-4.78,2.34a17.13,17.13,0,0,1-5,.74,27,27,0,0,1-4.4.34,26.19,26.19,0,0,1-5.08-1.18c-10.72-3.6-19.33,3-28.28,7.24A39.6,39.6,0,0,0,369.32,241a36.8,36.8,0,0,0-11.42,6.56c-9.9,7.92-6.47,15,5,18.75,2.24.8,4.7,1.37,6.6,2.87a10.76,10.76,0,0,1,3.9,6.25c.56,3.76,0,7.61-.51,11.31s-2.18,7.57-.64,11.3c1.33,3.26,4.4,5.4,6.52,8.14a14.67,14.67,0,0,1,3,8.27c.21,5.67-3.16,10.55-4.71,15.79-2,5.18-.66,8.81,5.68,8.61A71,71,0,0,0,391,337.6c2.29-.28,6.71-1.4,7.26,1.88.14,3.74-2.47,6.86-4.46,9.78a29.62,29.62,0,0,0-4,8.15,23.87,23.87,0,0,0,1.12,17.46c1.52,3.28,3.68,7,7.42,8.12a6.6,6.6,0,0,0,5.71-1.11c5.65-3.75,5.42-15.82,4.37-21.95-.47-3.11-1.14-6.31-.91-9.44.14-2.13,1.83-3,3.7-1.86,9.33,6.34,5.19,28.06,8.74,38.29C420.66,388.84,421.51,392.45,423.64,392.89Z"/><path class="cls-4" d="M485.58,299.58c.88,3.25,5.83,4.58,8.66,5.78a12.06,12.06,0,0,1,3,1.37c2,1.72,1.95,4.63,1.63,6.94a45.25,45.25,0,0,1-2.72,8.6,16.23,16.23,0,0,0-1,3,9.93,9.93,0,0,0,.06,3.48c.55,3.1,1.68,6.12,2.22,9.22a14.28,14.28,0,0,1,.41,4.73c-.73,5.7-4.64,10.5-5.12,16.25,0,5.38,4.59,9.39,7.9,13.29a77.21,77.21,0,0,1,7.76,11c3.79,5.78,5,12.3,5.24,18.95.63,6.65,10.24,10.64,9.42,16.39-.87,4.35-4,8-4.84,12.44-.39,3.15.32,7.05,2.52,9.51,2.32,2.25,6,2.63,7.92,5.32,2.49,2.86,1.79,6.79,1.24,10.11s-.88,6.54-1.21,9.81-1,6.68-1.46,10c-.33,2.44-.62,5,.31,7.43,1.68,3.86,5.92,7.66,10.32,7.82a28.36,28.36,0,0,0,3.06-.12,3.42,3.42,0,0,0,1.9-.5,3,3,0,0,0,.84-2,20.06,20.06,0,0,0-.13-4c-.2-2.06-.46-4.14-.52-6.2-.21-6.71,2.1-13.11,4.42-19.26a81.14,81.14,0,0,1,5.18-10.18c1.24-2,2.88-3.79,4.14-5.79a19.9,19.9,0,0,0,3.14-13.49c-.35-2.67-1.22-5.33-1.32-8-.3-4,1.64-7.62,3.44-11.05,3-5.55,4.68-11.73,6.4-17.79a190.76,190.76,0,0,1,7-19.72,97.34,97.34,0,0,1,14.49-24.21c4.48-5.61,8.75-11.45,13.54-16.81,2.11-2.3,4.23-4.68,6.44-6.89,1.26-1.25,2.36-.49,3.72.22,1.68.42,3.29-.66,4.5-1.62a26.83,26.83,0,0,0,6.43-8.66c1.45-2.93,2.79-6.31,6.48-6.95a29.25,29.25,0,0,1,4.59-.45c1.69-.08,3.62-.1,5,1.11,2.64,2.44,2.65,6.21,2.75,9.45,0,1.17-.23,3.3,1.66,2.71,2-.67,3.75-2.09,5.56-3.17a63.51,63.51,0,0,1,8.46-4.52,31,31,0,0,1,3.2-1.22,2.53,2.53,0,0,1,2.36,0c1.23.9,1.91,2.34,2.76,3.55a11.42,11.42,0,0,0,4,3.68c3.92,2,8.48,2.06,12.46,3.93,1.63.7,3.16,1.64,4.75,2.43,2,1.05,4.08,2,6.06,3.1a128.16,128.16,0,0,0,11.61,5.94,4.46,4.46,0,0,0,3.51-.16,3.27,3.27,0,0,0,1.56-1.79c.63-2.29-1.43-5.47-2.64-7.43a52,52,0,0,0-4.94-5.76c-1.68-1.75-3.35-3.57-5.14-5.21-2.8-2.47-5.84-4.69-8.66-7.14-3-2.54-6.16-4.94-9.08-7.59a65.34,65.34,0,0,1-5.75-5.78,100.13,100.13,0,0,1-7.3-8.39c-2.45-3-5.22-5.71-7.71-8.66a84.25,84.25,0,0,0-9.74-10.34,48,48,0,0,0-7-4.77c-3.38-1.85-6.91-3.43-10.28-5.29s-6.36-4.07-9.54-6.08c-2-1.29-4.15-2.45-6.15-3.74-2.4-1.53-4.75-3.23-7.15-4.75s-5.09-3.07-7.65-4.54a70.37,70.37,0,0,0-8.59-4.42,169.59,169.59,0,0,0-28.44-9.91c-5.23-1.5-14.7-.52-20-.47-1.82-.53-3.82-1-5.66-1.46-6.29-1.52-12.78-1.44-19.16-1.78-9.17-.54-14.21,0-20.38,7.12a19.76,19.76,0,0,0-5.09,11.7c-.32,7.5,2.25,14.81,4.22,22,3.06,10.62-2.56,19.93-8.43,28.15C489.15,290.84,485.13,296.36,485.58,299.58Z"/><path class="cls-5" d="M419.33,253.18c-.37-2.87-3-4.74-5.6-5.78a34.64,34.64,0,0,1-4.82-2.14c-3-1.75-4.18-5.64-7.58-6.79-3.73-1.1-7.46.86-10.56,2.59a16.46,16.46,0,0,0-5.66,5c-2.75,4.05-2.71,9.85-3,14.64s4.93,5.29,8.65,4.65a26.24,26.24,0,0,1,4.14-.47,2.73,2.73,0,0,1,2.71,2.55c0,1.81-1.19,3.35-2.33,4.63a9.77,9.77,0,0,1-5.25,3.11c-2.18.59-4.58.41-6.7,1.18a26.43,26.43,0,0,0-3.5,2c-6.42,3.46-6.66-9.23-6.81-12.87-.06-2.33,0-4.69,0-7a12.82,12.82,0,0,0-.41-4.61,11.2,11.2,0,0,0-6.16-5.78A19.76,19.76,0,0,0,363,247l-.56-.13-14.82,2.5A67.83,67.83,0,0,0,341,260.19a14.15,14.15,0,0,0-1.64,9.41c.56,3.73,2.26,6,6.1,6.85a18.64,18.64,0,0,0,7.62-.21c2.92-.54,5.8-1.35,8.71-2,1.07-.22,2.16-.43,3.25-.56a3,3,0,0,1,2.77.66c3.4,3.59-.5,8-2.14,11.31a23.93,23.93,0,0,0-2,6.23c-.73,3,1.27,4.95,4.08,5.82,4.26,1.47,7.32-.15,9.52,4.84,1.64,3.34-4.27,6-6.21,7.93a17.11,17.11,0,0,0-4.83,6.32c-2.65,6.37-.7,13.24,2.45,19.26a40.15,40.15,0,0,0,2.16,3.9c.63,1,1.41,2.16,2.71,2.18,3.6-.25,6.67-4.44,8.45-7.19,3.39-5.59,3.65-12.33,3.87-18.74a70.78,70.78,0,0,1,1.57-11.89,58.36,58.36,0,0,1,5.06-14.73,4.32,4.32,0,0,1,3.7-2.08c1.54-.2,3.13-.31,4.65-.63a22.53,22.53,0,0,0,5.84-2.26,11.17,11.17,0,0,0,4.61-3.77c3.6-4.34,4.79-10,5.51-15.49a35.67,35.67,0,0,1,.37-4.62C417.72,258.19,419.73,256,419.33,253.18Z"/><path class="cls-5" d="M457.29,229.19c-2.54.46-5.2,1.11-7.69,1.78-2.8.73-5.72,1.71-7.76,3.78-2.64,2.67-4.25,6.87-2.84,10.6.71,2,2.37,3.35,3.92,4.7,1.82,1.65,3.93,3.66,3.7,6.26-.46,4.55-4.57,7.36-7.21,10.71-3.14,3.3-1.4,8.09-.25,12a15.09,15.09,0,0,1,.36,5.31,58.74,58.74,0,0,1-1.82,8.17,32.06,32.06,0,0,0-1.18,6.6c0,4.2,1.24,8.34,2.2,12.43a53.68,53.68,0,0,1,1.79,14.4,57.1,57.1,0,0,1-.41,5.85,14.45,14.45,0,0,0-.22,3.28,1.83,1.83,0,0,0,2.43,1.56c2.79-.91,4.81-3.38,6.35-5.71,3.43-5.4,3.71-9.77,2.59-16-1-7.75-3.8-15.48-3-23.31.6-5.4,2.55-10.52,3.87-15.75,1.1-5,3.4-9.55,5-14.36,1-2.71,1.77-5.49,2.79-8.18,1.6-3.72,3.51-7.32,4.82-11.16l-6.87-13.06Z"/><path class="cls-5" d="M306,374.88a5.16,5.16,0,0,0,3.73-.52,7.68,7.68,0,0,0,2.22-5.12c.28-6.92-4.36-12.83-8.23-18.32-1.76-2.46-3.46-5.07-5-7.66a17.45,17.45,0,0,1-2.82-7.07c-.33-3.21.35-6.44.92-9.56.72-3.73,1.55-7.48,2.41-11.17l-8-12.51-.16,0c-7.08,3.63-14,9-16.95,16.48-1.56,5.37,1.25,9.07,6.47,10.82a17.07,17.07,0,0,1,4.34,2c2,1.86,2.27,4.82,2.71,7.32s.39,5.05.61,7.55a31.22,31.22,0,0,0,7.26,17c1.8,2.32,3.68,4.67,5.6,6.91C302.43,372.56,303.77,374.55,306,374.88Z"/><path class="cls-5" d="M497.23,264.67c.79,5.86,7.74,4.62,11.82,3.5,1.26-.24,2.52-.88,3.84-.73,1.43.56,1.54,2.38,1.5,3.65-.19,2.64-1.64,4.91-2.74,7.24a18.76,18.76,0,0,0-1.88,7.44,5.16,5.16,0,0,0,2.86,5.27c3.13,1.63,7.86-1.12,9.71-3.55,2.13-3.08,2.56-7,2.83-10.72.12-3.29.06-5.38,2.7-7.74,3.8-3.33,10.22.31,14.1-3.51,3.38-3.38,5.69-8.19,5-13.1-.11-1.28-.26-2.6-.36-3.88a4.42,4.42,0,0,1,.43-3c2.07-2.69,7-3.31,10.24-4a11.9,11.9,0,0,1,5.11,0,7,7,0,0,1,3.9,3.53c1.51,3.94-1.23,7.66-2.94,11-1.22,2.11-2.3,4.51-1.77,7s2.38,4.64,3.28,7.07c1,2.23-.4,4.36-2.46,5.27s-4.47,1.1-6.7,1.59a39.84,39.84,0,0,0-4.34,1.07,23.25,23.25,0,0,0-4.29,2.15c-3.28,2-6.81,4.22-8.57,7.7a8.47,8.47,0,0,0-.42,4.09,26.13,26.13,0,0,1,.71,4.54,12.72,12.72,0,0,1-.16,1.95,6.17,6.17,0,0,0-.2,2.05c.35,2.15,3,3,4.87,2.47a13.54,13.54,0,0,0,5.34-3.16c2.59-2.24,4.76-4.95,7.34-7.2a14.3,14.3,0,0,1,10.26-3.31A51.72,51.72,0,0,1,575.9,291c3,.72,6.06,1.28,9.06,1.93a29.84,29.84,0,0,0,9.15.91,3.72,3.72,0,0,0,3.71-2.35c1.85-3.72.42-7.91-2-11.2a59.89,59.89,0,0,1-3.83-5.44c-1.32-2.25-.27-4.13,1.4-5.69,1.75-1.76,3.91-3.16,5.45-5.11,3.21-3.62.57-7.5-2.69-10.22a50.19,50.19,0,0,0-4.73-3.19c-.61-.52-4.18-2.21-2.77-3,4.12-1.41,8.57.62,12,3,2.22,1.55,4.2,3.47,6.5,4.91a26.45,26.45,0,0,0,14.51,4.11,33.36,33.36,0,0,1,4,.15,11.87,11.87,0,0,1,3.38,1.29c1.75.85,3.38,1.93,5.09,2.84a41.26,41.26,0,0,1,5.53,2.54,11.83,11.83,0,0,1,2.08,1.57c1.42,2.19-1.54,3.66-3.23,4.35-3.43,1.49-9.51,4.38-7.76,9a7.81,7.81,0,0,0,5.16,4.23,8.5,8.5,0,0,0,4.59.4c5.1-1.37,8.24-7.79,10.65-12,.64-1.41,2.33-1.85,3.43-2.83a2.45,2.45,0,0,0,.21-3.16c-1.75-2.5-4.82-3.7-7.39-5.21A100.78,100.78,0,0,1,637,256.24c-4.91-3.36-10.55-5.43-15.79-8.19a60.5,60.5,0,0,1-6.38-4.14,137.13,137.13,0,0,0-16-9.26,111.9,111.9,0,0,0-13.56-6c-4.38-1.47-8.78-3.13-13.38-3.71-.88-.57-9.65,1.48-10.68,1.53-3.78-1.54-7.94-2.65-12-2a34.83,34.83,0,0,0-7,1.87,15.57,15.57,0,0,0-4.24,2.11c-2,1.85-2.69,4.72-4.55,6.71a11.27,11.27,0,0,1-7.37,3.82c-5.61.88-8.46-6.6-13.43-5.51-3.3.87-4.87,4.17-6.41,6.85a78.49,78.49,0,0,0-5.31,11.52c-.85,2.26-1.7,4.54-2.5,6.81C497.8,260.63,497,262.61,497.23,264.67Z"/><path class="cls-5" d="M589.24,316c-7.42-1.73-15.24-.89-20.45,4.71-1.6,1.7-2.68,3.83-4.29,5.52a17.19,17.19,0,0,1-7.6,4.81c-2.69.94-5.69,1.05-8.28,2.25-6.21,3.34-8.51,10.64-10.48,16.91-1.06,4-2.31,8.21-1.76,12.46a9.51,9.51,0,0,0,1.36,4.2c1.59,1.83,4.4,1.51,6.37.66,3.91-1.66,6.67-5,9.56-7.9,4.35-4.36,8.45-9,12.5-13.65a35.94,35.94,0,0,1,8.68-7.38c3.82-2,8.25-3.33,10.86-6.88a10.91,10.91,0,0,0,2.38-6.34l1.76-9.12C589.93,316,589.32,316,589.24,316Z"/><path class="cls-5" d="M499.53,370.47c4,7.34,9.46,1.88,9.56-4.06.12-7-3.77-13.42-6.34-19.84-2.13-5.76,4-10.1,8-13a45.08,45.08,0,0,1,7.57-4.36c4-1.63,8.19-3.22,11.67-5.85A12.42,12.42,0,0,0,533.4,320c.39-1.47,6.43-7.66,7.46-8.85-.19-.69-1.14-1.42-1.58-2a21.19,21.19,0,0,0-3.4-3.09c-3.68-2.6-8.85-3.73-13-1.87-3.57,1.77-5.27,5.67-6.37,9.26a23,23,0,0,0-.78,6.41c-.08,1,.16,2.14-.27,3.08-1.61,2.7-9.55,2.11-12.69,2.59a75,75,0,0,0-7.63,1.12c-1.74.38-3.6.75-4.94,1.95-2,1.76-3.35,4.09-4.89,6.2a44.44,44.44,0,0,0-4.89,7.86c-1.64,4.14-4.45,12.22,2.45,13.26,2.86.38,5.66-.68,8.51-.47,3.69.46,4.37,5.09,5.36,7.9A31.36,31.36,0,0,0,499.53,370.47Z"/><path class="cls-5" d="M655.36,456.88a17.53,17.53,0,0,0,8.85,14c4.3,2.34,9.34,2.85,14.12,3.16,11.46.91,17.59-2.43,17.87-14.14.23-9.25-3.84-11.18-10.91-16-2.79-2.07-2.17-5.92-.07-8.09A10.59,10.59,0,0,1,690,432.4a12.5,12.5,0,0,1,8.84,1.46c2.91,1.69,5.35,4.19,8.56,5.38,6.33,2.54,11.26,2.92,13.28-4.35,1.6-5.24,1.59-9-2.2-13.57-1.2-1.47-2.75-2.8-3.36-4.62a3.68,3.68,0,0,1,3.28-5.13c1.83-.07,3.52.92,5.12,1.72,3.29,1.76,5.91,2.85,7.53-1.23.84-2.08,1.34-4.31,2-6.45.47-1.53.89-3.37,3-2.45a21.58,21.58,0,0,1,6.17,5.07c1.78,2.39,2.5,5.32,3.11,8.14a17.45,17.45,0,0,0,1.79,5.84c1.84,3.05,6.14.77,7.64-1.31,2.32-3,1.88-7,1.28-10.53-.48-3.22-1.21-6.43-1.91-9.63-1.34-5.56-.88-11.23-1.42-16.85a14.48,14.48,0,0,0-3.07-7.63,10.21,10.21,0,0,0-2-1.88c-.12-.1-.41-.27-.54-.36l-9.51-2.22c-4,1.32-8.17,2.75-11.48,5.34a14.28,14.28,0,0,0-4.41,7.41c-1.16,5.27-2.52,7.48-7.15,10.4-1.65,1.06-3.41,2-5.14,2.91a11.68,11.68,0,0,0-2.54,2.32,37.89,37.89,0,0,0-4.54,6.55,14.76,14.76,0,0,1-5.31,5.86c-3.14,2-6.64,3.38-9.87,5.18-2.65,1.38-5.21,3.29-6.26,6.14-.66,2-.74,4.14-1.92,5.91a12.91,12.91,0,0,1-3.34,2.9c-2.87,2.12-6.23,3.49-9.38,5.16-2.59,1.45-5.29,3-7.08,5.36A21.67,21.67,0,0,0,655.36,456.88Z"/><path class="cls-5" d="M755.32,473.73c-1,3.61-5.15.16-7.16-.92a26.44,26.44,0,0,0-7.09-3.39c-2.61-.68-5.21.46-7.23,1.92a22.12,22.12,0,0,0-9.09,16.25c-.77,5.38-.09,11.05-1.76,16.26a36.24,36.24,0,0,1-3.62,7,17.62,17.62,0,0,0-1.82,3.25c-.41,3.56,8,.79,9.76.34a23.17,23.17,0,0,0,10-6.24c1.95-2.26,3.4-4.91,5.32-7.19a9.14,9.14,0,0,1,6.12-3.15,87,87,0,0,0,13.27-2.29,31.37,31.37,0,0,0,8.67-4.5,76.82,76.82,0,0,0,6.68-5c.37-1.08,4.76-9,4.12-10.21.3-6.93-2.63-9.32-9.51-10.24-4.44-.54-9.37-.18-13,2.36C757.22,469.42,756.25,471.64,755.32,473.73Z"/><path class="cls-5" d="M795.74,527.39c0-2.15-.14-6.48-2.1-7.83l-8.36-5.2c-.16-.21-.7-.55-.88-.76a26.76,26.76,0,0,0-8.63-5.43c-5.32-1.55-11,1.35-13.8,5.6a15.83,15.83,0,0,0-2.51,6.2c-.17,2.24,1.38,4.34,3.18,5.66,2.1,1.51,4.42,2.84,6,4.88,3.54,4-8.64,7.42-11.26,8.32a22.62,22.62,0,0,0-6.45,2.9c-4.4,3.24-9.54,11.72-11.25,16.86-.93,2.34,0,4.09,2.66,4.69,5,.89,12.3-2.76,16.64-4.92,5.53-3.09,9.65-7.9,13.57-12.65a20.31,20.31,0,0,1,3.78-3.91,7.76,7.76,0,0,1,4.46-.34l4.07.5a15.32,15.32,0,0,0,3.23.27C794.65,541.14,795.7,532.76,795.74,527.39Z"/><path class="cls-5" d="M718.87,607.11c5.61-.24,11.24-.46,16.78-1.25,2.07-.26,4.28-.35,6.17-1.24,2.45-1,4.77-3.35,4-6.19a12.46,12.46,0,0,0-6.11-5.87,18.31,18.31,0,0,0-6.94-.88,32.22,32.22,0,0,0-11.33,2.22c-3.69,1.63-7.12,4.36-11.36,4.54-2.25.11-3.68-1.87-3.92-3.86a4.08,4.08,0,0,1,1.12-4c3.18-3.6,11.47-8.33,10.4-13.73-.55-2-2-4.63-4.53-4.52a17.77,17.77,0,0,0-4.43,1.54c-2.31,1-4.68,2-7.06,2.85-6.17,2.15-12.93,3.23-18.52,6.63v.18c3,2.49,9.09,7.08,11.73,9.79,1.4,1.44,2.58,3.08,3.84,4.64a47.81,47.81,0,0,0,4.65,5.21C707.69,607.08,713.41,607.42,718.87,607.11Z"/><path class="cls-5" d="M362.5,533.06c-.09-3.23-1.27-6.48-5-7a18.6,18.6,0,0,0-14.18,5c-2.72,3.16-5.21,6.56-8.33,9.37-3,2.6-6.38,4.75-9.52,7.17-.73.48-1.46,1.27-2.43,1.07-2.23-1-2.42-5.1-1.92-7.07,1.38-6.12,15.22-16.74,20.73-20.46,3.38-1.94,7.41-2.45,11.21-3.27a6.36,6.36,0,0,0,2.48-1A4.8,4.8,0,0,0,357,514.8c.11-.31,0-.71.13-1l-.07-.15c-1.48-.46-9.73-3.86-11.15-3.23a68.5,68.5,0,0,0-16.56,2.87,16.93,16.93,0,0,0-10.26,9.34c-.9,2.15-1.21,4.51-2.05,6.68-.91,2.67-3.22,4.5-5.44,6.14-1.89,1.41-3.84,2.78-5.66,4.27a16.3,16.3,0,0,0-4.6,6.77,13.56,13.56,0,0,0-1.27,5.6c0,3.57,3,6.44,6.25,7.73,1.53.66,3.41.74,4.57,2.06.71.69.49,1.76.3,2.59-.79,3.29-5.14,5.89-3.61,9.62l.15.08,0,.17c.56,1.34,1.95,2,2.82,3.16a3.44,3.44,0,0,1-.33,4.57,20.69,20.69,0,0,1-2.24,1.93,10.6,10.6,0,0,0-3.43,4.63,9.74,9.74,0,0,0-.75,4.82,6.36,6.36,0,0,0,4.71,4.58c1.28.45,2.75.66,3.76,1.63a5.43,5.43,0,0,1,1.13,4.88c-.82,2.48-3.3,3.82-5.13,5.53-2.16,2-4,4.77-3.93,7.83a11.48,11.48,0,0,0,13.94,9.74c3.81-1.11,5.94-4.62,7.5-7.93.74-1.4,1.32-3,2.55-4.05,1.56-1.13,3.4-1.92,4.9-3.13s3-2.41,3.65-4.17c1.17-2.87-1.1-5.6-2.42-8.08a9.93,9.93,0,0,1-1.07-4.6c1.23-7.06,12.31-11.66,3.3-18.66a23.1,23.1,0,0,0-4.86-2.65,7.58,7.58,0,0,1-2.93-1.78,4.77,4.77,0,0,1-.17-4.6,3.05,3.05,0,0,1,2.41-1.49c3.85-.31,5.87,3.71,8.74,5.53,2,1.37,4.59.12,5.83-1.58a8.62,8.62,0,0,0,1.47-3.69,21.12,21.12,0,0,0,0-7c-.22-2.77-.26-5.57-.26-8.34s2.34-4.31,4.21-5.81c1-.8,2-1.62,3.09-2.36a11.66,11.66,0,0,1,2.09-.87,10.89,10.89,0,0,0,3.92-1.85C362.09,538.58,362.58,535.67,362.5,533.06Z"/><path class="cls-5" d="M240.65,656.39a25.67,25.67,0,0,0-3.37-10.08c-1.75-3.12-3.67-6.2-4.7-9.62-1-2.53-1.7-5.56-4.07-7.24-2.85-1.42-4.83,2.27-5.41,4.46-.94,5.49-.13,11.18.17,16.73-.16.69,1.87,9.82,2,10.75.21.34.47.76.69,1.09,1.15,1.61,2.28,3.88,4.45,4.22.95.13,1.59-.62,2.23-1.16a11.36,11.36,0,0,1,2.24-1.65,24.89,24.89,0,0,0,3.86-2.61A6.38,6.38,0,0,0,240.65,656.39Z"/><path class="cls-5" d="M624.63,567.17c6.64,1.14,5.91-7.2,3.58-11-2.71-4.69-8.42-7.22-13.4-9-2-.66-4.27-1.13-6.25-.27a11.79,11.79,0,0,0-2.88,1.9c-.68.52-1.62,1.53-2.53.76-1.27-1.29-1.7-3.14-2.48-4.7-2.17-5.44-5.45-7.19-11.13-8.18-5.41-.94-7.51.28-9.54,5.12-.74,1.38-.94,3.51-2.71,4-2.21.32-4.21-1.7-6-2.77-2.64-1.78-5.39-3.63-7.22-6.25-3.42-5.14-1.16-11.38-2.5-16.95-.41-.29-8.12-7.26-8.7-6.77a58.26,58.26,0,0,0-15.35-2.63c-10.36-.49-18.83.26-26,8.11-3.71,4.06-6.65,8.28.92,10.44,5.44,1.49,11.37.2,16.62,2.53,3.91,1.84,6.87,6.49,5.42,10.61-1.62,5-6.64,8.67-6.56,14.25,0,1.34-.13,3.45,1.26,4.24,4.21,1.33,10.32-5.91,13.06-8.51,2.17-2.09,4.17-4.46,6.78-6.06,2.38-1.38,5.68-1.79,8,0a5,5,0,0,1,1.6,5.3c-1,4.3-4.56,7.35-6.52,11.19-1.65,2.73.24,4.6,2.88,5.69,3,1.23,6.28,1.31,9.37,2.13,2.38.76,4.89,1.77,6.57,3.67a9.27,9.27,0,0,1,1.74,4.4,8,8,0,0,1-1,4.39c-2.09,3.78-6.22,5.85-9.69,8.27a51.36,51.36,0,0,0-6.9,5.09,17,17,0,0,0-4.42,4.88,23.36,23.36,0,0,0-2.81,7.18c-.51,3.15-.45,8.22,4.15,8a6.66,6.66,0,0,0,3.41-1.57,25.78,25.78,0,0,0,4.5-4.72c.91-1.19,2.57-3,4.19-1.69,2.3,2.21,2.3,8.14,2.26,11.12,0,2.33-.71,4.85.48,7.05,3.11,5.28,12.42,3,15-1.4,3.4-5.11.74-11.24-1.54-16.41-1.25-3-2.93-5.87-3.37-9-.46-6.67,5.52-12.69,8.28-18.47.69-1.25,1.29-2.58,2-3.79a4.17,4.17,0,0,1,3.3-1.49c2.64.14,4.78,2,7,3.27a10.87,10.87,0,0,0,3.91,1.76c3.79.31,5.4-3.92,6.13-6.85.57-2.26.14-4.66.49-6.94.38-1.48,2-2.16,3.44-2.44a13.91,13.91,0,0,1,6.19.65C620,565.89,622.31,566.67,624.63,567.17Z"/><path class="cls-5" d="M526.33,675.33a33.14,33.14,0,0,0-1.18-7.09l-6-7.77-.35-.33a17.05,17.05,0,0,0-3.91-2.65c-5.19-2.54-10.94,1.18-13.46,5.48-2.12,3.56-2.24,7.84-2.35,11.9a50.61,50.61,0,0,0,.39,10.14c.14,1.17.45,2.34.6,3.51a9.25,9.25,0,0,1-.92,4.26c-3,6.19-7.31,12-8.37,18.91-.28,2.16-1.52,7.27,1.74,7.71,6.45-.88,12.68-13.21,16-18.22a42.28,42.28,0,0,1,7-7.64c2.43-2.12,5-4.1,6.83-6.8A16.63,16.63,0,0,0,526.33,675.33Z"/><path class="cls-5" d="M445.15,646.39c-1.87-3.28-4.19-7.18-8.27-8-7.16-.84-13.93,5.75-17.79,10.85a22.85,22.85,0,0,0-3.85,7.34c-1,2.77-.39,5.52,2.33,7.17a39.41,39.41,0,0,0,5.69,2.78c1.15.59,3.36,1.23,3.63,2.62.05,1.7-1.38,3.05-2.32,4.34-2.28,2.85-5.25,5.33-6.37,8.9a19.7,19.7,0,0,0,.18,14.71c1.29,3.07,4.05,6,7.64,6.2,4.81.47,5.7-4.65,5.87-8.25.39-5-1.67-12.72,1.95-16.64,4.19-4.43,10.38-7.07,13.57-12.37a21.3,21.3,0,0,0,2.48-8,26.54,26.54,0,0,0,.2-2.82Z"/><path class="cls-5" d="M562.41,666a24.21,24.21,0,0,0-13.22.71c-5.3,2.09-10.14,6-12.24,11.25-1.71,4.31-2.58,8.95-4.14,13.33-1.32,3.92-3,7.74-4.17,11.7-.95,4.63,6.63-.28,8-1.27,7.28-4.93,10.52-10.18,14.62-17.58,1.41-2.41,2.79-4.87,4.28-7.23,1.45-2.16,5.84-8.41,7.33-10.65l-.08-.18Z"/><path class="cls-5" d="M708.31,669.86a10.88,10.88,0,0,0-3-6.1c-1.8-1.86-9-6.44-11.18-8.09-3.55-.2-7.35.5-10,2.79a16.43,16.43,0,0,0-5,7.66c-1,3.4-1.07,7-1.53,10.52a11,11,0,0,1-.41,2.22,13.91,13.91,0,0,1-1.17,2.35,21.17,21.17,0,0,0-1,3.52c-.86,3.19-3.61,5.31-6.07,7.36-2.27,1.86-4.49,3.81-6.61,5.84-1.09,1.08-2.23,2.16-3.22,3.33a27.57,27.57,0,0,0-2.77,4.32,18.45,18.45,0,0,0-1.86,5.18c-.25,1.2-.36,2.51-1.31,3.4-2.26,2.36-5.86,2.74-9.06,2.9a13.41,13.41,0,0,0-5.91,2.52,26.09,26.09,0,0,0-3.92,5.08,93.35,93.35,0,0,0-5.37,9,39.87,39.87,0,0,0-2,6.13,15.47,15.47,0,0,1-2.9,6.62c-1.53,2.15-4.46,4.16-4,7.1s3.76,4.68,6.62,4.61c3.8-.24,7.06-2.3,10.25-4a14.15,14.15,0,0,1,3.18-1.54c1.8-.26,1.21,1.88.66,2.75-1.72,3-4.54,5.2-6.72,7.85-1.47,1.82-2.86,4-2.77,6.38.26,3.13,2.41,6.67,5.9,7.07,6.15-.41,8.36-7,11.43-11.17.91-1.23,2-2.61,3.72-2.73a17,17,0,0,0,5.23-.92c3.79-1.73,6.17-5.29,8.58-8.46a16.18,16.18,0,0,0,3.15-11.78c-.69-3.94-3.83-6.78-7.11-9-4-2.73-5.09-8.19-1.8-11.65,3.85-4.13,9.69-4,14.87-5.31a20.06,20.06,0,0,0,12.17-9.58,18.68,18.68,0,0,0,2.6-8.56,69.7,69.7,0,0,0-1-8.5,25.84,25.84,0,0,1-.63-3.79c.24-1.94,1.89-3.37,3.13-4.77a25.74,25.74,0,0,1,3.69-3.3c2.87-1.57,6.3-1.84,9.45-2.71a7.56,7.56,0,0,0,2.15-.77A4.4,4.4,0,0,0,708.31,669.86Z"/><path class="cls-5" d="M614.14,762.09c-.13-.1-1.21-9.45-1.52-9.41-9.1.5-12.56,5.45-14.73,13.35-1.53,4.07-5.81,6.23-9.07,8.88a47.35,47.35,0,0,0-4.12,3.48,8.5,8.5,0,0,0-2.22,3c-1,6.54,11.14,6,15,4.19,6.13-3,10.92-8.07,14.69-13.5a14.11,14.11,0,0,0,1.46-5A25.16,25.16,0,0,0,614.14,762.09Z"/><path class="cls-5" d="M721.35,750.82a30.25,30.25,0,0,1-2.88,9.11,27.56,27.56,0,0,0-2.13,5.27c-.41,1.58-.18,2.85,1.84,2.93a9.89,9.89,0,0,0,5.3-2.22c2.11-1.55,3.45-3.82,4.87-5.94,1.8-2.79,3.54-5.65,5.47-8.37,2.47-3.37,4.92-6.77,7.42-10.12a36.43,36.43,0,0,0,3.53-5,20.1,20.1,0,0,0,1.86-6.38,18.83,18.83,0,0,0-.27-7.17A57.91,57.91,0,0,0,742,712.59c-1.71-3.18-3.79-6.2-5.74-9.25-.28-1.33-7.28-7.45-8.22-8.49-4.75,1.71-10.4,4.2-8.77,10.17,1.07,4.66,3.3,9,5.41,13.33,1.84,3.32.3,6.74-1.68,9.49-1.16,1.57-2.46,3.1-3.71,4.61a9.28,9.28,0,0,0-1.82,2.82C716.16,739.49,722,744.76,721.35,750.82Z"/><path class="cls-5" d="M749.76,781.64c-.31-1.14-1.94.35-2.41.73-.74.63-1.53,1.38-2.21,2.07l-.46.5-2.94,9.13a40.48,40.48,0,0,0-9.55,8c-1.37,1.49-2.55,3.16-4,4.55-3.22,3-7.13,5.31-10.06,8.62a19.78,19.78,0,0,0-3.8,6.15,6.45,6.45,0,0,0-.63,3.71,3,3,0,0,0,2.26,2.76c3.54.42,7.89-2.25,11-3.63,2.47-1.23,5-2.38,7.41-3.69,6.29-3.32,7.54-11,7.52-17.44a19.28,19.28,0,0,1,3.18-10.62,47.28,47.28,0,0,0,4-7.92c.21-.58.42-1.19.59-1.78A1.61,1.61,0,0,0,749.76,781.64Z"/><path d="M515.61,804.23h0Z"/><path d="M593.56,621.84l.22-.27.06-.07C593.74,621.61,593.65,621.73,593.56,621.84Z"/><path d="M622.46,600.93l0,0h0Z"/><path d="M581.77,415.82l0,0h0Z"/><path d="M653.88,449.4h0l0,0Z"/><path d="M807.27,545.51a69.37,69.37,0,0,0-2.13-13.7c-.62-2.3-1.31-4.58-2-6.85-.56-1.78-1.2-3.54-1.77-5.32-.1-.34-.18-.68-.25-1,0-.15,0-.3-.05-.45a44.75,44.75,0,0,1,.3-4.77c.16-1.92.34-3.84.33-5.77a55.46,55.46,0,0,0-.34-6.31c-.25-1.94-.62-3.86-1-5.78-.74-4.56-1.17-9.44-3.73-13.51-.24-.38-.49-.75-.76-1.11a6.34,6.34,0,0,0,.79-1.26,14.9,14.9,0,0,0,1.22-4.88,61.5,61.5,0,0,0,0-13.15A49.42,49.42,0,0,0,794.69,449a90.49,90.49,0,0,0-6.24-12.5c-2.4-4.07-4.83-8.14-7.38-12.13s-5.13-7.75-7.58-11.69h0l-.49-.8h0c-1.45-2.36-2.94-4.69-4.4-7l.3.5a98,98,0,0,1-5.44-9.75q-1.11-2.54-2-5.15c-.67-2-1.25-4-2-5.95a43,43,0,0,0-6.13-10.65c-1.4-1.77-2.82-3.55-4.33-5.22a25.25,25.25,0,0,0-4.83-3.9,26.44,26.44,0,0,0-5.64-3.13c-.22-.6-.45-1.2-.68-1.78-.83-2.09-1.82-4.15-2.86-6.17-2.12-4.12-4.35-8.22-6.81-12.16a68.5,68.5,0,0,0-4.37-6.24c-1.43-1.8-3-3.54-4.56-5.23s-3.37-3.57-5.17-5.26-3.42-3.14-5.12-4.73c-2.82-2.82-5.32-6-8.26-8.65a107.09,107.09,0,0,0-9.34-7.22c-3.32-2.58-6.34-5.49-9.83-7.83-1.39-.94-2.84-1.76-4.3-2.57a13.85,13.85,0,0,0-.57-2,23.26,23.26,0,0,0-2.94-5.26c-1.17-1.73-2.37-3.44-3.65-5.09-1.16-1.48-2.42-2.86-3.61-4.32-.36-.46-.71-.94-1-1.43a66.45,66.45,0,0,0-4-6.48A37.24,37.24,0,0,0,657,264.5a49.47,49.47,0,0,0-3.87-3.33c-6-4.61-12.89-7.89-19.5-11.58-3.18-1.85-6.21-3.91-9.31-5.89-3.35-2.14-6.64-4.4-10.08-6.39-3.65-2.11-7.28-4.26-11.11-6s-7.55-3.23-11.4-4.69-7.51-2.93-11.42-4c-4.34-1.21-8.69-2.26-13.1-3.1-2.15-.4-4.28-.83-6.42-1.29s-4.36-1-6.58-1.31c-3.85-.57-7.72-.8-11.59-1l-2-.12c-2.23-.14-4.46-.26-6.69-.47s-4.3-.42-6.45-.55c-4-.24-7.91-.54-11.86-.73-2-.11-4.09-.11-6.13-.15-2.27,0-4.55-.13-6.82-.16a38.25,38.25,0,0,0-12.49,1.52,21.55,21.55,0,0,0-6.23,3.26,30.85,30.85,0,0,0-4.28,3.61c-.51.54-1,1.09-1.51,1.65l0,.05a9.08,9.08,0,0,0-1-.51,29.15,29.15,0,0,0-6.53-1.92,40.47,40.47,0,0,0-7.13-.34,108.1,108.1,0,0,0-14.06.87c-4.64.66-9.22,1.6-13.87,2.2L436,224l-6,.76c-9.15,1.2-18.15,3.12-27.11,5.16-4.66,1.06-9.26,2.27-13.8,3.7s-8.72,2.92-13.17,4.14c-1.36.31-2.71.57-4.08.78-3.91.35-7.86.41-11.76.86a25.69,25.69,0,0,0-6.1,1.22,22.11,22.11,0,0,0-2.59,1.14,16.83,16.83,0,0,0-1.94,1.3,20.35,20.35,0,0,0-2.33,2.12,39.19,39.19,0,0,0-6.8,8.71,15.73,15.73,0,0,0-2,5.15,17,17,0,0,0-4,1.85,38.16,38.16,0,0,0-6.82,6.18c-1.29,1.4-2.5,2.89-3.67,4.4a26.2,26.2,0,0,0-3.1,4.91,21.26,21.26,0,0,0-1.64,6l-.12,1a32,32,0,0,0-9,1.65,42.27,42.27,0,0,0-4.6,1.82,15.06,15.06,0,0,0-5.6,4.35,22.91,22.91,0,0,0-3.75,6.95H296a10.39,10.39,0,0,0-3,.5c-1.58.4-3.17.8-4.77,1.13s-3.28.6-4.91.95a21.21,21.21,0,0,0-2.45.68,15,15,0,0,0-3.89,2.11,29,29,0,0,0-4.14,3.76,21.36,21.36,0,0,0-3.56,4.84,48.91,48.91,0,0,0-3.91,10.69c-.56,2.19-1.1,4.4-1.49,6.64a48.19,48.19,0,0,0-.65,7.3,131.72,131.72,0,0,0,.71,13.89c.24,2.51.54,5,1,7.49a43.77,43.77,0,0,0,1.86,6.84c1.62,4.63,3.43,9.24,5.47,13.72a60.13,60.13,0,0,0,7,11.65,41.1,41.1,0,0,0,10.5,9.24,50.27,50.27,0,0,0,12.84,5.55,55,55,0,0,0,6.92,1.6c.91.15,1.82.29,2.73.4l.25,0,.43.05.9.08.68,0a12.59,12.59,0,0,0,3.46-.51c.06,0,.11-.05.16-.06a26.74,26.74,0,0,0,3.64,3.14,30.28,30.28,0,0,0,6.62,3.41c4.17,1.62,8.44,2.82,12.74,4s8.65,2.5,13,3.8a68.35,68.35,0,0,0,10.28,2.46c.11.24.21.49.33.74a27.91,27.91,0,0,0,4.06,5.92A42.85,42.85,0,0,0,374,435a107,107,0,0,0,11.32,8.17A130.19,130.19,0,0,0,398,450c4.15,2,8.28,4,12.52,5.81a66.32,66.32,0,0,0,13.78,4.3c4.56.83,9.15,1.5,13.71,2.36,2.32.44,4.65.89,7,1.25,2,.3,4,.55,6,.93,2.54.47,5.12.54,7.68.82l.28.05.17.05a34.85,34.85,0,0,0,2.35,2.78,69.89,69.89,0,0,0,5.26,4.91,35.62,35.62,0,0,0,5.72,4.09c.75.41,1.53.8,2.3,1.18-.62-.05-1.25-.11-1.88-.15-2.47-.12-4.95-.17-7.42-.23-2.31,0-4.64-.06-6.95-.31s-4.6-.57-6.92-.61c-2.48-.05-5,0-7.44.09a4.38,4.38,0,0,0-4.15,4,20.63,20.63,0,0,0-2.9,4.55,4.62,4.62,0,0,0-3-2.06,17.45,17.45,0,0,0-2.39-.36,35.81,35.81,0,0,0-4.51-.28,33,33,0,0,0-9.76,1.95c-3.11,1-6.23,2.05-9.35,3.08-2.91,1-5.81,2-8.78,2.76-1.48.35-3,.61-4.48.82-2,.21-3.94.31-5.92.34-1.28,0-2.56,0-3.84-.06-4.64-.12-9.24.16-13.53,1.89a36,36,0,0,0-10.12,6.72,42.67,42.67,0,0,0-6.85,7.11c-.78-.39-1.58-.75-2.39-1.07a23.14,23.14,0,0,0-5.42-1.41,17.79,17.79,0,0,0-6.63.26,48.7,48.7,0,0,0-6.71,2.08c-2.36.91-4.71,1.88-7,2.85a26.63,26.63,0,0,0-5.65,2.75,19.72,19.72,0,0,0-3.49,3.34c-.72.88-1.41,1.78-2.1,2.67-1.26,1.64-2.52,3.29-3.79,4.93v0a82.08,82.08,0,0,1-6.29,7.3l-.56.5-.1.06-.25,0c-1.56.18-3.13.34-4.68.61s-3.07.58-4.6.89a99.49,99.49,0,0,0-10.26,2.47c-1,.33-2.08.68-3.11,1a23.45,23.45,0,0,0-3.24,1.33,51.12,51.12,0,0,0-5.57,3.44c-1.86,1.32-3.69,2.66-5.43,4.13a17.28,17.28,0,0,0-4.62,6.11,50.55,50.55,0,0,0-1.91,4.92,10.74,10.74,0,0,0-1.88,0,15.55,15.55,0,0,0-4.57,1.46,28.31,28.31,0,0,0-4.78,2.82,23.71,23.71,0,0,0-5,4.45c-.69.88-1.35,1.76-2,2.69a19.31,19.31,0,0,0-1.17,2.09l-.46,0c-.89.15-1.77.34-2.64.56A32.14,32.14,0,0,0,232.6,573a38.68,38.68,0,0,0-5.32,3,59.16,59.16,0,0,0-4.91,3.52,69.57,69.57,0,0,0-5.26,4.75c-1.9,1.86-4,3.83-5.07,6.29a49.67,49.67,0,0,0-3.77,13.71,71.72,71.72,0,0,0-.36,13.9,91.47,91.47,0,0,0,2.26,14c1,4.47,1.83,9,2.84,13.44a50.65,50.65,0,0,0,2,6.79c.9,2.36,1.91,4.68,3,7a50.2,50.2,0,0,0,3.13,6,69.8,69.8,0,0,0,4.37,6,59.11,59.11,0,0,0,4.7,5.44c1.67,1.67,3.41,3.28,5.16,4.87a38.67,38.67,0,0,0,5.95,4.62c2.07,1.25,4.21,2.4,6.36,3.5a72.77,72.77,0,0,0,11.31,4.54c2.11.67,4.22,1.32,6.38,1.82s4.37.88,6.59,1.19c4,.55,8,.89,12.07,1.14h0a4.56,4.56,0,0,0,3.32-1.18c.41.48.84.95,1.28,1.39,2.33,2.36,4.62,4.75,6.92,7.14h0c.6,1.27,1.21,2.53,1.86,3.79,1.52,3,3,5.92,4.77,8.78,1.26,2.06,2.63,4.06,4,6.06a33.39,33.39,0,0,0,4.14,5.06,59.56,59.56,0,0,0,4.93,4.46c1.57,1.22,3.26,2.3,4.95,3.37a43.11,43.11,0,0,0,6.26,3.33,48.56,48.56,0,0,0,7.19,2.59,18.81,18.81,0,0,0,6.76.49c2.19-.25,4.35-.71,6.54-1,1.5-.18,3-.27,4.49-.3a35.67,35.67,0,0,1,3.86.22,48.05,48.05,0,0,1,4.73.9c2.67.72,5.29,1.65,8,2.28a58.64,58.64,0,0,0,7.31,1.21c1.61.17,3.25.37,4.88.45a17.15,17.15,0,0,0,6.95-.82c.78,1.28,1.59,2.56,2.46,3.8a57.51,57.51,0,0,0,9.65,10.86,79.48,79.48,0,0,0,12.12,8.59c4.09,2.35,8.45,4.23,12.65,6.38s8.27,4.33,12.39,6.52a79.39,79.39,0,0,0,11.6,5c4.29,1.47,8.67,2.72,12.91,4.34l.38.18c.3.18.59.38.87.58l-.5-.37c.38.29.77.56,1.16.84.7.55,1.33,1.17,2,1.74a13,13,0,0,0,4.78,2.33,43.68,43.68,0,0,0,8.12,1.33c2.46.23,4.92.42,7.38.71a145.66,145.66,0,0,1,15.29,3.2,37.8,37.8,0,0,0,7.22,1.2c2.6.13,5.2.14,7.8.13a115.1,115.1,0,0,0,13.14-.74,115.63,115.63,0,0,1,12.2-1.08c2.37,0,4.74.16,7.1.41,1.27.17,2.53.37,3.78.65.41.12.81.25,1.21.39l.58.27c.26.16.51.32.76.5,1.31,1,2.52,2.17,3.76,3.26s2.56,2.23,3.89,3.27c3,2.35,6.1,4.56,9.21,6.75,6,4.25,12.18,8.49,19.16,11a80.75,80.75,0,0,0,13.9,3.71A126.45,126.45,0,0,0,619,834.11c4.63.23,9.26,0,13.87-.18,3.92-.16,7.8-.86,11.66-1.38,1-.12,2-.22,3-.24.61,0,1.2.07,1.8.14l3.93.5a30,30,0,0,1,3.25.62,49.42,49.42,0,0,1,5.17,1.67,36.79,36.79,0,0,1,3.47,1.66l.57.35a8.06,8.06,0,0,0,.73.93,6.74,6.74,0,0,0,2.71,1.73,5.52,5.52,0,0,0,1.61.3,16.14,16.14,0,0,0,2.21-.09c1.42-.14,2.85-.29,4.27-.47,1.86-.23,3.69-.59,5.54-.86q1.56-.18,3.15-.21a66.34,66.34,0,0,1,7,.55l-.61-.07c2.2.26,4.38.56,6.58.61s4.64.11,7,.07a52.1,52.1,0,0,0,6.85-.5c1.87-.28,3.73-.66,5.56-1.07A39.77,39.77,0,0,0,725,836c2.08-.87,4.14-1.77,6.15-2.78a55.33,55.33,0,0,0,6.09-3.35c1.86-1.25,3.64-2.63,5.44-4,1.55-1.14,3.14-2.23,4.59-3.5a55.64,55.64,0,0,0,4.16-4.11,47.9,47.9,0,0,0,4.09-4.81,55.15,55.15,0,0,0,7.66-15.58,49,49,0,0,0,1.33-5.6,38.77,38.77,0,0,0,.67-5.38c.1-2.07.07-4.16,0-6.24,0-2.26-.08-4.54-.32-6.79a47.37,47.37,0,0,0-3.24-13.23c-.23-.55-.44-1.14-.72-1.69a17.72,17.72,0,0,0-.85-1.61,3.77,3.77,0,0,0-.39-.67l-.07-.09a21.47,21.47,0,0,0-1.5-2.17c-.94-1.18-2.08-2.14-3.09-3.24l0-.09a45.89,45.89,0,0,1-1.59-4.53c0,.05,0,.1,0,.14A51.93,51.93,0,0,1,752,741c-.05-.31-.08-.61-.11-.92,0-1.81.27-3.6.24-5.41a49.61,49.61,0,0,0-1.26-12,54.68,54.68,0,0,0-1.84-5.92c-.73-1.87-1.54-3.72-2.37-5.55a67.58,67.58,0,0,0-3.15-6.17c-1.2-2.06-2.54-4.06-3.87-6-2.25-3.35-4.88-6.41-7.44-9.54s-5.11-6.58-7.76-9.8-5.49-6.66-8.4-9.85-6.15-6.41-9.41-9.44c-2.9-2.7-6-5.19-8.9-7.9-1.19-1.18-2.33-2.4-3.4-3.69q-1.34-1.71-2.52-3.51a4.08,4.08,0,0,0,.51-1.87,4.77,4.77,0,0,0-3.68-4.63c-.25-.67-.49-1.34-.71-2-.65-2.16-1.14-4.35-1.68-6.54-.62-2.5-1.15-5-1.66-7.54-.54-2.73-1-5.5-1.62-8.22a52.19,52.19,0,0,0-2.61-8.3,87,87,0,0,0-6.54-12.41A132.88,132.88,0,0,0,665.71,582c-1.4-1.81-2.78-3.65-4.29-5.37a58.17,58.17,0,0,0-4.48-4.54c-1.48-1.35-2.93-2.71-4.38-4.06-1.25-1.16-2.57-2.24-3.84-3.37a5,5,0,0,0-1.66-1.46,16,16,0,0,0,2.07-.12,12.17,12.17,0,0,0,2.14-.53c.13.85.25,1.7.39,2.54a6,6,0,0,0,1.08,2.82,8.24,8.24,0,0,0,1.89,1.74,26.76,26.76,0,0,0,4.62,2.35c1.37.57,2.69,1.2,4,1.85,2.15,1.07,4.33,2,6.45,3.19a51.59,51.59,0,0,1,4.61,3,141.09,141.09,0,0,1,11.87,10.65c2.58,2.49,5,5.07,7.39,7.74a33,33,0,0,0,6.71,6.16,31.41,31.41,0,0,0,9.4,4c3.32.83,6.72,1.25,10,2.08l-.6-.15a25.37,25.37,0,0,0,4.46.9l.73.05c1.26.07,2.53,0,3.79,0,2.93-.13,5.85-.44,8.77-.73,6.26-.63,12.5-1.31,18.73-2.14l.89-.11-.58.07c2-.25,4-.48,6-.86s3.63-.85,5.41-1.37c3.54-1,7.13-2,10.55-3.33a34,34,0,0,0,8.71-5.25,44.63,44.63,0,0,0,7.39-7.66l-.07.09.08-.1.28-.36-.19.24c4.13-5.42,6.86-11.73,9.17-18.08a68.17,68.17,0,0,0,3.54-12.62A62.8,62.8,0,0,0,807.27,545.51ZM547.13,499.93c.17.4.34.8.52,1.19-1.93-.9-3.86-1.79-5.78-2.7-1.24-.58-2.49-1.13-3.74-1.67l.63-.07c1.87-.25,3.7-.65,5.56-.95l1.51-.26A23.14,23.14,0,0,0,547.13,499.93Zm104.74,79.61a51.42,51.42,0,0,1,3.67,4A151.15,151.15,0,0,1,666,598.21a90.65,90.65,0,0,1,4.81,8.74,58,58,0,0,1,2.21,5.74c1.38,4.8,2.09,9.7,3.12,14.55.38,1.81.82,3.61,1.25,5.41s.83,3.5,1.33,5.23a48.81,48.81,0,0,0,2.9,7.59l-1,2.53A139.57,139.57,0,0,1,674,662.45c-1.31,2.23-2.68,4.41-4.13,6.56s-3.11,4.32-4.71,6.44c-3.6,4.6-7.31,9.12-11,13.66-3.86,4.77-7.73,9.54-11.69,14.24-6,7.11-12.57,13.72-19,20.48-3.4,3.58-6.72,7.22-10,10.87-3.14,3.43-6.39,6.74-9.69,10-4,3.81-8.12,7.47-12.45,10.95s-8.3,6.89-12.62,10.14l-.46.33a4.4,4.4,0,0,0-1.15,6.21,5.09,5.09,0,0,0,3.81,2,4.15,4.15,0,0,0,2.66-.74c3.87-2.79,7.47-5.9,11.18-8.88,3.45-2.77,6.94-5.51,10.2-8.49q5.58-5.07,10.8-10.47c3.29-3.39,6.44-6.89,9.63-10.37,6.37-7,13.06-13.62,19.4-20.6s12.2-14.44,18.16-21.78,12.3-14.93,17.44-23.09a99,99,0,0,0,7.5-15,51.53,51.53,0,0,0,4.23,4.39c1.74,1.6,3.56,3.11,5.34,4.67,1.55,1.36,3.07,2.76,4.56,4.18,3,2.86,5.85,5.77,8.55,8.85s5.26,6.16,7.82,9.29c1.76,2.18,3.44,4.41,5.17,6.61s3.36,4.11,5.05,6.15a96.38,96.38,0,0,1,6,8.62,63.61,63.61,0,0,1,3.32,6.2,75.29,75.29,0,0,1,3.05,7.46,45.06,45.06,0,0,1,1.16,4.43,52.83,52.83,0,0,1,.63,5.73c0,1.12,0,2.23,0,3.34a4.43,4.43,0,0,0-1.37.78,4.67,4.67,0,0,0-1.22,1.74l0-.06c-.14.33-.29.64-.45,1-.81,1.32-1.68,2.58-2.6,3.84-3.12,4-6.4,7.79-9.65,11.64q-2.79,3.3-5.62,6.56c-1.58,1.81-3.27,3.51-5,5.21s-3.62,3.25-5.48,4.83c-1.63,1.38-3.36,2.64-5.07,3.91-3.92,2.8-7.91,5.53-12.11,7.95l-.16.08a4.36,4.36,0,0,0-1.94,6,5.05,5.05,0,0,0,4.11,2.53,4.14,4.14,0,0,0,2.17-.46c2-1.06,3.9-2.26,5.79-3.48s3.9-2.54,5.78-3.89a125.17,125.17,0,0,0,11.76-9.34,112.08,112.08,0,0,0,9.91-10.43c3.08-3.63,6.17-7.26,9.21-10.92,1.18-1.41,2.34-2.84,3.46-4.3a43.68,43.68,0,0,0,2.46,6.85c.9,1.85,2.62,3.12,4,4.65.05.07.11.16.17.23-.13.57-.25,1.14-.37,1.7a84.14,84.14,0,0,1-2.92,8.9c-.7,1.59-1.41,3.16-2.18,4.71-.61,1.23-1.28,2.42-2,3.62s-1.53,2.48-2.37,3.68c-.69,1-1.42,2-2.16,2.92q-3.22,4-6.61,7.79a4.44,4.44,0,0,0,.58,6.32,4.9,4.9,0,0,0,2.88,1.11,4.47,4.47,0,0,0,3.66-1.46c2.42-2.75,4.87-5.51,7.1-8.4,1.12-1.46,2.27-2.9,3.24-4.46,1.08-1.73,2.11-3.46,3.1-5.24s1.95-3.75,2.8-5.7c.07.91.14,1.82.18,2.73a86.8,86.8,0,0,1-.09,9.68q-.37,2.6-1,5.16a50.73,50.73,0,0,1-2,6.25c-.72,1.7-1.51,3.37-2.39,5a54.27,54.27,0,0,1-3.18,4.87c-1.56,1.88-3.22,3.67-5,5.4a33.75,33.75,0,0,1-2.93,2.54c-1.93,1.42-3.84,2.85-5.77,4.28-1.17.84-2.36,1.61-3.61,2.34-3.2,1.69-6.46,3.25-9.83,4.62-1,.39-2,.74-3.08,1.05-2.15.52-4.34,1-6.54,1.29a58.67,58.67,0,0,1-6.23.33c-1.88,0-3.76,0-5.65-.09-1.44-.06-2.88-.22-4.32-.39h.11a71.4,71.4,0,0,0-9.57-.7,74.35,74.35,0,0,0-9,1.14c-1.16.15-2.33.31-3.51.4a9,9,0,0,0-1.91-1.53,39.47,39.47,0,0,0-5.26-2.59,53.52,53.52,0,0,0-7.53-2.38,39.76,39.76,0,0,0-4.73-.74c-1.28-.17-2.55-.37-3.84-.5a23.53,23.53,0,0,0-4.82.09c-2.74.31-5.48.73-8.22,1.11a113.85,113.85,0,0,1-12.12.61,139,139,0,0,1-15.91-1c-2.53-.38-5-.86-7.52-1.47-2.67-.71-5.31-1.49-7.92-2.43-1.71-.71-3.37-1.48-5-2.35a199.48,199.48,0,0,1-17.1-11.5c-1.23-.92-2.45-1.84-3.63-2.81-1.57-1.3-3.08-2.63-4.59-4a34.2,34.2,0,0,0-3-2.47,15.6,15.6,0,0,0-3.54-1.82A28.57,28.57,0,0,0,549,794q-3.27-.4-6.56-.49a92.67,92.67,0,0,0-13.84.95,123.81,123.81,0,0,1-13.76.85h0c-.31,0-.62,0-.93,0-1,0-2,0-3.06,0-1.54,0-3.06-.08-4.59-.23-2.4-.36-4.75-1-7.12-1.6-2.53-.63-5.07-1.19-7.63-1.71s-5.42-.91-8.14-1.18c-2.44-.25-4.89-.41-7.33-.69-1.17-.15-2.34-.34-3.5-.6-.5-.14-1-.29-1.48-.47l-.3-.13c-.44-.38-.84-.79-1.29-1.16-.73-.6-1.5-1.15-2.27-1.7l.5.36A16.42,16.42,0,0,0,464,784c-1.86-.73-3.76-1.37-5.65-2-3.76-1.25-7.56-2.37-11.26-3.81-2.43-1-4.77-2.14-7.08-3.37l-8-4.24c-2.59-1.38-5.2-2.73-7.85-4s-5.16-2.49-7.68-3.85a86,86,0,0,1-7.33-4.77c-1.89-1.44-3.71-3-5.45-4.58-1.51-1.51-2.93-3.08-4.28-4.73-1.51-1.93-2.9-3.92-4.21-6a72.54,72.54,0,0,1-3.77-7.27A216.14,216.14,0,0,1,383,713c-1-3.22-1.92-6.44-2.7-9.7-.83-3.47-1.53-7-2.21-10.45-1.32-6.82-2.72-13.62-3.89-20.47-.49-3-1-6-1.37-9-.62-4.62-1.11-9.24-1.44-13.88-.35-4.87-.59-9.73-1-14.6a87.88,87.88,0,0,0-2.23-14A58.45,58.45,0,0,0,366,614a63.38,63.38,0,0,0-3-6.28,4.84,4.84,0,0,0-6.24-2.09,4.38,4.38,0,0,0-2,6c.62,1.2,1.26,2.36,1.83,3.57.76,1.75,1.41,3.53,2,5.34.64,2.32,1.17,4.65,1.61,7,.52,3.44.94,6.9,1.17,10.36s.4,6.77.64,10.16c.5,7,1.22,13.89,2.3,20.81.78,5,1.64,10.08,2.61,15.1.86,4.46,1.79,8.9,2.66,13.36a184.18,184.18,0,0,0,7.68,27.41q2.49,6.84,5.4,13.53c.05.12.11.24.17.36l-.66.13-.3,0c-2.33-.06-4.68-.33-7-.6a55,55,0,0,1-5.86-1.1c-2.35-.65-4.65-1.44-7-2a46.5,46.5,0,0,0-7.68-1.3,39.68,39.68,0,0,0-7.55.12c-2.45.25-4.86.75-7.29,1.11-.47,0-.95.09-1.42.11l-1-.05c-.51-.08-1-.18-1.52-.3-1.23-.35-2.43-.77-3.62-1.24a49.33,49.33,0,0,1-4.68-2.13,66.6,66.6,0,0,1-6-3.84,53.31,53.31,0,0,1-4.13-3.67,28.5,28.5,0,0,1-2-2.15c-1.76-2.33-3.37-4.79-4.95-7.25a141.28,141.28,0,0,1-7-13.47,4.77,4.77,0,0,0-3.52-3.63l-1.64-1.72c-1.24-1.28-2.56-2.51-3.73-3.86A4.79,4.79,0,0,0,290,688a4.88,4.88,0,0,0-3.44,1.09,4.32,4.32,0,0,0-.83.93,4.68,4.68,0,0,0-1.4-.32c-3.27-.21-6.53-.47-9.8-.86a77.06,77.06,0,0,1-8.51-1.54c-3.24-.89-6.46-1.92-9.6-3.11a86.79,86.79,0,0,1-8.33-4.09c-1.21-.7-2.4-1.43-3.55-2.23a92.69,92.69,0,0,1-7.09-6.34,59.57,59.57,0,0,1-4.3-4.83c-1.53-1.95-3-3.94-4.35-6a78.92,78.92,0,0,1-3.47-7.1c-.93-2.16-1.76-4.33-2.48-6.56-1.09-4-1.84-8.11-2.68-12.19-.79-3.87-1.71-7.71-2.4-11.59-.35-2.41-.59-4.81-.7-7.24a84.32,84.32,0,0,1,.3-9.54,53.81,53.81,0,0,1,1-5.34c.52-2,1.1-3.89,1.8-5.78.18-.39.36-.77.56-1.14s.3-.46.47-.68c1-1.15,2.05-2.22,3.13-3.28a61.8,61.8,0,0,1,5.11-4.44c1.84-1.33,3.72-2.61,5.69-3.76.68-.36,1.36-.69,2.06-1l1.12-.38c-.16.92-.3,1.85-.41,2.76-.53,4.26-.86,8.54-1.08,12.84a4.75,4.75,0,0,0,4.45,4.78h0A4.5,4.5,0,0,0,246,596.8c.16-3.44.42-6.88.77-10.3.29-2.33.65-4.61,1.16-6.89.28-1,.57-1.93.9-2.88a34.21,34.21,0,0,1,1.53-3.17l.7-1c.6-.74,1.22-1.45,1.89-2.13.43-.37.85-.73,1.3-1.08.95-.68,1.92-1.33,2.93-1.93.32-.17.66-.33,1-.49-.82,3.79-1.5,7.62-2.14,11.44a61.52,61.52,0,0,0-.94,7.16,44.31,44.31,0,0,0,.27,7c.56,4.73,1.07,9.47,1.64,14.2a94.15,94.15,0,0,0,2.46,13.92c1.32,4.73,2.86,9.4,4.34,14.08s2.87,9.09,4.5,13.58a114.29,114.29,0,0,0,5.54,13.48c1.25,2.43,2.58,4.78,4,7.11,1.26,2.06,2.79,3.95,4.24,5.88s2.82,3.72,4.12,5.66,2.67,4.1,4,6.14a4.72,4.72,0,0,0,3.68,2,4.66,4.66,0,0,0,2.77-.71,4.41,4.41,0,0,0,1.18-6.22c-1.09-1.65-2.13-3.34-3.23-5s-2.24-3.23-3.4-4.81-2.48-3.26-3.7-4.91-2.08-3-3-4.61c-1.31-2.34-2.52-4.7-3.65-7.12-4.84-11.37-8.32-23.2-12-34.94a88.83,88.83,0,0,1-2-9.07c-.57-3.9-1-7.81-1.45-11.73-.41-3.61-.94-7.22-1.18-10.85,0-1.21.05-2.4.16-3.61.4-3.27,1-6.51,1.57-9.75.63-3.42,1.27-6.83,2.09-10.22a67.55,67.55,0,0,1,2.32-7.49c.37-.89.78-1.75,1.23-2.6.17-.27.34-.53.52-.78l.57-.63c1.09-1,2.29-1.93,3.48-2.84,1.88-1.36,3.79-2.66,5.79-3.84.5-.26,1-.51,1.5-.73a71,71,0,0,1,7-2.26,123,123,0,0,1,12.95-2.57,30.18,30.18,0,0,0,3.17-.41,9.14,9.14,0,0,0,2.82-1.14,20.88,20.88,0,0,0,4.62-4.33c3.19-3.55,6-7.4,8.92-11.17.83-1.06,1.66-2.11,2.58-3.08l.23-.19c.3-.21.6-.4.91-.59,2.77-1.39,5.72-2.49,8.6-3.66,2.15-.83,4.32-1.58,6.56-2.2.58-.13,1.16-.25,1.75-.34l.51,0c.42,0,.84,0,1.27.08.67.1,1.34.22,2,.38s1.09.33,1.62.54c.95.41,1.85.89,2.76,1.37-.11,1-.19,2.09-.28,3.12A4.73,4.73,0,0,0,356,524.4h0a4.47,4.47,0,0,0,4.74-4.19q.07-1,.18-1.89c0-.48.11-1,.17-1.44a4.35,4.35,0,0,0,1.07-3.72c.15-.21.3-.43.46-.64A31,31,0,0,1,365,510c1.85-1.77,3.79-3.47,5.81-5.05.82-.59,1.66-1.14,2.53-1.65s1.48-.74,2.24-1.06c.52-.19,1.05-.36,1.58-.51.75-.18,1.51-.31,2.28-.43,1.21-.12,2.42-.19,3.65-.21,3.35.06,6.7.17,10,0a50.17,50.17,0,0,0,10.69-1.85c6.62-1.88,13-4.42,19.63-6.35,1-.22,1.91-.41,2.88-.56.49,0,1-.06,1.47-.08,1.31.05,2.63.15,3.95.31l.45.08.31.07a5,5,0,0,0,1.49,0c-.41,1-.81,2-1.22,3-1.9,4.58-3.76,9.17-5.64,13.75s-3.8,8.9-5.75,13.33a218.05,218.05,0,0,0-9.76,26.59c-2.75,9.47-5.21,19-7.61,28.6-2.33,9.3-4.62,18.65-6.25,28.11a4.7,4.7,0,0,0,3.8,5.28,4.09,4.09,0,0,0,.6.07,4.46,4.46,0,0,0,4.58-3c0-.14.08-.27.11-.4a6.64,6.64,0,0,0,.16-.87c1.59-9,3.8-17.95,6-26.84-.05.19-.09.38-.14.58,1.95-7.83,3.85-15.68,6.1-23.42,1.19-4.08,2.33-8.2,3.72-12.22.71-2,1.36-4.13,2.13-6.14l2.1-5.49c3.15-7.58,6.53-15.07,9.65-22.66,1.52-3.72,3-7.44,4.56-11.14,1.46-3.51,2.93-7,4.69-10.38.32-.55.65-1.09,1-1.62a4.4,4.4,0,0,0,1.55-1.45c1,0,2,0,2.95,0,2.13,0,4.24.33,6.36.56s4.35.3,6.54.35c4.37.1,8.75.15,13.11.6a156.25,156.25,0,0,1,15.42,3.06c2.51.67,5,1.38,7.52,2s4.93,1.24,7.39,1.87a128.54,128.54,0,0,1,13.56,4.69l9,3.65c3.46,1.42,6.85,3,10.22,4.56s6.87,3.16,10.26,4.84c6.85,3.39,13.7,6.78,20.39,10.47,3,1.69,5.91,3.46,8.88,5.16,3.31,1.88,6.64,3.75,10,5.57s6.73,3.31,10.11,5c3.18,1.53,6.32,3.13,9.41,4.83a67.72,67.72,0,0,1,6.08,3.92,88,88,0,0,1,7.23,6.42l-.21-.2a119.78,119.78,0,0,1,8.7,9.05,50,50,0,0,1,2.9,4.11c.33.55.62,1.11.93,1.66-1,1.27-2,2.57-2.85,3.91-1.45,2.16-2.9,4.32-4.41,6.45-1.35,1.9-2.79,3.74-4.21,5.58-.18.23-.36.45-.53.68-.37.42-.69.87-1,1.31l.22-.27-.24.31-.12.16.07-.1-5.34,6.91-.18.21a6.66,6.66,0,0,0-.68.83,5.75,5.75,0,0,0-.72,1q-5.12,6.58-10.47,13c-3.65,4.38-7.3,8.75-10.81,13.25-3.83,4.94-7.38,10.08-11.08,15.11s-7.44,10.11-11.19,15.15c-2.72,3.66-5.52,7.24-8.2,10.92-2.89,4-5.81,7.91-8.69,11.88s-5.45,7.84-8,11.85c-2.48,3.83-5,7.66-7.2,11.65-1.18,2.13.07,5,2.27,6a4.9,4.9,0,0,0,1.83.47,4.72,4.72,0,0,0,1.71-.23,4.58,4.58,0,0,0,2.61-2.25l.5-.91c1.38-2.37,2.89-4.68,4.36-7s2.92-4.59,4.43-6.84c3.48-5.2,7.19-10.24,10.9-15.28,5.5-7.48,11.09-14.89,16.6-22.36,2.83-3.84,5.68-7.66,8.47-11.52s5.4-7.47,8.18-11.15l-.08.1,1.93-2.49c3.16-4,6.58-7.89,9.82-11.86s6.41-7.86,9.52-11.86l.13-.17,0-.06h0l.08-.11-.08.1.19-.23a5.47,5.47,0,0,0,.68-.83,5.33,5.33,0,0,0,.72-1l0,0,3.74-4.86-.37.47,1.64-2.1c.3-.39.62-.77.91-1.18l.11-.13.17-.21.72-1-.37.47c2.08-2.68,4.16-5.36,6.08-8.15s3.69-5.55,5.7-8.22c.43-.53.86-1,1.3-1.54.3.24.6.49.88.74C647.17,575.11,649.53,577.33,651.87,579.54Zm-3-25.79c-.37.14-.74.27-1.12.39l-.4.08-.59,0c-.72,0-1.45,0-2.17-.12-1.46-.23-2.89-.57-4.33-.93a42.85,42.85,0,0,1-4.32-1.28,4.14,4.14,0,0,0-2.53-.12c-2.71-2.75-5.45-5.46-8.3-8.07a61.47,61.47,0,0,0-11.93-8.39C609,533,604.79,531,600.5,528.94s-8.2-4.12-12.21-6.37c-3-1.69-6-3.42-8.94-5.16s-5.77-3.26-8.7-4.82a4.48,4.48,0,0,0-2.64-4c-.73-.31-1.44-.64-2.14-1l-1.14-.76c-.29-.24-.57-.49-.85-.75s-.59-.62-.87-.94c-.6-.77-1.16-1.56-1.69-2.38l0-.06a4.83,4.83,0,0,0-4.21-3.23l-.43-.62c-.22-.4-.43-.8-.63-1.21-.28-.7-.54-1.4-.77-2.11s-.37-1.47-.53-2.22a4.24,4.24,0,0,0,1.72-3.23,4.71,4.71,0,0,0-2.28-4.06c-.06-1.32-.13-2.64-.24-4a4.8,4.8,0,0,0-5-4.18,4.39,4.39,0,0,0-4.15,4.75c.11,1.25.18,2.5.24,3.76-1.38.31-2.79.49-4.19.75s-2.5.47-3.76.65c-3,.36-6,.66-9.09.73-1,0-2.07-.07-3.11-.18a35.06,35.06,0,0,1-3.67-.74,83.7,83.7,0,0,1-8.53-3c-2.75-1.09-5.55-2.06-8.31-3.16-2.18-.91-4.35-1.84-6.53-2.73l.25.11-.42-.17-.16-.07.08,0q-5.37-2.19-10.71-4.46c-3.44-1.47-6.95-2.92-10.25-4.72-.56-.34-1.11-.69-1.65-1.06-1.82-1.4-3.54-2.91-5.22-4.45-1.08-1.08-2.09-2.19-3.06-3.36-1-1.37-2-2.76-2.89-4.2-.43-.71-.83-1.43-1.19-2.18q-.31-.78-.57-1.56c-.23-.84-.41-1.67-.57-2.52-.2-1.55-.35-3.08-.48-4.63-.17-7.12.3-14.22.49-21.32a4.76,4.76,0,0,0-4.44-4.78,4.43,4.43,0,0,0-4.76,4.18c-.13,4.54-.34,9.07-.48,13.61-.15,5.18-.3,10.53.87,15.66a28,28,0,0,0,.93,3.16h-.05c-.91-.12-1.8-.33-2.71-.47-1.29-.2-2.6-.36-3.91-.56-2.75-.41-5.48-.93-8.22-1.45-5.43-1-11-1.65-16.33-3-1.79-.5-3.57-1.07-5.32-1.72-.88-.33-1.75-.67-2.63-1l-.37-.16c-3.28-1.39-6.47-3-9.69-4.48-3.38-1.6-6.73-3.26-10-5.06a115.2,115.2,0,0,1-11.41-7.52c-2.32-1.77-4.62-3.58-6.75-5.57-.47-.49-.91-1-1.35-1.51s-.93-1.29-1.35-2c-.29-.51-.55-1-.79-1.55-.91-2.29-1.57-4.64-2.32-7-.85-2.6-1.84-5.16-2.84-7.72-1.83-4.74-3.88-9.4-5.64-14.17a4.83,4.83,0,0,0-5.9-2.86,4.39,4.39,0,0,0-2.76,5.68c.95,2.57,2,5.1,3.06,7.64s2,5.07,3,7.61q.87,2.26,1.67,4.54l-1.08-.27c-4.75-1.27-9.45-2.76-14.17-4.15-2.61-.76-5.24-1.41-7.84-2.22q-3.27-1-6.46-2.23c-1.17-.5-2.32-1-3.44-1.64-.49-.3-1-.61-1.43-.94s-.94-.77-1.38-1.18-.89-.94-1.3-1.44c-.6-.79-1.16-1.59-1.68-2.42-.72-1.27-1.38-2.57-2-3.88s-1-2.64-1.48-4c-.15-.6-.29-1.19-.41-1.79,0-.32-.08-.62-.11-.94a3.82,3.82,0,0,0,.06-1.17,4.8,4.8,0,0,0-5-4.21,4.39,4.39,0,0,0-4,3.05,10.6,10.6,0,0,0-.05,4.2,26.66,26.66,0,0,0,1.74,6.22q.69,1.68,1.47,3.33l-.62-.09c-1.72-.26-3.43-.59-5.11-1-2.17-.61-4.31-1.28-6.42-2.07-1.46-.61-2.87-1.29-4.26-2-1.22-.71-2.38-1.47-3.53-2.29-1.31-1-2.58-2.06-3.81-3.18-.69-.71-1.35-1.44-2-2.21-1.28-1.67-2.46-3.41-3.57-5.19s-1.84-3.4-2.65-5.16a148.08,148.08,0,0,1-5.75-14.95c-.4-1.6-.75-3.18-1-4.8-.7-5.1-1-10.24-1.23-15.36a64.36,64.36,0,0,1,.19-6.52c.35-2.55.93-5,1.52-7.54a62.24,62.24,0,0,1,2.08-6.64c.4-.94.83-1.86,1.3-2.77.32-.52.65-1,1-1.53.64-.76,1.31-1.49,2-2.2s1.31-1.18,2-1.73c.32-.23.65-.45,1-.67l.35-.16,1-.34c2.2-.51,4.45-.85,6.66-1.34,1.69-.38,3.35-.92,5-1.23a5.07,5.07,0,0,0,3.43,1.67,4.36,4.36,0,0,0,4.43-6v-.09c0-.14,0-.28.07-.42.14-.52.31-1,.49-1.52.33-.75.68-1.48,1.06-2.2.32-.54.66-1.06,1-1.58.2-.25.4-.48.62-.72a2.09,2.09,0,0,1,.28-.24c.28-.2.58-.39.87-.57.85-.44,1.7-.83,2.57-1.2,1.11-.4,2.23-.76,3.37-1.08s2.09-.44,3.14-.6l1.13-.1a60.62,60.62,0,0,0,1.52,8c1.23,4.74,2.76,9.39,4.27,14,1.58,4.89,3.15,9.77,4.75,14.65,1.47,4.53,3,9,4.68,13.51q1.11,3,2.24,6.07c.43,1.15.85,2.29,1.29,3.43a7.79,7.79,0,0,0,1.43,2.48,5.13,5.13,0,0,0,2.81,1.54l.67.09a4.38,4.38,0,0,0,3.6-7.28c-2.78-7.19-5.41-14.46-7.8-21.78-2.58-7.91-5.17-15.81-7.66-23.74-.51-1.75-1-3.49-1.44-5.24-.41-1.57-.69-3.17-1-4.76-.26-1.86-.45-3.7-.54-5.57,0-.92.05-1.83.12-2.74.17-1.13.37-2.25.62-3.37.15-.5.31-1,.49-1.48s.4-.81.62-1.21c.51-.77,1.05-1.51,1.62-2.25,1.75-2.17,3.58-4.24,5.54-6.24.57-.53,1.16-1,1.77-1.54.39-.28.79-.55,1.21-.8s.66-.32,1-.47c.59-.2,1.19-.4,1.79-.58a4.2,4.2,0,0,0,2.84-3,4.27,4.27,0,0,0,2.09-3.51,4,4,0,0,0,0-.6c.37-.82.77-1.61,1.2-2.39.37-.61.75-1.19,1.17-1.77,1.3-1.6,2.65-3.15,4.08-4.63.53-.5,1.07-1,1.65-1.43l.43-.29.57-.26c.52-.19,1-.36,1.57-.52.71-.15,1.42-.27,2.14-.38,3.19-.36,6.42-.59,9.63-.74a45.26,45.26,0,0,0,10.69-1.85c3.61-1.08,7.17-2.29,10.74-3.44,2.9-.94,5.84-1.76,8.8-2.54a297,297,0,0,1,33-6.45l-.13,0,.16,0,.42-.06-.34,0c3.2-.4,6.42-.78,9.6-1.31,2.94-.49,5.86-1.05,8.81-1.47a119.46,119.46,0,0,1,13.12-.67c1.4,0,2.8.05,4.2.2.62.11,1.23.22,1.83.37s1.49.45,2.23.73a5.6,5.6,0,0,1,.55.27l.06.24c.13.93.2,1.87.24,2.81a134.5,134.5,0,0,1-1,15.28q-.31,2.94-.65,5.88c-1.07,9.42-2.09,18.84-3.18,28.25-.52,4.58-1.15,9.15-1.81,13.71s-1.28,9.28-2.27,13.83a4.73,4.73,0,0,0,4.42,5.37,4.49,4.49,0,0,0,4.65-3.6c.78-3.61,1.29-7.3,1.85-11,.53-3.48,1-7,1.47-10.46,1.23-9.41,2.15-18.86,3.24-28.28.55-4.81,1.1-9.63,1.6-14.45a119.16,119.16,0,0,0,.82-13.5c0-1.23,0-2.51-.17-3.78a4.23,4.23,0,0,0,2.2-2.24c.52-.59,1.06-1.17,1.61-1.73a25.73,25.73,0,0,1,2.13-1.75,28.27,28.27,0,0,1,2.41-1.63q.5-.25,1-.48c.57-.2,1.15-.38,1.74-.55,1.11-.26,2.22-.47,3.35-.63,1.38-.14,2.75-.21,4.13-.23,2.2,0,4.39.12,6.59.16s4.12,0,6.18.12c3.91.12,7.82.47,11.73.7,4.38.27,8.74.75,13.11,1l2.8.16c3.33.19,6.67.38,10,.79,4.16.6,8.26,1.66,12.4,2.45,2,.38,4.07.74,6.09,1.21s4,1,5.93,1.49a98,98,0,0,1,9.73,3.21c2.78,1.09,5.57,2.14,8.34,3.26a100.17,100.17,0,0,1,10.9,5.25c2.82,1.61,5.62,3.24,8.34,5,2.94,1.91,5.9,3.78,8.82,5.71s6.12,3.84,9.31,5.59c2.73,1.48,5.47,2.94,8.19,4.45a72.24,72.24,0,0,1,6.76,4.31,65.4,65.4,0,0,1,5.12,4.44c.59.58,1.17,1.18,1.71,1.81.65.85,1.24,1.73,1.81,2.63.86,1.47,1.63,3,2.62,4.42,1.24,1.77,2.72,3.36,4.1,5q2.5,3.23,4.73,6.65a4.21,4.21,0,0,0-.89,2.46,4.53,4.53,0,0,0,.93,2.84c-.89,1.48-1.8,2.93-2.8,4.33-1.13,1.59-2.35,3.11-3.53,4.66-2.51,3.32-4.87,6.75-7.4,10.06s-5.41,6.4-8.12,9.6-5.26,6.29-7.89,9.44-5.11,6-7.58,9.14-5.06,6.54-7.58,9.83c-2.73,3.48-5.49,7-8.43,10.29-3.08,3.49-6.26,6.89-9.51,10.24s-6.56,6.75-9.72,10.24-6.19,7.29-9.2,11c-2.83,3.51-5.68,7-8.44,10.57-3,3.83-6,7.62-8.79,11.59s-5.37,8-7.82,12.09c-1.15,2-2.22,4-3.25,6a48.54,48.54,0,0,0-2.73,6.07,4.65,4.65,0,0,0,3.06,5.7,4.85,4.85,0,0,0,1.22.23,4.53,4.53,0,0,0,4.53-3l.21-.57a87.9,87.9,0,0,1,4.77-9.38c2.06-3.49,4.22-6.92,6.54-10.25s4.77-6.56,7.24-9.79h0l.26-.33-.17.22c4.84-6.25,9.76-12.45,14.83-18.52,3.11-3.73,6.34-7.32,9.69-10.84,3.2-3.38,6.49-6.68,9.66-10.08s6.48-7.18,9.52-10.94,5.76-7.34,8.58-11.05c4.35-5.61,9-11,13.52-16.46,2.37-2.84,4.74-5.7,7.16-8.49s4.8-5.54,7-8.47c2.67-3.58,5.23-7.23,7.94-10.77,1.29-1.68,2.56-3.36,3.69-5.14.5-.78,1-1.56,1.51-2.36,1.29.8,2.55,1.63,3.77,2.54,2.14,1.7,4.12,3.57,6.3,5.24,2,1.54,4.09,3,6.14,4.48,1.22,1,2.4,1.95,3.55,3,2.26,2.26,4.28,4.72,6.54,7s4.68,4.39,7,6.58q4.23,4.18,8.06,8.68a73.29,73.29,0,0,1,4.38,6.27c2.77,4.67,5.43,9.42,7.73,14.31a47.81,47.81,0,0,1,1.73,4.49c0,.08.05.16.07.25s-.05.09-.07.14c-.56.87-1.15,1.72-1.78,2.56-1.41,1.75-3,3.35-4.5,5-1.69,1.9-3.41,3.75-5.2,5.55-3.06,2.9-6.39,5.54-9.62,8.25-3,2.53-5.84,5.26-8.64,8-3,2.92-6,5.77-8.88,8.85-1.4,1.53-2.76,3.11-4.16,4.65s-2.63,2.78-4,4.13c-5.31,5-10.92,9.69-16.48,14.45-2.81,2.42-5.6,4.87-8.5,7.2s-5.63,4.47-8.48,6.66l-2.33,1.74.46-.35c-1.94,1.38-3.89,2.75-5.92,4s-3.81,2.27-5.75,3.37l.23-.13-.33.18-.18.1.15-.08c-2.89,1.59-5.79,3.18-8.65,4.83s-5.6,3.28-8.41,4.92l-.2.11a13.59,13.59,0,0,0-1.54.87h-.05A117.23,117.23,0,0,1,606,465.91q-3,1.27-6,2.49c-1.93.77-3.89,1.49-5.76,2.37a4.35,4.35,0,0,0-1.94,6,4.82,4.82,0,0,0,4,2.52,4.66,4.66,0,0,0,2.22-.42c1.87-.88,3.83-1.6,5.76-2.37s4-1.63,6-2.49,4.25-1.82,6.32-2.85c1-.51,2.06-1,3.07-1.53.81-.42,1.75-.81,2.55-1.33.57-.28,1.1-.63,1.64-.93l.08-.05.25-.13c3.95-2.31,7.88-4.64,11.87-6.89,3.11-1.73,6.23-3.43,9.29-5.23a91.21,91.21,0,0,0,8.49-5.64c2-1.48,4-3,5.9-4.5q5.51-4.31,10.79-8.85c3.59-3.08,7.22-6.12,10.8-9.22s7.48-6.48,10.88-10c3.22-3.38,6.2-7,9.48-10.29.17-.17.34-.34.52-.5,3.25-3.11,6.45-6.28,9.75-9.34s6.88-5.84,10.31-8.78a114.44,114.44,0,0,0,9.74-10c1.34-1.47,2.69-2.89,3.91-4.47.58-.76,1.2-1.57,1.76-2.42,1.1.69,2.18,1.41,3.23,2.18.31.24.61.49.89.75,1.35,1.39,2.54,2.94,3.76,4.43a45.25,45.25,0,0,1,2.64,3.7c.75,1.28,1.44,2.58,2.07,3.91,1.09,2.48,1.83,5.07,2.71,7.62a55,55,0,0,0,3,7.33c2.71,5.21,5.94,10.14,9.05,15.15L765,416l.59,1,0-.07c2.82,4.58,5.91,9,8.76,13.57a191,191,0,0,1,10.24,17.86c1,2.25,1.92,4.49,2.69,6.81a45.76,45.76,0,0,1,1.11,4.59,50.1,50.1,0,0,1,.56,5.17,66.15,66.15,0,0,1-.14,8c-.08.75-.18,1.48-.33,2.21v0c-2.43,1.23-5,2.21-7.54,3.24-2.15.87-4.35,1.71-6.44,2.72s-4.19,2.08-6.23,3.22c-4.23,2.32-8.46,4.62-12.74,6.86s-8.72,4.61-13,7.09c-4,2.33-7.88,4.76-11.77,7.2s-7.95,5.11-12,7.59c-4.18,2.59-8.41,5.1-12.64,7.61-8.2,4.86-16,10.27-24.28,15.06-3.95,2.17-8,4.28-12.06,6.19a7.94,7.94,0,0,0-3.29.94,52.17,52.17,0,0,0-5.52,3.53c-1.56,1-3.15,2.07-4.72,3.14s-2.92,2-4.44,2.83C650.89,552.84,649.9,553.32,648.87,553.75Zm149.07,1.32a50.21,50.21,0,0,1-.86,5.17,105.79,105.79,0,0,1-3.77,11.41,80.91,80.91,0,0,1-4,8.43c-.88,1.49-1.82,2.93-2.84,4.34l-.44.57,0,0a36.5,36.5,0,0,1-3.31,3.72,45.59,45.59,0,0,1-3.62,3c-.86.63-1.74,1.23-2.67,1.79-.69.36-1.39.69-2.11,1-2,.77-4.08,1.41-6.16,2s-4.27,1.27-6.42,1.85c-1.81.43-3.62.76-5.47,1l-1.78.22c-1.38.17-2.76.37-4.14.56-4.19.52-8.39,1-12.6,1.37-4,.4-8,.89-12,1-.72,0-1.45,0-2.18-.1-.38-.07-.76-.14-1.14-.23-1.74-.45-3.48-.88-5.25-1.21s-3.85-.68-5.75-1.13c-1.06-.3-2.11-.64-3.14-1-.67-.29-1.33-.59-2-.92s-1.34-.81-2-1.26c-.44-.35-.85-.7-1.27-1.07-1.74-1.73-3.32-3.61-5-5.42-2.09-2.3-4.32-4.47-6.58-6.62-3.26-3.09-6.49-6.26-10-9.09a55.7,55.7,0,0,0-10.92-6.86c-2.08-1-4.14-2-6.26-3-1.3-.58-2.6-1.13-3.86-1.77-.09-.57-.17-1.15-.26-1.72a4.94,4.94,0,0,0-1.13-2.5c.81-.5,1.62-1,2.41-1.57,1.41-1,2.83-1.88,4.24-2.82,1.2-.8,2.37-1.65,3.58-2.43a5,5,0,0,0,1.57-.39,162.2,162.2,0,0,0,17.29-8.79c5.51-3.19,10.76-6.76,16.15-10.14,4.13-2.6,8.34-5.07,12.54-7.55,4-2.34,7.88-4.8,11.77-7.28,7.91-5,15.82-10.05,24-14.65,5.51-2.95,11.09-5.8,16.56-8.82a126,126,0,0,1,13-6.53c1.77-.72,3.55-1.44,5.31-2.18a5.44,5.44,0,0,0,1.07,1l.17.11.06.09.32.61c.2.5.37,1,.53,1.5a37.31,37.31,0,0,1,.87,3.73c.36,2.17.7,4.33,1.08,6.49l0-.1a53,53,0,0,1,.73,6.14,51.83,51.83,0,0,1-.09,5.29c-.15,2-.35,4-.47,6.06a15.12,15.12,0,0,0,.06,2.93,20.25,20.25,0,0,0,.93,3.66q1,2.91,1.92,5.84a85.93,85.93,0,0,1,2.49,9.81,75.47,75.47,0,0,1,.86,8.47A69.86,69.86,0,0,1,797.94,555.07Z"/><path d="M754.43,599.59h0Z"/></svg>