<svg xmlns="http://www.w3.org/2000/svg" viewBox="0 0 1000 1000"><defs><style>.cls-1{fill:#f1d102;}.cls-2{fill:#e3ae04;}.cls-3{fill:#ffef37;}.cls-4{fill:#fff;}.cls-5{fill:#674d2b;}.cls-6{fill:#767c5c;}.cls-7{fill:#f2edcd;}.cls-8{fill:#47642a;}.cls-9{fill:#042a15;}.cls-10{fill:#194f32;}.cls-11{fill:#093419;}</style></defs><g id="レイヤー_1" data-name="レイヤー 1"><path class="cls-1" d="M822.68,663.64c8.25,27.11,7.06,50.64,4,71.46-4.12,28.32-14.1,51.37-31,69.31-4.26,4.52-5,13.12-9.86,16.82-41.05,31.08-102.6,33.19-157.19,7.54-30-14.09-59.77-35.79-80.33-69.89-6.74,62.73-66.27,111.41-126.74,118-20.16,2.21-37.51,4.37-56.53-4.08-2.64-1.39-4.07-7.73-6.7-10.42-8.17-8.38-17.41-17-24.94-21.46-47.56-28.43-53-77.54-47.56-127C291.1,666.3,315,612.17,362.1,582.55c-14.83-16.67-5.37-47.83-21.75-61.2-9.82-5-20.72-10-17.62-22.05,5.27-7.33,17.08-9.21,23.42-16.23,46.5-51.43,113.73-95.73,186.19-63.22,40.18,8.77,70.55,37.31,88.75,68.44,11.19,19.14,9.17,32.78,19.72,52.21,4,7.41,15.26,13.55,19.43,20.59,54.39-5.85,95.49,17.58,128.19,57.13C799.83,632,814.72,647.56,822.68,663.64ZM601.29,583.09C581.65,573,584.83,589,585.48,601.55,594.38,599.57,599.05,591.92,601.29,583.09ZM397.52,869.53c4.52-10.93-12-17.09-19.91-12.34C368.23,866.74,390.88,872,397.52,869.53Z"/></g><g id="レイヤー_7" data-name="レイヤー 7"><path class="cls-2" d="M822.84,710.5a322.76,322.76,0,0,1-3,38.53c-1.45,9.92-1.84,20.64-7.65,29.2-2.89,4.81-7.09,8.57-10.6,12.89a128.91,128.91,0,0,1-12.71,15.07c-2.12,2.42-3.48,16.41-5.18,17.12-.79.34-2,.31-2,1.39-1.32,6.2-6.15,8.49-12.12,7.55a27.16,27.16,0,0,1-4.62-1c-.72.43-1.44.93-2.14,1.39-6.58,4.22-14.16,6.55-21.25,9.78-5.11,2.41-10.86,2-16.29,3-5,1.25-10.06,2.49-15.14,3.56-5.16,1.68-10.56,2.64-15.94,1.4-6.35-1.39-12.4-3.9-18.64-5.67-12.83-3.35-25.52-7.42-37.14-13.91-8-4.07-14.8-10.08-22.74-14.25-10.09-4.76-20.91-8.22-30.31-14.41-7.69-5.43-13-13.43-19-20.59-5.33-5.86-9.16-12.8-12.63-19.87-3.94-8.09-7.47-16.57-8.37-25.61-3.24,19.08-5.3,38.69-12.62,56.75a146.31,146.31,0,0,1-22.17,40.14c-7.8,10.53-17.21,19.93-28.4,26.86a68.79,68.79,0,0,1-20.91,8.69c-6.65,1.61-24.71,5.12-24.38-5.71-1.08-24.89-22.59,6.42-27.61-4,.23-4.14,3.56-7.35,6.1-10.35,5.92-6.68,13.92-12.95,15.18-22.35.28-4.38.47-10-3.09-13.15a12,12,0,0,0-12.49-.83c-7.25,4.31-9.85,13.12-12.91,20.48-1.06,2.86-6.53,15.67-8.1,7.2-2.33-23.95,3-47.83,6.24-71.46a87.93,87.93,0,0,1,6.5-23.64c2.58-7.84,6.87-15,13.7-19.87,6-5.49,11.27-1.94,17.51.8a67.79,67.79,0,0,0,25.93,7.58c6.16.64,8.55-16.93,9.66-21.69,3.27-16.3,3.45-52.37,17.34-62.54,4.2-3.07,9.5-2.75,14.33-1.6,4.24,1,8.61,2.12,12.39,4.38,17.33,9.5,22.84,29.65,29.07,47,.32-3.3.61-6.76.86-10.06,8.22,7.94,19.68,16.43,29,22.69,9.43,7.06,18.72,14.35,28,21.55,13.07,11,37.3,42.49,56.24,34.79,5.41-2,12-7,9.69-13.52a115.1,115.1,0,0,0-4.42-15.54c-4.47-13.81-7.4-28.1-11.14-42.13-2.41-9.48-3.91-21,1.68-29.59,4-4.26,10.47-4.21,15.91-4.59,9.79-.56,20.71.38,29-5.69,8.42-6.34,15.47-15,25.81-18.35,14.72-5.8,31.15-6.08,46.61-3.56,12,1.95,21.42,10.69,27.24,21C811.12,672.69,823.41,690,822.84,710.5Z"/><path class="cls-2" d="M654.75,559.73c-.34,5.88-7.73,5.53-11.84,7.52a89.93,89.93,0,0,1-14.12,4.13c-4.21.78-8.59.84-12.65,2.32-6.68,2.41-13.08,6.65-20.38,6.72-2.42-.1-4.9-.88-7.26,0-9.59,2.82-4.74,14.38-13,17.26-16.2,6.11-16.93,30.5-25.8,43.69-7.69,14-8.93,21.1-20.07,3.65-13.57-19.76-25.34-43-48.2-53.46-4.81-2.43-10.12-3.59-15.17-5.42-7-2.43-13.77-5.31-20.82-7.47-8.24-3.07-17-1.65-25.49-2-5.58-.29-11-1.76-16.61-2.06s-11.27.86-16.88,1.49c-5.14.57-10.27,1.3-15.36,2.17-2.88.28-5.86,1.53-8.72.76-8.21-4.83-8.82-20.81-10.64-29.39-2.09-12.75-3.33-18.65-14.47-26.26A38.39,38.39,0,0,1,329,512.93c-4-3.13,1.68-14.79,2.16-18.35,5.74,6.29,10.83,8.54,18.57,4.07,1.67-.69,4.94-3.41,6.1-.76.81,3.71-.28,7.63-.27,11.41-.26,5.61-.22,11.24-.37,16.86-.62,8.11,1.84,16,5,23.41,5.7,13.81,22.75,16.75,36.12,16.73,10.88-.95,21.24-5.22,31.92-7.34a115.39,115.39,0,0,1,34.16-.45,108.17,108.17,0,0,1,37.32,16.82c13.8,10.35,34.17,21,51.66,21.17,11.21-1.15,20.2-9.39,28-16.86,6.61-6.92,14.67-12.51,23.92-15.19,7.81-2.62,16.44-2.13,24-5.63,6.46-3.6,10.48-10.72,11.67-17.88,1.38,5.41,5.39,9.65,9.84,12.8C650.84,555.51,654.07,556.87,654.75,559.73Z"/></g><g id="レイヤー_6" data-name="レイヤー 6"><path class="cls-3" d="M494.28,656.32c.22,14.3-4.47,27.93-8.23,41.54-3.84,12.43-5.75,26.14-13.79,36.73-3.15,3.81-8.35,2.45-6.25-3,4.75-12.06,6.13-25.37,2.45-37.93-1.46-5.56-7-8.5-11.4-11.51-3.87-2.71-7.11-2.67-11.09-.31-5,2.29-9.89,5-14.72,7.67-6.44,3.58-13.21,7-18.26,12.46-9.87,9-17.63,20.2-28.05,28.64-8.24,7.67-15.8,14.43-27.92,12.63a91.31,91.31,0,0,1-28.81-5.41,140.37,140.37,0,0,1-12.84-7.58c-7.16-4.23-15-8.12-19.14-15.75-9.35-15.62-6.44-32.77-.16-48.94,2.33-4.73,1.92-10.32,4.34-15.07,3.45-8.63,8.31-16.5,13.07-24.44,4.07-7.54,9.78-14.45,17.4-18.61,1.55-.72,1.37-3.19,2.19-4.61,1.29-3.15,5.92-6.42,8.73-8.43,4.14-2.77,6.49-3.51,10.85-5.86,5.8-3.05,11.4-6.57,17.48-9.07a20.71,20.71,0,0,1,10.31-1.68c4.15-1.8,8.28-3.93,12.8-4.62,10.56-1.76,19.95,5.25,30.4,5.31,10.17,1.21,20.73-5,30.44-.23,4.33,2.08,8,5.21,11.83,8.1,3.58,2.87,7.49,5.55,10.3,9.22a30,30,0,0,1,4.64,10.24c.52,3,.61,6.14,1.42,9.12,1.11,4.63,4.15,8.41,6,12.71C491.49,636.89,494.31,646.5,494.28,656.32Z"/><path class="cls-3" d="M771.26,605c0,5.17-2.09,7-6.54,3.77a19.21,19.21,0,0,0-7.34-2.3,140.7,140.7,0,0,0-24.63.49c-7.66.54-15.44,1.86-22.29,5.51-12.92,6.64-19.38,28.08-32.06,30.94-3.07.58-6-.74-8.84-1.79-4.46-1.57-8.78-3.7-13.42-4.72-9.16-1.28-19.71,5.24-22.7,14-.19,2.24-2,5.86-1,7.73,3.24,3.83,3.73,8.94,2.86,13.72a43.62,43.62,0,0,1-14.23,27c-2.82,2.57-6.86,2.61-10.39,1.8-11.88-2.43-18.38-12.71-31.58-9.07-11.8,2.32-26.36-.65-29-14.26-1.76-7.91-2.29-16.26-.52-24.2,1.65-10,9.34-17,13.2-25.92,6.53-15.95,8.21-24.42,24.26-33.7.62,4.06,17,41.23,7.19,38.47-6.25-1.74-6.83-25.36-13.52-20.32-2.9,2.58-3.31,6.77-4.23,10.33-.82,4.32-.32,10.47,3.4,13.28,2.12.94,4.53.7,6.77,1.14a77.66,77.66,0,0,1,9.57,2.46c.09-19.71,17.8-1.81,22-13.89,2.17-13.74-8.91-24.25-16.25-34.47,9.47,8.29,26.25,31.88,39.83,18.13,3.29-3.57,7-7.11,8.57-11.85,3.38-11-9.29-16.68-7-24.08,3.91-6.15,15.4-6.73,22-8,6.74-1.6,13.59-1.93,20.48-2.21,9.8-.59,19.92-.71,29.52,1.55,8.22,2.66,15.73,7.2,23.11,11.62,6,3.83,12.34,7.21,18.53,10.77,3.57,1.88,7.24,3.9,9.72,7.19C769,597.32,771.23,601,771.26,605Z"/><path class="cls-3" d="M594.13,463.62c-.25,3.95-1.38,4.68-4.82,2.66a30.32,30.32,0,0,0-6.77-2.8c-4-.68-8,.12-12,.26-7.43.14-14.86.47-22,2.62-12.65,3.17-24.59,17.57-38.4,11.09-3.07-1.66-5-4.7-6.83-7.52-2.09-3.15-5.41-6.19-9.46-5.52-5.38,1-10.57,3.06-16.06,3.49-17.49-.42-20.7-13.13-42.6-4.38-13.46,3.32-21.9,9.36-32.05,18.44-16.24,12.19-30,29-34.33,49.2-1.14,5.05-4.88,22.24-6.86,6.92a85.92,85.92,0,0,1,3.63-32.92c.45-2.91,7.46-20.16.92-18.7-1.69.92-3.26,2.16-5.2,2.46-2.17.6-4.17-.73-6.25-1.08-7.81-2-15.41,1.23-22.66,3.82,1.46-1.61,17.47-13.75,18-15.35,2.93-3.5,5.69-7.18,8.78-10.54,7-7.8,15-14.52,22.76-21.54,9.71-8.2,18.09-18.29,29.29-24.55,5.66-2.59,11.62-4.5,17.44-6.69,14.1-6.78,26.66-8.38,42.09-5.9,12.88,1.57,25.72,3.52,38.2,7.2,14.83,3.78,30.3,5.86,43.48,14.14C566.28,434.81,590,448.18,594.13,463.62Z"/></g><g id="レイヤー_5" data-name="レイヤー 5"><path class="cls-4" d="M464.67,726.92c-2.32.05-.8-2.69-.57-4,1.08-6.21,6.9-9.63,9.66-14.94.88-1.6-.64-2.77-1.55-3.91-2.27-2.76-3.34-6.8-.62-9.63,2.19-3.63,4.87-5.89,7.21-8.87,1.59-3.68-1.05-7.45-1.67-11.05,0-1.54,1.65-2.52,2.63-3.54-1.25-1.54-.74-3.9.18-5.49.21-.79,1.61-1.52,1.27-2.22-3.6-5.58,3.77-9.4,8.56-9.5-.72,1.14-3,6.21-4.49,6.51-1,1-4,2.36-3.65,3.72,2.63,3,.78,5-1.87,7,1,1.08,2.93.44,3.85,1.56-.65,4.14-2.37,8.14-1.24,12.46,0,1.8-1.83,2.46-3.23,3a17,17,0,0,0-5.56,4c-1.31,2.87,1.29,5.88,1.68,8.75a17.93,17.93,0,0,1-1.17,8.8c-1.38,3.32-2.95,6.58-4.18,10C468.82,722.36,468.64,727.08,464.67,726.92Z"/><path class="cls-4" d="M331.55,707.33c-2.87-1.22-4.63-4.28-6.54-6.62-4-4.48-5.3-11.5-.8-16.11,1.8-2.42,5.33-2.07,7.28-4.33,2.92-2.72-.82-4.61-3.44-3.82-10.07,4.6-10.61-3.45-5.69-10.18,2.18-3,6.06-4,8.55-6.69,1.58-1.67,1.08-2.51-.75-1a7.48,7.48,0,0,1-8.43-1c-3.39-2.94,4.57-8.37,6.17-11,1.37-1.9,4-3.6,4.45-5.93-1.32-1.11-.13-2.31.95-3,10-7-1.48-3.11-.27-7.88,2.47-6.08,12.06-4.55,14.56-10.72.48-4.65-6.18-2.27-8.92-2.85-3.52,0-4.14-3.38-.92-4.74,3-1.32,6.07-2.63,9.19-3.66,1.78-.72,4-.86,5.43-2.25.37-.68-.57-1-1-1.37-1.1-.82-2.61-1.45-3.15-2.79,0-3.12,5-3.13,7.12-4.25,1.34-.95,15.83-3,11.26-5.14-1.64-.63-5.09-.61-5.08-2.93,5.07-6.17,13.83-7,21.33-7a5.24,5.24,0,0,0,3.14-1,14.13,14.13,0,0,1,3.26-.8c2.83-.51,5.06,1.56,7.41,2.73A35.49,35.49,0,0,0,407,585.65c2.43.11,4.64-1.24,6.48-2.69,11.82-2.8,6.25,4.2,14.4,4.92a96,96,0,0,1,9.74.65c5.9.18,12.05.26,17.46,2.91-1-.4-2.43-.56-3.16.41a3.65,3.65,0,0,1-3.84,1.83,33.35,33.35,0,0,0-4.73-1.07c-5.64-.82-1.52,3.12-.87,5.8,1.09,3.94-2.82,3.12-4.8,1.41-2.07-1.52-3.86-3.75-6.54-4.18-1-.15-6.27-.54-3.82,1.32,6.77,5.82-1.94,7.56-6.54,9.44-5.08,1.5-11.21,1.14-15.29,5-.37,1.29,1.48,2.33,2,3.42,1.14,1.31,2.68,3.91,4.71,2.79,3.17-2.36,5.06-6.14,8.39-8.3,4.91-.69,9.21-3.78,14.19-4.36,5.23-.85,9,7.77,4,10.37-1.95,1.06-4.23.65-6.34.52a24.68,24.68,0,0,0-9.25,1c-3.17,2.26,5.36,2.67,6.61,2.57,5-.21,12.28,1.86,5.43,6.9-3.07,1.87-7.35,1.13-10.55,1.88,1.4.62,8.46,1.3,5.57,3.58-2.9,2.1-16.67,10.89-13.87,1.5.05-1.32,3.46-13,.37-9-1.08,1.16-2.15,3.11-3.92,3.1-3.23-1-5.46-3.83-8.43-5.32-2.23-1.22-4.86-1.28-7.22-2.11-.86-.09-.08,1.33-.63,1.73-2,.88-4.7,1.62-5.12,4.11.14,1,1.8.19,2.53.46a4.49,4.49,0,0,1,4.26,2.71c.73,1.95-.56,5.38-3,4.87-2.69-1.05-5.2-3.2-8.29-2.22-3.32.58-6.5,2.14-9.92,2.11-2.53.2-5.8-1.42-7.83.62a2.37,2.37,0,0,0,2,3.67c2.26-.31,4.11-2,6.31-2.59,3.6-1.24,7.55-.16,10.9,1.36,2.16.84,4.19,2.79,6.63,2.46,2.9-.82,5.42-3.23,8.58-3,5,.35,4.92,9,.46,10.09-4.16.45-8.48-.2-12.6.6-.9.23-1.55,1-2.39,1.34a5.28,5.28,0,0,1-4.11-.62c-3.46-4.19-1.76-6.81-8.79-5-2.33.53-3.79,2.42-5.06,4.27a56.11,56.11,0,0,1-5.59,3.07,29.73,29.73,0,0,1-6.66,2c-.85.29-2.36.27-2.61,1.3,1.16,1.07,3.38.15,4.89.67,3.4.32,5.85,4,4.36,7.2-2.66,6-8.68.53-13.1.59-3.44.34-7.28,2.76-8,6.31-.22,1.88,2.09,1.87,3.34,2.4s5.14,2.06,2.28,3.11c-3.73,1.7-7.93,2-11.67,3.64-4.38,2.92,1.78,3.69,4.17,3.08,2.71-.09,6-2,8.48-.46.91,1.52-.76,3.47-2.13,4.11-.91.49-1.92,0-2.86-.13-4-.95-8.14.23-11.73,2.1-2.6,1.2-9.16,5.83-4.81,8.21C334.6,695.65,337.38,705.15,331.55,707.33Z"/><path class="cls-4" d="M611.78,648.87a71.62,71.62,0,0,1-14.28-2.72c-3.57-3-4.45-8.57-8.76-10.79-4.4-1.35-6.18,5.09-10,6.09-5.23,1.22-5.3-7-2.33-9.48,2.2-2.49,5.76-1.57,8.56-2.69,4.87-1.76,3.09-4.94.76-8.06.47-3.12,3.37-5.48,5.62-7.48,6.39,20.1,9.36.55,16.7,10.5.51,1.16,2,5.29-.17,5.27-.84-.31-1.53-1.34-2.52-1.13-1,.48-1,2-1.36,2.91-.35,1.92-1.05,4.14-.25,6,1,1.26,3.07.62,4.52.92,3.61.47,7.6-.37,11,.89.56,1.9-.3,4.14-.24,6.14C619.41,649,614.75,648.57,611.78,648.87Z"/><path class="cls-4" d="M484.53,646.37c-11.17-4-4.83-4.66.72-10,3.67-3-2-3.89-3.12-6.35-1.81-3.89-.71-8.55-2.72-12.46-1-5.22-7.47-7.56-6.44-.43,2.71,5,6.76,7,3.67,13.35-.83,2-3.88,4.32-5.5,1.87-.83-1.83-.84-4.19-2.53-5.55-1.93-1.53-5.44-1.39-6.71.91-.71,2,0,4.21-.7,6.22-.24,1.92-4.43,12.35-6.65,8.74-2-2.91.59-7.31-2.3-9.72-3.38-2.41-7.22,1.7-10.36,3-4,2.2-6.2,7-10.67,8.33-6.49-.27,3.95-9.5,5.69-11,2.4-2.34,6.06-2.73,8.52-4.76.24-1-.53-1.9-.59-2.87a3.88,3.88,0,0,1,2.42-4.38,16.12,16.12,0,0,0,3.52-2.17c.45-.5.82-1.1,1.51-1.3,1.62-.21,3.31.28,4.94-.1,1.73-.14,4.4-1.8,2.73-3.67-2.25-2.16-5.77-2.39-8-4.6-.75-.62-1.59-2.12-.09-2.37,1.25-.6,1.9.85,2.61,1.61,1.54,2.07,3.93,3.84,6.58,2.72,3.64-.89,3.48-3.3,1.21-5.71-1-1.1-3-2.3-1.83-4,2.42-3.21,7.21-3.15,10.34-1,.54.61,6.82,1.94,6.27,3.36a28.2,28.2,0,0,0,2.78,10.42c.87,1.91.75,4.13,1.73,6,1.64,4.5,5.76,7.09,9,10.3.62.74.12,1.67-.2,2.44a32,32,0,0,1-3.47,5.6c-1,1.6-.48,3.6-1,5.36C485.68,644.94,485.56,646.32,484.53,646.37Z"/><path class="cls-4" d="M649.84,643.83c-3.61-.49-4.45-4.83-5.87-7.57-1.73-3.33-4.46-8.18-8.91-7.21-2.19.07-7,2.39-7.35-1.07,4.37-19.91-12.64-4.08-10.72-11.13.58-1.88,4.49-8,.21-7.69-1.57.28-3,1.13-4.62,1.31-1.16.14-1.43-1.22-1.69-2.08-.6-2-1.25-4-2-5.89-.13-2.08-6.45-12-2.18-12.3,3.6.4,6.71,2.85,10.41,3,1.82.37,2.62,2.31,3.75,3.59a11.1,11.1,0,0,0,5,4.09c3.65,1.66,7.06,4.21,11.1,4.77,2.37.63,5.51-1.76,2.13-3.17-3.2-.57-6.77.42-9.74-1.34-2-.76-3.43-5-.29-4.93,3.9-.08,7.26,3.49,11.27,2.58a3.3,3.3,0,0,0,2.21-4.65,15.42,15.42,0,0,0-2.63-1.41c-2.17-1.44-3.62-3.8-5.86-5.18-4-2.6-9.21-.38-13.61-2-1.71-.35-7.74-3.72-2.86-3.78,3.29.73,6.59,1.57,9.8,2.62,1.07.25,14.69,3.47,10.4-.05a24.1,24.1,0,0,0-7-4.71c-1.63-.8-3.26,0-4.88.3a12.9,12.9,0,0,1-7.45-.64c-3.87-1.53-10.83-6.47-1.54-5a90.16,90.16,0,0,0,9.14-.41c5.48-.75,10,3.19,15,4.38.8.17.6-.67.54-1.16a6.09,6.09,0,0,1,.25-2.08,4,4,0,0,1,1.35-2.27c.36-.16.68-.47.23-.75a2.38,2.38,0,0,1-.92-1.93c.67-1.13,2.47-.44,3.58-.71a40.17,40.17,0,0,1,7.83-.1c1.2,0,2.63.5,3.72-.17a12.17,12.17,0,0,1,2.77-2.59c1.9-1,4.26.08,5.81,1.3,1.16,1,2,2.62,3.6,2.91,4.12.54,8.25.69,12.4.83,2-.15,9.62-.29,4.79,2.54a17,17,0,0,0-4.31,5.34c-4.86,7.91,5.15.2,9.48,3.7,5.09,1.88,2.54,12.35-3,10.27-2.13-.68-3.32-2.86-5.45-3.55-1.62-.49-7.68-.52-4.11,2,12.06,9.13,6.43,11.53-4.9,6.09-2.62-1.24-5.25-2.54-8-3.53-1.79-.79-3.78-1.05-5.31.4-2.24,1.19-4,4.94,0,4.59,2.83.11,6.11-.07,8.24,2.13,1.19,1.36,4.06,4.94,1.81,6.22-2,0-3.92.57-5.9.73-3,.11-6-.43-9-.13a10.5,10.5,0,0,0-5.87,2.51c-1.16.94-.46,2.71,1.06,1.9,3.43-1.23,8.29-2.92,11,.53,2.12,3.47.09,8.13-4.43,6.54-5.24-.7-10.07,2.46-14.36,5.06-5.59,4-.14,6.85,3.36,9.41C650.13,636.28,657.3,643.53,649.84,643.83Z"/><path class="cls-4" d="M489.3,428.64c-5.59,11.36,9,11.53,5.64,2.46-1.42-1.6-4.28-.91-5.5-2.92Zm-107.21,65c-4.42-.62-5.09-5.81-3.36-9.21,1-2.24,3-4,3.48-6.44.14-4.71-6.35-5-8.93-7.84-2-2,.41-2.07,2-2.49,2.12-.6,5.69-1.6,5.49-4.38-.82-2.6-4.3-2.38-6.09-3.81.24-7,6-14.37,10.25-19.77,2.27-1.36,5-1.82,7.14-3.46,4-3.38,6.57-8.14,10.7-11.42,5.63-4.74,13.34-4.42,20.19-5.59,5.44-1.21,9.66-5.68,15.35-6.15,3.44,0,6.5-1.59,9.81-2.18,6.46-.43,7.56,1.08,4.71,6.93-.75,1.63-.88,6.8,1.86,6.2,2.41-2.52,2.37-7.14,5.62-8.92.94-.59,2,0,3,.35,1.58.49,2.28,2,2.82,3.42,1.17,2.63,2.25,5.72,4.93,7.16,1.66,1,5.75.54,5.25-2-1-2-3.31-3.75-3.13-6.24.13-2,5.76-7.38,7.13-4.5a2.89,2.89,0,0,1-.34,2.56c-4,8.57,7.88,1.32,9.72,7.88,12.34-16.18,5.34,1,13.06,6,2.85,1.2,12.25,4.7,9.52,8.85-1.36,1.29-3.21,1.12-4.92.93-5.16-.35-.53,1.77-1.91,4A43.8,43.8,0,0,1,498,449c-3.69,2.29-4.85-.93-5.81-3.93-1-2.71-3.4-5.79-6.62-5.36-3.26.66-1.86,2.88-.45,4.69,1.53,2.56,4,5.65,2.93,8.79-.87,1.59-2.69.21-3.9-.17a13.17,13.17,0,0,0-5.58-1.25c-2.89-.4-4.18,4.59-6.87,3.07-2-1.8-2.37-4.9-4.52-6.59-4.48-2.86-10.87,6-15.31,7.23a11.52,11.52,0,0,0,5.88-10.39c0-1.27,0-5.53-2-4.43-1.8,1.87-3.75,9.27-7,7.77-1.33-1.91-1.56-4.59-3.59-6-1.8-1.8-1.67,1.25-2.13,2.41-1,4-5.44,2.6-8.47,3.1-5.07.42-9.86,2.38-14.86,3.11,3.2,5.1-1.57,7.49-6.18,6-5.37-.93-11.81.13-15.26,4.72-3.39,5.8-.8,4.58,3.85,3.76,2,.31,12.14-2.09,11.56.85-2.61,5.06-5.63,12.22-12.5,11.41-1.73-.07-3.73-.41-5.18.77C391.87,482.88,388.83,493,382.09,493.62Z"/><path class="cls-4" d="M501.91,484.55c-1.71-1.39-.71-4.47.12-6.2,3.13-7.2,10.91-10.05,17.34-13.6-3.82-6.77,4.7-7.35,9.35-7-7.29-6.62.45-13.32,7.57-14.89-2.29,3.79-1,8.17.71,11.81-1.48,3.05-5.31,3.23-8.28,3.08,2.13,3.51-7.23,5.42-9.35,7,5.25,12.39-9.06,8.07-14.43,13.29-1.11,1.44-1.37,3.36-1.88,5.06C502.87,483.67,502.7,484.65,501.91,484.55Z"/><path class="cls-4" d="M444.44,479.17c-3.06,0-3.72-1.35-.91-3,2.07-1,4.47-1.26,6.65-2,3.87-1.15,7.31-3.4,11.09-4.77-.9,4.1-2.88,5.15-6.58,6.49C451.32,477,448,479,444.44,479.17Z"/><path class="cls-4" d="M474.29,472.09c-3-.75-5.48-3-8.32-4.25,5-1.14,10.31-1.13,15.44-1.66C479.94,468.85,477.79,472.39,474.29,472.09Z"/><path class="cls-4" d="M461.31,469.25c.33-2.44,2.94-2.41,4.66-1.41a43.79,43.79,0,0,0-4.7,1.55Z"/><path class="cls-4" d="M481.41,466.17c2.38-5.36,2.75-3.65,7.3-1.87a21.62,21.62,0,0,1-7.3,1.88Z"/><path class="cls-4" d="M490.65,464.64a5.62,5.62,0,0,1-1.94-.34c1.94-.8,2.28-2.91,2.89-4.68,2.11-7,10.25-3.61,15.25-6.22-.91,2.73.2,6-1.72,8.48-1.85,2.93-5.35,2.25-8.28,2.05C494.75,463.81,492.73,464.62,490.65,464.64Z"/><path class="cls-4" d="M537.17,454.62c-.51-1.67-.46-13.17-.51-15.18l.55,15.25Z"/><path class="cls-4" d="M506.86,453.37c.4-1.12,1.55-1.68,2.52-2.22a7.3,7.3,0,0,1-2.53,2.25Z"/><path class="cls-4" d="M509.55,450.91c1-1.35,1.2-3.11,2.14-4.49,2.4-3.72,5.93-6.68,7.95-10.66.38-.6-.49-1.2-.55-1.86a3.55,3.55,0,0,1,.46-3c0-1.73-2.6-2.82-3.8-4a23,23,0,0,1-4.9-5.9c3,.76,15.56,1,11.24,6.88a32.53,32.53,0,0,0-2.38,2.73,5.31,5.31,0,0,1,.51,3.33c-1.06,2.08,1.44,3.38,2.1,5.25,1.72,7.44-8.31,8.84-12.94,11.91Z"/><path class="cls-4" d="M464.67,726.91c-2.32.05-.81-2.69-.58-4,1.08-6.21,6.91-9.63,9.66-14.94.88-1.59-.64-2.77-1.54-3.91-2.28-2.75-3.34-6.8-.62-9.63,2.18-3.62,4.86-5.88,7.2-8.86,1.59-3.69-1-7.46-1.66-11.05,0-1.55,1.64-2.53,2.62-3.55-1.25-1.54-.74-3.9.19-5.48.21-.79,1.6-1.52,1.26-2.23-3.59-5.58,3.77-9.4,8.56-9.5-.72,1.14-3,6.21-4.48,6.51-1,1-4,2.36-3.65,3.72,2.63,3,.78,5-1.88,7,1,1.09,2.93.44,3.86,1.56-.66,4.14-2.37,8.14-1.24,12.46,0,1.8-1.84,2.46-3.24,3a17,17,0,0,0-5.55,4c-1.32,2.86,1.28,5.88,1.68,8.74a18.17,18.17,0,0,1-1.17,8.8c-1.38,3.32-3,6.59-4.18,10C468.81,722.35,468.64,727.07,464.67,726.91Z"/><path class="cls-4" d="M331.55,707.32c-2.87-1.22-4.63-4.28-6.55-6.62-4-4.47-5.29-11.5-.79-16.1,1.79-2.43,5.32-2.08,7.27-4.34,2.93-2.72-.81-4.61-3.44-3.82-10.07,4.6-10.6-3.45-5.68-10.18,2.17-3,6.06-4,8.55-6.69,1.57-1.67,1.08-2.51-.76-1a7.46,7.46,0,0,1-8.42-1c-3.4-3,4.57-8.37,6.16-11,1.38-1.9,4-3.6,4.45-5.93-1.31-1.11-.12-2.3,1-3,10-7-1.47-3.11-.26-7.87,2.47-6.08,12.05-4.56,14.56-10.73.48-4.64-6.18-2.26-8.93-2.84-3.52,0-4.13-3.38-.91-4.75,3-1.31,6.07-2.62,9.19-3.66,1.77-.72,4-.86,5.42-2.24.37-.68-.57-1.06-1-1.38-1.11-.82-2.61-1.45-3.16-2.79,0-3.12,5-3.12,7.12-4.25,1.34-.95,15.84-3,11.26-5.14-1.64-.63-5.08-.61-5.07-2.93,5.07-6.16,13.82-7,21.32-7a5.26,5.26,0,0,0,3.15-1,14,14,0,0,1,3.26-.8c2.82-.51,5.05,1.56,7.4,2.73A35.63,35.63,0,0,0,407,585.64c2.42.11,4.63-1.24,6.48-2.69,11.82-2.79,6.24,4.2,14.4,4.92a95.94,95.94,0,0,1,9.73.65c5.9.18,12.05.27,17.47,2.91-1-.39-2.43-.56-3.17.41a3.65,3.65,0,0,1-3.83,1.83,33.63,33.63,0,0,0-4.73-1.06c-5.64-.83-1.53,3.11-.87,5.79,1.08,3.94-2.82,3.12-4.8,1.42-2.07-1.53-3.87-3.76-6.55-4.19-1-.15-6.27-.54-3.81,1.32,6.77,5.83-2,7.57-6.55,9.44-5.08,1.5-11.21,1.14-15.29,5-.36,1.29,1.48,2.33,2,3.42,1.14,1.31,2.69,3.92,4.72,2.79,3.16-2.35,5.05-6.14,8.38-8.3,4.91-.69,9.22-3.78,14.19-4.36,5.23-.85,9,7.77,4,10.37-1.95,1.06-4.23.66-6.34.52a24.73,24.73,0,0,0-9.26,1c-3.16,2.26,5.37,2.68,6.61,2.57,4.57-.15,12.15,1.56,5.79,6.66-3.15,2.16-7.39,1.38-10.94,2.1,1.38.67,8.51,1.29,5.61,3.6-2.9,2.11-16.67,10.89-13.88,1.5.06-1.32,3.46-13,.38-9-1.09,1.15-2.16,3.1-3.93,3.09-3.23-1-5.45-3.82-8.43-5.32-2.22-1.22-4.85-1.28-7.21-2.11-.87-.08-.08,1.33-.64,1.73-1.95.89-5.12,1.76-5.06,4.41,2.34.38,5.71-.17,6.74,2.88.73,1.94-.57,5.37-3,4.86-2.69-1-5.19-3.2-8.28-2.22-3.32.58-6.51,2.14-9.93,2.12-2.52.19-5.8-1.42-7.83.61a2.38,2.38,0,0,0,2,3.68c2.26-.32,4.11-2,6.3-2.6,3.6-1.23,7.56-.16,10.9,1.37,2.16.83,4.19,2.78,6.63,2.46,2.9-.83,5.42-3.24,8.59-3,5,.36,4.92,9,.45,10.09-4.16.46-8.48-.19-12.6.6-.9.23-1.55,1-2.38,1.34a5.3,5.3,0,0,1-4.12-.62c-3.45-4.19-1.75-6.8-8.79-5-2.32.53-3.79,2.42-5.05,4.27a56.26,56.26,0,0,1-5.6,3.07c-2.79,1.7-6.74,1.23-9.25,3.14.36,1.3,3.3.32,4.42.77,3.58.12,6.39,3.88,4.81,7.26-2.66,6-8.68.53-13.1.6-3.44.33-7.28,2.75-8,6.3-.23,1.88,2.08,1.87,3.34,2.4s5.13,2.07,2.27,3.11c-3.72,1.7-7.93,2-11.66,3.64-4.38,2.92,1.77,3.69,4.16,3.08,2.71-.09,6-2,8.48-.46.92,1.52-.76,3.47-2.12,4.11-.91.49-1.92,0-2.86-.13-4-.94-8.14.24-11.73,2.1-2.6,1.2-9.17,5.84-4.82,8.21C334.6,695.64,337.38,705.14,331.55,707.32Z"/><path class="cls-4" d="M611.78,648.86a71.62,71.62,0,0,1-14.28-2.72c-3.58-3-4.45-8.56-8.77-10.79-4.39-1.35-6.18,5.1-10.05,6.09-5.23,1.23-5.3-7-2.32-9.48,2.19-2.49,5.76-1.57,8.56-2.69,4.87-1.75,3.09-4.94.75-8.06.48-3.11,3.38-5.48,5.62-7.48,6.39,20.1,9.37.56,16.71,10.5.5,1.17,2,5.3-.18,5.27-.84-.31-1.53-1.33-2.51-1.13-1,.48-1,2-1.36,2.91-.35,1.93-1.06,4.14-.26,6,1,1.26,3.08.62,4.52.93,3.62.46,7.61-.38,11,.88.56,1.91-.31,4.14-.24,6.14C619.4,649,614.74,648.56,611.78,648.86Z"/><path class="cls-4" d="M484.52,646.36c-11.17-4-4.83-4.66.72-10,3.68-3-2-3.89-3.11-6.35-1.82-3.89-.71-8.55-2.72-12.45-1-5.23-7.47-7.57-6.44-.44,2.7,5,6.76,7,3.67,13.35-.84,2-3.89,4.33-5.5,1.88-.83-1.84-.85-4.2-2.54-5.56-1.93-1.52-5.43-1.38-6.71.92-.71,2,0,4.2-.69,6.22-.25,1.91-4.44,12.35-6.66,8.73-2-2.91.6-7.31-2.3-9.72-3.37-2.4-7.22,1.7-10.35,3-4,2.2-6.21,7-10.67,8.33-6.5-.27,3.95-9.5,5.68-11,2.4-2.33,6.06-2.73,8.53-4.76.24-.94-.53-1.9-.59-2.86a3.86,3.86,0,0,1,2.42-4.38,15.86,15.86,0,0,0,3.51-2.18c.45-.49.83-1.1,1.52-1.3,1.61-.2,3.3.28,4.93-.09,1.74-.15,4.4-1.81,2.74-3.67-2.26-2.17-5.77-2.4-8-4.61-.75-.62-1.59-2.12-.1-2.36,1.26-.61,1.9.84,2.62,1.61,1.53,2.06,3.93,3.83,6.57,2.71,3.64-.88,3.48-3.3,1.21-5.71-1-1.1-3-2.3-1.83-4,2.43-3.21,7.22-3.15,10.35-1,.54.62,6.81,1.94,6.26,3.36a28.21,28.21,0,0,0,2.79,10.42c.86,1.91.75,4.13,1.73,6,1.63,4.51,5.76,7.09,9,10.3.61.74.12,1.68-.2,2.44a33.29,33.29,0,0,1-3.47,5.6c-1,1.61-.49,3.6-1,5.36C485.68,644.93,485.55,646.31,484.52,646.36Z"/><path class="cls-4" d="M649.84,643.82c-3.61-.49-4.45-4.82-5.87-7.57-1.74-3.33-4.47-8.17-8.91-7.21-2.19.07-7,2.39-7.35-1.07,4.46-20.1-13.14-3.74-10.62-11.37.62-1.93,4.29-7.61.11-7.45-1.58.28-3,1.13-4.63,1.32-1.16.13-1.43-1.22-1.69-2.08-.59-2-1.24-4-2-5.9-.12-2.07-6.63-12.22-2-12.3,2,.15,3.8,1.24,5.66,1.92a28.14,28.14,0,0,0,5,1.25c1.77.78,2.6,2.81,3.86,4.19a10.58,10.58,0,0,0,4.41,3.37c3.64,1.65,7,4.2,11.09,4.77,2.37.62,5.52-1.76,2.14-3.17-3.2-.58-6.78.42-9.75-1.35-2-.75-3.42-5-.28-4.93,3.9-.08,7.26,3.5,11.27,2.59,1.93-.37,3.26-2.94,2.21-4.65-.72-.7-1.8-.88-2.64-1.42-2.17-1.44-3.61-3.8-5.86-5.17-3.94-2.56-9-.46-13.28-1.89-1.74-.28-8.18-3.79-3.18-3.87a101.06,101.06,0,0,1,9.8,2.61c1.06.25,14.68,3.47,10.4,0a23.94,23.94,0,0,0-7-4.72c-1.5-.72-3-.19-4.52.24a14,14,0,0,1-6.34-.07c-1.48-.38-10-4.26-6.95-5.68,1.9-.58,3.88.47,5.84.15,3.51,0,7-.72,10.54-.35,4.15.68,7.67,3.4,11.73,4.32.81.16.61-.68.54-1.17a6.56,6.56,0,0,1,.32-2.28,3.69,3.69,0,0,1,1.29-2.06c.36-.17.68-.48.22-.76a2.36,2.36,0,0,1-.91-1.92c.66-1.13,2.47-.44,3.57-.72a40.19,40.19,0,0,1,7.83-.1c1.2,0,2.64.5,3.73-.16a12.11,12.11,0,0,1,2.76-2.59c1.91-1,4.26.07,5.82,1.29,1.16,1,2,2.62,3.59,2.91,4.13.54,8.25.69,12.41.84,2-.16,9.62-.3,4.79,2.53a17.1,17.1,0,0,0-4.32,5.34c-4.85,7.91,5.15.21,9.49,3.7,5.08,1.88,2.53,12.36-3,10.27-2.14-.68-3.32-2.86-5.46-3.55-1.62-.49-7.68-.51-4.11,2,12.06,9.13,6.44,11.53-4.89,6.1a86.14,86.14,0,0,0-8-3.53c-1.79-.8-3.77-1.05-5.3.39-2.24,1.19-4,4.94,0,4.6,2.83.1,6.1-.08,8.24,2.12,1.19,1.37,4,4.94,1.81,6.22-2,0-3.92.57-5.9.74-3,.1-6-.43-9-.13a10.39,10.39,0,0,0-5.87,2.5c-1.17.94-.46,2.71,1,1.91,3.43-1.24,8.3-2.93,11,.52,2.13,3.47.09,8.13-4.42,6.55-5.25-.71-10.07,2.45-14.37,5-5.58,4-.14,6.85,3.37,9.41C650.13,636.27,657.3,643.53,649.84,643.82Z"/><path class="cls-4" d="M489.29,428.63c-5.59,11.36,9,11.53,5.64,2.47-1.42-1.61-4.27-.92-5.5-2.92Zm-107.2,65c-4.42-.61-5.1-5.81-3.36-9.21,1-2.24,3-4,3.48-6.43.14-4.71-6.36-5-8.93-7.85-2-2,.41-2.07,2-2.49,2.13-.6,5.7-1.59,5.49-4.38-.82-2.6-4.3-2.38-6.09-3.81.25-7,6-14.37,10.25-19.76,2.28-1.37,5-1.83,7.15-3.47,4-3.38,6.56-8.14,10.7-11.42,5.62-4.74,13.34-4.42,20.19-5.59,5.44-1.2,9.65-5.67,15.35-6.15,3.44,0,6.5-1.58,9.81-2.18,6.45-.42,7.55,1.08,4.7,6.93-.74,1.64-.88,6.81,1.86,6.2,2.41-2.52,2.37-7.14,5.62-8.91.95-.6,2,0,3,.35,1.58.48,2.29,2,2.83,3.41,1.16,2.63,2.24,5.72,4.93,7.16,1.65,1,5.74.55,5.25-2-1-2-3.32-3.76-3.14-6.24.14-2,5.77-7.39,7.13-4.51a2.89,2.89,0,0,1-.33,2.56c-4,8.57,7.88,1.32,9.71,7.88,12.35-16.18,5.35,1,13.07,6.05,2.84,1.2,12.24,4.69,9.52,8.84-1.36,1.3-3.21,1.12-4.93.94-5.15-.36-.52,1.77-1.9,4A44.41,44.41,0,0,1,498,449c-3.69,2.28-4.86-.94-5.82-3.94-1-2.71-3.4-5.79-6.61-5.35-3.27.65-1.86,2.87-.46,4.68,1.54,2.56,4.05,5.66,2.93,8.79-.86,1.59-2.69.21-3.9-.16a13,13,0,0,0-5.57-1.26c-2.89-.4-4.18,4.59-6.87,3.07-2-1.8-2.38-4.9-4.52-6.59-4.48-2.86-10.88,6-15.32,7.24a11.53,11.53,0,0,0,5.89-10.39c0-1.28,0-5.54-2-4.44-1.79,1.88-3.74,9.27-7,7.77-1.33-1.91-1.56-4.59-3.59-6-1.8-1.81-1.68,1.24-2.14,2.4-1,4-5.44,2.6-8.46,3.11-5.07.41-9.86,2.38-14.87,3.1,3.2,5.1-1.56,7.49-6.17,6-5.37-.93-11.82.13-15.27,4.72-3.39,5.8-.8,4.59,3.86,3.76,2,.32,12.13-2.09,11.55.85-2.61,5.06-5.63,12.22-12.49,11.42-1.73-.07-3.73-.42-5.18.76C391.86,482.87,388.83,493,382.09,493.61Z"/><path class="cls-4" d="M501.9,484.54c-1.71-1.39-.7-4.47.12-6.19,3.13-7.21,10.91-10.06,17.34-13.6-3.81-6.78,4.7-7.36,9.36-7-7.3-6.62.45-13.32,7.56-14.89-2.29,3.79-.95,8.18.71,11.81-1.47,3.05-5.3,3.23-8.27,3.08,2.13,3.51-7.24,5.42-9.36,7,5.26,12.39-9.06,8.06-14.43,13.28-1.11,1.45-1.37,3.36-1.87,5.07C502.86,483.66,502.69,484.64,501.9,484.54Z"/><path class="cls-4" d="M444.44,479.16c-3.07,0-3.73-1.34-.92-3,2.07-1,4.48-1.25,6.66-2,3.87-1.16,7.3-3.41,11.08-4.78-.89,4.1-2.87,5.15-6.58,6.5C451.32,477,448,479,444.44,479.16Z"/><path class="cls-4" d="M474.29,472.09c-3-.76-5.48-3-8.32-4.26,5-1.14,10.3-1.13,15.44-1.66C479.94,468.85,477.79,472.38,474.29,472.09Z"/><path class="cls-4" d="M461.31,469.24c.32-2.44,2.94-2.41,4.66-1.41a45.5,45.5,0,0,0-4.71,1.55Z"/><path class="cls-4" d="M481.41,466.16c2.37-5.36,2.74-3.65,7.3-1.87a21.68,21.68,0,0,1-7.3,1.88Z"/><path class="cls-4" d="M490.64,464.64a5.78,5.78,0,0,1-1.93-.35c1.94-.8,2.27-2.91,2.88-4.67,2.12-7.05,10.25-3.61,15.26-6.23-.92,2.73.19,6-1.72,8.48-1.85,2.93-5.36,2.26-8.29,2.05C494.75,463.81,492.73,464.61,490.64,464.64Z"/><path class="cls-4" d="M537.17,454.61c-.51-1.67-.46-13.17-.51-15.17l.55,15.24Z"/><path class="cls-4" d="M506.86,453.36c.4-1.12,1.55-1.68,2.52-2.22a7.29,7.29,0,0,1-2.53,2.25Z"/><path class="cls-4" d="M509.55,450.9c1-1.35,1.19-3.11,2.13-4.48,2.41-3.73,5.94-6.68,7.95-10.66.38-.61-.49-1.21-.54-1.87a3.56,3.56,0,0,1,.46-3c0-1.73-2.6-2.82-3.81-3.95a22.82,22.82,0,0,1-4.89-5.91c3,.76,15.56,1,11.23,6.89a32,32,0,0,0-2.37,2.72,5.24,5.24,0,0,1,.5,3.33c-1.06,2.08,1.45,3.38,2.1,5.25,1.72,7.44-8.3,8.84-12.93,11.91Z"/></g><g id="レイヤー_9" data-name="レイヤー 9"><path class="cls-5" d="M749.85,765.63c-2.07-4.56,8.14-7.4,5.38-1.32l0-.06C754.36,766,751.21,767.83,749.85,765.63Z"/><path class="cls-5" d="M749.33,768c-6.36-3.76,4.11-11.32,1.74-3.19l0,0c.07.23.26,0,.38-.14l-.11.13a4.45,4.45,0,0,0,.38-.48l0,0C755.09,750.81,759.12,771.87,749.33,768Z"/><path class="cls-5" d="M739.47,781.94c0-2.3,3.6-2.27,3.55,0S739.43,784.22,739.47,781.94Z"/><path class="cls-5" d="M678.92,795c-4-2.44,3.33-7.41,4.17-2.75C683.34,794.2,680.52,795.73,678.92,795Z"/><path class="cls-5" d="M679.71,792.37a1.78,1.78,0,0,1,3.55,0C683.25,794.69,679.67,794.68,679.71,792.37Z"/><path class="cls-6" d="M580.81,602.44c-4.79-13.67,27.36-34,17.59-12.46C599.45,596.83,586.65,612.18,580.81,602.44Z"/></g><g id="レイヤー_4" data-name="レイヤー 4"><path class="cls-7" d="M286.17,376.55c-3.66-1.67-2-6.36-.21-8.89C294.56,361,296.17,379.49,286.17,376.55Z"/><path class="cls-8" d="M500.48,252c.06,3.47-.91,6.83-1.59,10.21-1.1,7.92-2.34,15.94-1.36,23.95.41,3.05.72,6.14,1.22,9.18.39,2.26,1.07,4.52,1,6.83a11.26,11.26,0,0,1-.8,3.39c-.09,2.91-.61,5.78-.94,8.67A46.78,46.78,0,0,1,487.07,335c-4.55,4.9-8.77,10.2-14.24,14.15-8.21,5.78-17.69,9.41-26.35,14.45-8.16,4.67-17,8.13-24.84,13.32-3.52,2.54-7.25,4.82-10.7,7.47-3.76,2.47-11.66,9.85-14.79,3.42-.68-2.55-.46-5.29-1.15-7.86a74,74,0,0,1-2-20.23c.23-4.93-.47-9.84,0-14.76.4-7.55,1.66-15,2.35-22.56,1-6.11,1-12.28,1.32-18.43a120.69,120.69,0,0,1,2.89-17.24c1-3.4,2.94-6.58,3.29-10.14a33.55,33.55,0,0,0-1-9.2c-1.4-3.7-2.93-7.37-4.49-11-1-2.4-2.33-4.68-3.29-7.1-1.7-5.07-1.52-10.51-2.4-15.73-.51-3.8-1.8-7.44-2.14-11.26-.86-5.18-.67-10.45-.77-15.69-.06-7.77.07-15.53.69-23.28.73-5.55,1.55-11.11,2.48-16.63,1.17-5.54,1.71-11.21,3.13-16.7,1.48-5.76,3.42-11.38,4.37-17.27.95-4.47,2.72-8.71,3.89-13.12,1.12-4.73,2-9.53,3.23-14.25.92-3.34.65-6.82.58-10.24-.08-4.36-.07-8.74-.42-13.09-1.2-6,.82-12,3.09-17.5,1.3,1.27,7.06,4.7,7.55,6.32a90.89,90.89,0,0,0,6.49,8.63c4.17,4.47,9,8.19,13.66,12.17,9.23,8.47,17.84,11.59,24.2,23.36,1.66,3.13,3.85,5.94,5.55,9,2,3.83,3.2,8,4.7,12.09,1.27,4,1.76,8.12,2.95,12.09,1.69,6.36,3.79,12.58,5.8,18.83a83.4,83.4,0,0,0,5.81,12.36c2.77,4.33,6.15,8.28,8.54,12.86a40,40,0,0,1,2.83,7.87,29.8,29.8,0,0,1,1.45,5.12c.4,4.42.1,8.88.21,13.31,0,5.52.32,11,.5,16.55C499.84,240.72,500.19,246.34,500.48,252Z"/><path class="cls-9" d="M502.26,222.14a28.59,28.59,0,0,1-4.68,13.57A107.9,107.9,0,0,1,485.49,249a65.77,65.77,0,0,0-10.91,13.5c-1.45,2.31-13.71,23.16-3.57,18.61,3.16-.85,12.56-10.33,12.83-3.54-.21,3.86-.61,7.83-2.42,11.32a12.73,12.73,0,0,1-6.06,6.68c-6.82,4.31-13.26,9.23-20.35,13.1a35.32,35.32,0,0,1-5.77,2.72c-1.77.56-4.12,1.07-4.47,3.24-.43,1.42.48,2.6,1.42,3.54,3.36,3.85,9.09,3.42,13.36,5.72,4.84,3.09,10.15,3.41,14.89-.09,5-3.21,8.83-7.78,13-11.91,4.18-4.36,7.45-8,3.86,1.26-6.6,14.68-14.7,23.56-27.78,32.68-3.67,3.08-7.63,5.84-11.18,9.06-4.24,4-8.11,8.43-12.51,12.27-6.41,5.69-14.57,8.66-22.11,12.49A58.58,58.58,0,0,0,392.18,404c-1.37,2.31-2.44,4.81-3.92,7.06a122.82,122.82,0,0,1-8.8,10.81c-3,3.45-6.84,6.06-10.39,8.94-3.43,3.27-7,6.84-8.79,11.31-1.13,3.26.39,6.67,0,10-.64,6-2.83-.86-4-2.64a35.61,35.61,0,0,0-8.53-10.89c-3.37-2.61-7-4.88-9.83-8.16-4.81-5.49-8.11-12.13-12.81-17.7C322.41,409.5,319,407,316,404c-4-4.23-8-8.46-12.42-12.32-1.76-1.56-3.08-3.53-4.74-5.18-2-2-4.4-3.56-6.11-5.82-2-2.3-.19-5.07,1.75-6.73a23.77,23.77,0,0,1,2.76-2.12c0-.56,5.93,7.4,6,7.33a90.19,90.19,0,0,1,11.21,9.33c2.31,2.51,3.91,5.54,6,8.21,2.94,3.75,7.11,6.14,10.76,9.1a29.17,29.17,0,0,1,5.63,7c3.28,5.86,10.68,13.91,17.5,15.1,3.77.58,6.83-1.84,9.25-4.44a106.42,106.42,0,0,0,10-11.21,144.44,144.44,0,0,1,12.22-15.14c4.76-6.63,6.33-15,6-23.06-.18-4.73-.51-9.47-.25-14.2.34-6.87,1.4-13.69,1.64-20.57.68-9.18-.92-18.49,1.06-27.56,1.36-7.64,5.23-14.56,6.58-22.2,1.92-7,2.55-19.1,9.2-23,1.1-.12,1.68,1.19,2.37,1.84a23.58,23.58,0,0,1,3.43,5.15c-1.56-8.89-2.67-17.93-6.33-26.27-5.8-15-7.05-19.15-3.44-35,1.58-6-.07-11.5-3.13-16.73-2.21-4.27-5.62-7.76-8-11.9A37.38,37.38,0,0,1,391,170.29a63.23,63.23,0,0,1,.86-9.7c2.41-12.1,3-26,11.79-35.46,1.29-1.21,2.37-.24,3,1.08a25.16,25.16,0,0,1,2.59,5.92,33.87,33.87,0,0,1,1.49,8.81c0,3.88-.58,7.82.24,11.65.7,8.07,11.49,14.12,11,3.17-.78-11.36-1.51-22.78-3.1-34.06-.66-5.08-3.41-9.63-4.25-14.63-.21-2.33.59-6.45,3.67-5.93,1.9.69,3.17,2.52,4.49,4,6.37,8.28,8.7,18.88,10.82,28.91.92,6.43-.21,13.21,2.12,19.41,2.13,5.59,5.4,4,10,3.31,4.21-.28,6.73,4.1,7.25,7.76.6,6.68-.18,13.46-1.23,20.06a68.43,68.43,0,0,1-2.46,12.29c-2.41,8.27-7.05,16.27-6.65,25.1a33.82,33.82,0,0,1,7-9.73c2.53-2.86,5-5.82,7.26-8.87,3.08-4.46,6.33-8.8,9.64-13.09,2.5-3,4.7-6.74,8.32-8.56,5-2.23,11.32-.74,14.23,4,2.17,3.32,3,7.3,4.49,10.92,1.42,4,3.8,7.63,5.2,11.66C500.06,212.85,502.05,217.37,502.26,222.14Z"/><path class="cls-10" d="M787.54,390.86c-.18,1.06-1.65,1.3-2.52,1.59-3.23.88-6.75,0-9.85,1.43-7.15,3.25-12.84,8.84-18.89,13.71a71.13,71.13,0,0,1-13.8,8.77,64,64,0,0,0-16.68,10c-7.39,5.31-16,8.72-24.8,11.07-7.49,2-15.26,2.68-22.81,4.45-7.65,2.28-15,5.61-22.58,8-3.94,1.32-7.93,2.64-12.11,2.89-8.3.51-16.62-1.18-24.47-3.79-5.43-1.75-10.36-4.78-15.84-6.37-5.13-1.46-10.51-1.67-15.77-2.41-6.58-.87-13.21-1.47-19.8-2.33-18.8-5.05-21.28-15.35-6.69-28.55,10.62-9,25.11-10.81,38.43-12.55,8.52-1.23,16.81-3.91,25-6.39,26-7.19,51.41-16.73,78.06-21.25a119.74,119.74,0,0,1,20-.37c4.31.57,8.6,1.38,12.95,1.66,3,1.7,7.17-5.14,8.64-3.67a94.45,94.45,0,0,0,7.85,5.79c2.23,1.89,4.47,3.87,7.23,4.93a28.48,28.48,0,0,1,4.3,1.7c1.8,1.09,3.56,2.36,5.66,2.81,4.45.75,9.07,1.29,13,3.72C784.29,386.88,786.91,388.25,787.54,390.86Z"/><path class="cls-11" d="M776.81,393.94c.24,1.55-5.31-1-6.06-1.13-5.33-1.81-10.45-4.33-15.88-5.83-2.11-.64-26.4-3.08-15,2.84,3.89,1.66,8.1,2.6,11.79,4.7a12.49,12.49,0,0,1,4.62,4.1c.72,1.33,1.25,3.69-1.28,3s-4.35-2.39-6.58-3.47a37.58,37.58,0,0,0-12.49-3.78c-4.51-.8-26.49-5.81-24.7,3.26.59,2,2.11,3.51,3.15,5.25a26.92,26.92,0,0,1,4.18,10.47c.12,1.42.36,3-.32,4.35-2.35,2.39-6.36,1.39-8.92-.17-6-4.23-7.85-10.82-15.79-12.95-1.71-.62-3.47-1.18-5.22-1.68-3-1.1-2.83.35-1.66,2.47,1.18,2.43,2.37,4.92,3.54,7.36.41,1.06,1.58,2.36.92,3.48-3.57,1.42-11.26-4.36-17.23-1-2.44,1.29-2.49,4.31-2.7,6.72-1.48,8.86-10.25-3.87-13.21-5.75-7-5.31-15.84-.93-23,1.58-5.91,1.55-9.71,2.51-6.78,9.54,2.37,5.3,9.13,10.62,5.66,16.88-1.58,2.19-4.41,1.26-6.68,1.26-2.46,0-4.9.48-7.35.65-8,1.34-13.64-4.45-21.2-5.19-5.11-.48-10.27-.63-15.34-1.5-5.77-1.05-11.51-2.38-17.39-2.61-3.36-.35-6.79-.37-10.06-1.25-5.11-1.59-10-4-15.27-4.95a66.36,66.36,0,0,0-16.11-.89c-5.19.3-10.49,1.11-15.64.16a24,24,0,0,1-7.8-3.79c-2.09-1.57-4-3.47-6.31-4.68a68,68,0,0,1-7.44-4.33c-2.73-2-5.12-4.39-7.9-6.3-4-2.58-8.39-4.55-12.62-6.73-10.67-5.18-26.69-3.91-34.42,5.74a71.22,71.22,0,0,1-5,6.11,3.31,3.31,0,0,1-.52.38c.54-.6-10.92-2.56-8.88-4.07.93-5.85,3.66-12.1,9.74-14,4.56-2.27,9.21-5.25,14.5-5,4.51.47,9,1.19,13.56.91,3.73-.29,7.47-.66,11.2-.9a71.15,71.15,0,0,1,7.95-.92c5,.24,10.11,1.62,15.21,1.89,5.51.87,11,2.08,16.6,1.94,6.85,0,13.73.25,20.57-.16,9.31-1.92,18.78-4,27.27-8.43a112.23,112.23,0,0,1,19.06-6.77c4.86-1.18,10-1.18,14.71-2.83,5.84-1.87,10.47-6.32,16.46-7.91,6.63-2.11,13.27-4.28,19.75-6.85,3.91-1.74,7.55-4.1,11.64-5.44a131.29,131.29,0,0,1,24.79-6.56c6.06-.67,12.18-.2,18.25-.76,6.91-.4,13.83-1.09,20.76-1a150.59,150.59,0,0,1,24.49,3.07c11.49,2.71,4.7,6.54,18.5,15.3a53.24,53.24,0,0,0,7.74,4.47c2.66,1.22,5.49,2.11,7.89,3.81C765.08,381.24,773.61,386,776.81,393.94Z"/></g><g id="レイヤー_3" data-name="レイヤー 3"><path d="M822.68,663.65c-3.77-7.34-7.25-14.89-11.71-21.84-7.05-11-17.34-19.51-25.21-29.91-6.71-8.23-13.06-17.12-21.5-23.75-9.78-7.41-19.69-14.91-31-19.91-11.82-5.09-24.83-6.26-37.44-8.11-11.75-1.2-23.58-2.69-35.41-2-4.29-9.24-16.73-13.42-18-24.48-1.28-9.46-3.06-18.9-7.88-27.28-9-17.84-20.25-34.78-34.82-48.6-9.2-7.81-17.71-16.55-27.88-23.12-13.1-9.38-28.19-15.26-43.47-20.06-19.39-5.91-39.3-11.87-59.8-10.69-36.82,1.62-74.47,16.91-99.05,44.87-3.75,4.09-7.64,8.39-11.16,12.74-5.65,6.9-10.36,14.81-18.13,19.64a69.1,69.1,0,0,1-9,4.21,4.2,4.2,0,0,0-3.88,4.34c-3.66,1.24-3.56,6.43-4.65,9.65-3.1,12,4.53,18.8,14.35,23.75,3.1,2.37,6.61,4.71,8.1,8.47,1.16,8.29,1.11,16.76,3.22,24.91,2.68,8.45,5.57,17.29,10.36,24.79a84.76,84.76,0,0,0-9.11,5.29c-6.57,3.75-11.69,9.25-16.94,14.6-17.65,16.75-30.37,37.88-40.12,60A68.44,68.44,0,0,0,285.93,685c-1.67,12-4.25,23.95-4.1,36.12.12,29.18-3.42,61.06,12,87.24,6.72,10.51,15.73,19.58,25.16,27.64,6.53,4.74,13.88,8.23,20.56,12.73,6.54,4.94,12.68,9.67,18.16,16,2.56,2.59,4.7,5.64,7.36,8.11a3.9,3.9,0,0,0,2,1.58c10.24,7.6,24.08,7.61,36.33,7.86,8.75,1,16.3-4.77,25-4.83,8.38-.34,16.85.27,25.12-1.58,11.92-1.79,21.33-9.32,31.7-14.83,11.37-5.82,20.69-15.11,29.7-24,4.37-4.7,7.75-10.1,11-15.57,3.37-5.3,7.26-10.34,9.55-16.23,3.07-7.61,7.24-14.74,9.75-22.57a89.12,89.12,0,0,0,4.26-20c4.3,9.24,11.14,17.09,16.94,25.43,7.11,10.3,17,18.47,27.39,25.35,4.73,2.72,9.92,4.53,14.56,7.45,10.28,6,20.13,13.06,31.57,16.78,8.34,2.82,16.19,7,24.83,9,14.69,3.39,29.77,4.95,44.82,5.8,14.26-.26,27.6-6.61,41.11-10.56,7.81-3,16.15-3.66,24.31-5,8.61-1.71,12-10.86,15.35-17.92.69-2.53,3.23-6,4.24-9.17,22.15-18.67,33.11-46.08,34.7-74.61C833,711.42,834.23,685.43,822.68,663.65Zm-456.95-86.8c-2.19-2.59-3.1-6.08-4.48-9.14-2.43-5.93-4.84-11.92-5.86-18.29-2.2-13,1.15-23.09-11.59-31.68-3.67-3.34-9.23-4.42-12-8.66-3.41-4.79.27-10.51.84-15.6,2.4-.44,5-2,7-2.81A40.33,40.33,0,0,0,350.19,484c14.34-15,25.16-33.32,42.55-45.4,18-13.63,40.13-21.86,62.48-25.31,19.92-3.25,40.55-.1,59.77,5.94,15.93,4.61,32.36,9.49,46.55,18.56A122.41,122.41,0,0,1,582,453.22c8.06,7,16.23,13.84,22.85,22.25a164.51,164.51,0,0,1,20.68,31.7c3.14,5.62,6,11.51,7.11,17.9,1.19,8.34,2.17,17.28,8.11,23.77,3.25,3.59,7.35,6.46,10.39,10.22-8.23,1-20.16,2.83-24.39,6.76-6.28-1.55-12.92-2.55-18.86.49-3.37,2.12-7.87,4.34-10,7.9-.68-.1-1.33-.22-2-.29-4.95-.62-11.1-1.68-14.55,2.86-2.61,3.87-3.19,8.6-3.6,13.26-3-.62-7.58,1.63-12.36,10.82-5.38,8.53-7,18.79-12.38,27.23-2,3.08-10.81,13.76-14.87,22.31-8.86-19.71-20-36.4-38.92-51.75-6.62-5.61-14.51-9.21-22.27-12.94-5.39-2.85-10.44-6.35-16.41-8-15.27-4.4-31.21-2.58-46.58-6.84a14.69,14.69,0,0,0-5.47-1.23,3.77,3.77,0,0,0-2.95,1.22,102.23,102.23,0,0,0-10.93.19,100.82,100.82,0,0,0-28.43,6.75A4.1,4.1,0,0,0,365.73,576.85Zm219.74,24.69a66.34,66.34,0,0,1,2-18.76c.45-1.95,2.88-.9,4.33-1,3.17.39,6.35.75,9.5,1.32C599.05,591.92,594.38,599.57,585.47,601.54ZM396,869.92c-5.64.3-11.71.05-16.53-3.22-3.94-2.89-6.84-5.71-1.9-9.51,7.92-4.75,24.43,1.41,19.92,12.34C397.14,869.92,396.55,869.85,396,869.92ZM537.3,780.27c-2.83,8.5-7.59,16.55-10.86,24.94-3.85,6.71-8.44,13-12.39,19.67-7.6,10.25-17.41,18.34-27.61,26-7.81,3.93-14.9,8.69-22.6,12.89-11.56,5.87-24.61,5-37.15,5.45-6.94.15-13.07,3.73-19.78,4.77l-2.32,0a7.56,7.56,0,0,0,.77-1.59c3.88-9.45-1.77-19.5-10.92-23.08-6.66-2.28-14.61-3.24-20.86.65-4.16,2.5-7.22,7.48-6.93,12.26a130.74,130.74,0,0,0-21.18-19.46c-6.59-4.7-13.92-8.17-20.6-12.75-12.53-10.41-24.49-22.85-29.83-38.56-5.46-17.55-5.07-36.15-5.16-54.34a254.26,254.26,0,0,1,4.23-50.84c1.58-16.29,10-30.87,17.86-44.9,9-16.58,21.85-30.25,35.4-43.15,13.06-10.37,28.91-16.49,45.48-18.73a98.3,98.3,0,0,1,16.81-.13,3.61,3.61,0,0,0,2-.56c10,3.23,20.65,2.82,31,4.29a78.37,78.37,0,0,1,18.08,3.42c7.72,3.48,14.85,8.15,22.64,11.53,19.23,11.08,34.43,29.42,44.4,49.18,5.49,13.63,12,26.47,15,41.06,2.64,15.54,0,31.28-.24,47C542.12,750.42,542.42,765.57,537.3,780.27Zm257.35,29.32s0,0,0-.06l.07-.08A1,1,0,0,0,794.65,809.59Zm26-72c-1.17,16-5.39,31.89-13.93,45.54-4.94,6.37-9.31,13.38-15.53,18.61a24,24,0,0,0-2.59,2.25,3.67,3.67,0,0,0-1.47,1.69c-3.51,7.41-5.91,15.8-11.47,22-3.8,2.17-8.54,1.57-12.72,2.48C745.59,833,729.61,842,712.06,844a226,226,0,0,1-47.18-6c-17.2-5.77-33.78-11.9-48.8-22.34a154.37,154.37,0,0,0-16.35-8.49c-10.46-6.36-20.17-14.65-27.12-24.8-9.46-12.23-18.54-24.75-21.05-40.35a4.19,4.19,0,0,0-.89-1.63c.1-4.28.21-8.56.44-12.8.77-17.4,2.85-35.27-3.09-52.06-1.79-5.1-3.6-10-5.48-14.74a6.6,6.6,0,0,0,2-3.68,51.4,51.4,0,0,1,6.88-12.86c4-5.9,9.38-11.65,12.28-18.34,3.69-9.16,6.48-19.74,13.45-27.22-.13,3.25.18,6.44,2.34,9a7.43,7.43,0,0,0,5,2.14c-.16.68-.29,1.36-.38,2a4.17,4.17,0,0,0,3.53,4.68c3.45.48,4.69-2.7,5.14-5.53a3.91,3.91,0,0,0,.31-3.42,35.16,35.16,0,0,0,8.32-6c1-1.85,2.47-4,3.82-6.33,5,.08,10,.54,15,1a4.14,4.14,0,0,0,1.15-8.2c-4.14-.38-8.29-.72-12.44-.93.88-3.11.92-6.19-.76-8.9a4.2,4.2,0,0,0-1-1.8c6.5-5.27,13.49-4.14,21.67-1.56,3.85.8,10,4.77,11.91-.8a3.87,3.87,0,0,0-1.73-4.45c2.71-.55,5.43-1.07,8.13-1.7,17-3.38,34.56-1.17,51.76.9,9,1.49,18.12,2.41,26.79,5.28a93.33,93.33,0,0,1,20.4,10.91c5.43,4,11.07,7.74,16.1,12.24,8,7.43,14.11,16.64,21.39,24.86,6.14,8.38,14.65,14.85,20.15,23.73,7.17,12.82,15.51,25.94,18.19,40.79C824.93,703.5,823.22,720.82,820.69,737.59Z"/><path d="M501.88,266.5c-1.47-15.58,5.27-30.65,2.83-46.16-1.67-11.7-2.83-23.8-9.77-33.78-3.81-6.72-8.92-12.27-11.82-19.64-1.89-9.71-5.45-19.35-8.15-28.95-2.32-10.12-5.73-20.11-12.53-28.16-8.09-11.32-21.36-16.74-31.17-26.22-6.53-5.64-11.81-13.59-16.35-21-1.94-2.67-3.34-6.34-6.59-7.64-5.07-1-5.33,5.23-5.42,8.84-1.35,11,1.09,22,.39,33.07-1.27,17.2-8.71,33-13.2,49.46-4.5,16.11-4.62,32.94-4.62,49.55.57,12.2,1.16,24.47,2.45,36.61,1.91,11.61,7.45,22.1,11.36,33.08,2.23,6.73-.67,13.52-2.6,19.95-2.11,6.58-3.54,13.37-5.08,20.11-3.57,19.33-2.8,39.16-2.05,58.71a113.86,113.86,0,0,1-.17,17.51c-1.64,5.3-4.55,10.28-7.43,15-6.89,9.35-14.95,19.36-24.78,25.87-1.91.86-4.07.58-6.09,1-.15,0-.29.1-.44.15-4.2-4.16-8.78-8-12.6-12.52A199.84,199.84,0,0,0,324.52,395c-2.74-3.3-5.32-7.32-9-10.4-5.31-4.39-10.79-8.38-15.64-13.33-1.45-1.43-1.32-3.72-2.62-5.17-7.79-10-20.59.71-18.13,11.17a7.72,7.72,0,0,0,2,3.7,3.68,3.68,0,0,0,2.52,2c15.67,3.16,20.58,19.23,31.63,28.6,5.75,5,12.73,8.75,16.73,15.48,5.09,7.31,11.48,13.25,16.52,20.66A40.39,40.39,0,0,1,353,457c1.05,3.14,1.35,7.8,5.37,8.44,3.39.33,7.67-1.56,8.64-5.07.58-5.08-2.92-9.62-3.43-14.63-.12-2-1.06-4.44.32-6.21,5.67-7.3,15.18-10.21,21-17.41,27.29-33.56,23.29-39,67.1-55.9,3.34-1.42,6.72-2.75,10-4.3,7.25-3.52,13.1-9.17,18.93-14.62,5.73-5.74,11.78-11.67,15.45-19C505.63,308.91,501.36,287.18,501.88,266.5ZM290.8,369.56c-1.09,2.27-2.41,4.95-4.84,6C285.57,373,287.63,368.2,290.8,369.56ZM496.07,245.24c-2.59,16.14-.8,32.64-.76,48.91-.09,6.21.12,12.48-1.12,18.6-1.45,5.25-2.93,10.7-5.73,15.41a117.12,117.12,0,0,1-26.15,25.58C450.45,360,437,364.27,424.85,370.37c-18.52,8.85-29.3,26.59-41.24,42.43a51.15,51.15,0,0,1-14.48,13.05c-4.44,2.85-9.81,6.81-12.3,11.83-1.35,3.35-.51,7.19.08,10.63-3.65-7.42-9.56-13.14-14.73-19.5-3.52-4.25-6.35-9.1-10.3-12.95-5.82-5-12-8.66-17.11-14.61-6.08-8.4-12.34-17.58-21.64-22.27a11.25,11.25,0,0,0,1.9-2.53c5.91,6.25,13.62,10.71,19.39,17.1,4.63,6.42,10.41,11.83,15,18.28s10.77,11.71,16.45,17.27a3.28,3.28,0,0,0,3.81.8c1.53,1.16,4.06.63,6,.43,5.75-.58,10.14-4.83,14.05-8.7a125.64,125.64,0,0,0,14.36-15.87c5.24-6.76,9.87-14.43,12.23-22.68.92-7.43.51-15,.05-22.47-.39-17.87-1.21-36.44,2.25-54.16,2-11,6.48-21.86,8.44-32.91.88-11.87-6.9-22.14-10-33.24-2.7-7.73-2.95-15.94-3.38-24-.73-10.24-1.5-20.48-1.08-30.76a152.59,152.59,0,0,1,2.83-31.27c4-18.85,13.29-36.43,14.77-55.85,1.08-10.32-1.35-20.56-.54-30.86A94,94,0,0,0,436,96.63c9.12,5.81,18,12.29,23.92,21.54,5.36,7.81,6.9,17.15,9.59,26.05,2.66,8.62,5.16,16.59,7.18,25.49,4.42,10.8,13.28,19.31,17.22,30.38,2.36,8,3.11,16.48,4.3,24.76C498.59,231.73,497.39,238.52,496.07,245.24Z"/><path d="M481.21,221.93c-4.68,14.16-10.86,27.82-17.09,41.36-6.43,12-14.9,22.81-23.54,33.29-5.14,5.14-10.68,9.85-16,14.8a17.39,17.39,0,0,1-2.86,2.2c7.15-29.83,12.06-60.36,12.09-91-.19-19.14.58-38.64-3.53-57.43.13-4.84-6.91-4.92-7.06-.26,0,2.39.83,4.75,1.31,7.08a297.7,297.7,0,0,1,2.26,34.32c-4.89-7.76-9.15-15.84-11.53-24.76q-2.29-7.06-4.8-14A3.53,3.53,0,0,0,403.9,170q2.66,7.44,5.09,14.94c3,11.46,9.65,21.42,15.69,31.43a3.29,3.29,0,0,0,2.13,1.07c-.06,6.81-.23,13.62-.47,20.4-.39,13.58-2.49,27-4.74,40.37-2.35-4.78-4.3-9.93-6.25-14.77a3.53,3.53,0,0,0-6.56,2.6c3.19,7.74,5.94,15.79,10.75,22.7a3.22,3.22,0,0,0,.24.28q-.43,2.63-.86,5.23c-2.59,12.93-6.21,25.62-9.05,38.49-2,11.73-5.3,23.3-7.66,35-.74,4.4-3.17,8.28-5.2,12.19a3.56,3.56,0,0,0,1.19,4.84c4.41,2.3,5.93-3.55,7.62-6.47,2.45-4.23,3.35-9.05,4.23-13.8,3.16-12.29,5.61-24.91,8.26-37.38q.72-2.72,1.41-5.45a3.63,3.63,0,0,0,3.47-.38,88.3,88.3,0,0,0,11.1-9.24c6.44-5.71,12.89-11.44,17.86-18.55,6.85-8.94,13.75-17.94,18.78-28.07,6.24-13.61,12.43-27.35,17.07-41.61C489.17,219.32,482.56,217.54,481.21,221.93Z"/><path d="M439.51,224.84c4.09,2.24,5.9-3.17,7.63-5.86A131.23,131.23,0,0,0,457,198.35c2.8-7.06,5.63-14.11,8.15-21.27a3.54,3.54,0,0,0-2.45-4.34,3.73,3.73,0,0,0-4.55,3c-4,10.7-8.14,21.93-13.06,32.38q-3.18,6-6.73,11.84A3.56,3.56,0,0,0,439.51,224.84Z"/><path d="M768,377.56c-12.49-3.56-19.66-15.21-30.82-21.05-20.74-12.14-45.48-10.31-68.61-10.28-24.1,1.14-47,10.18-67.78,21.95-11.56,6.1-24.56,7.3-37.11,10-7.62,2.16-14.1,5.59-21.25,9.26-16.18,7.7-34.54,4.16-51.7,3a147,147,0,0,0-42.52-.17c-6.36,1.54-13.28.92-19.33,3.51-6.22,2.9-10.55,8.62-13.84,14.47a5.71,5.71,0,0,0-.88,4.12c.93,3.26,4.58,4.07,7.41,5.08,2.19.81,4.58,2.21,6.93,1.28s3-3.32,3-5.49c1.13-3.81,4.82-5.35,8.13-7.34,1.65-1,3.84-.88,5.15-2.38,3.78.28,7.54-.42,11.33-.24,8.8,1.21,17.8,4.12,24.5,10.15,4.21,3.85,7.35,9.74,12.42,12.82,6.64,4.31,14.69,5.65,22.45,6.32,9.93.95,20-.19,29.81,1.74,6.26,1.2,12.06,3.89,18.15,5.66,9.43,2.52,19.28,1.85,28.92,2.38,9.25.75,17.81,4.42,25.93,8.7a57.39,57.39,0,0,0,24.74,6.12c12.9.24,23.85-7.42,35.25-12.24,6.38-1.71,13.09-1.44,19.5-3.11,6.88-1.59,14-2.18,20.6-4.85a31.06,31.06,0,0,0,7.07-3.74c3.54-2.91,5.7-7.25,9.79-9.58,8.77-5.26,18.75-8.57,26.8-15,4-3.26,6.57-8.32,11.59-10.3,4.93-2.45,10.74-3.26,15.24-6.47C796.5,383,773.54,380.33,768,377.56ZM424.82,411.19c-.91-.33-1.81-.66-2.73-1,3.46-5.91,8.78-11.49,16.12-11.31C432.76,401.44,426.44,405,424.82,411.19Zm340-15.47c-3.29,3.24-6,7.14-10,9.57-8.42,5.51-18.32,8.57-26.35,14.66-2.82,2.17-4.68,5.26-7.24,7.69a32.12,32.12,0,0,1-8.16,3.8c-6.46,1.82-13.16,2.6-19.69,4.13-5.3,1.05-10.8.9-16,2.34-11.06,3.75-20.73,11.67-32.82,12.2-17.19,1.2-30.55-11.95-47-14.17-10.09-1.56-19.88-.17-30-2.21-6-1.38-11.59-4.1-17.58-5.57-13.67-3.58-28-.88-41.8-3.62-9.7-1.58-14.39-6.1-20.09-13.63-7.8-8.75-19.48-13.05-30.87-14.56,25-2.6,50.35,6,75.37,1.75,13.31-2.32,23.92-11.84,37.33-14.1,10.37-1.48,20.73-3.42,30.32-7.82,9.9-4.2,18.77-10.5,29-14a171.54,171.54,0,0,1,25-7.2c10.41-2.06,21-1.91,31.58-1.76,15.45-.11,31.45.69,45.42,8,6.9,3.24,12.43,8.43,18.05,13.46,8.34,7.83,19.76,10.7,30.44,13.84C774.54,390.51,769,392,764.83,395.72Z"/><path d="M730.39,381.22a153.3,153.3,0,0,0-22.15,1.59c-15.13,2.16-29.74,6.57-44,11.89v-.07a7.42,7.42,0,0,1,1.52-3.72c8.1-9.49,18.15-17.2,27.38-25.56,2.34-2,.62-6.17-2.4-6.07a3.67,3.67,0,0,0-2.47,1c-5.42,4.58-10.66,9.37-15.93,14.13-6,5.92-15.18,11.63-15.11,20.95a3.2,3.2,0,0,0,.66,1.63c-7.66,2.83-15.24,5.92-23.25,7.59a200.34,200.34,0,0,1-33.12,3.25,4.71,4.71,0,0,1,.65-4.33,3.56,3.56,0,0,0-1.83-4.63c-4.19-1.82-6.5,4.59-6.25,8.75-.89-.05-1.77-.08-2.66-.15-6.62-.28-13-2.19-19.39-3.64-7.08-1.36-14.23-2.51-21.38-3.51-9.07-.88-18.21-.49-27.3-.17-3,0-7.3-.66-7.51,3.5a3.56,3.56,0,0,0,3.5,3.56c11.27,0,22.63-1.11,33.83.55,13.77,1.53,26.88,6.3,40.61,6.91,1,.06,1.93.07,2.9.1.71,3,4.62,3.57,7,4.95C614,423.19,622.1,430.68,632,435c4.27,1.74,7-4.53,2.79-6.47-6.47-2.7-11.92-7.19-17.95-10.65-2.28-1.24-4.65-2.26-7-3.27A202.56,202.56,0,0,0,639,410.81c6.46-1.84,12.81-4.05,19.13-6.35a3.6,3.6,0,0,0,.1,4c5.37,5.13,11.65,9.4,16.54,15.06,3.15,3.34,8.26-1.53,5.09-4.87-3.68-4.29-8.19-7.77-12.43-11.48-1.69-1.17-3.44-3.49-5.43-4.14,13.43-4.92,26.83-9.93,41-12.22a155.66,155.66,0,0,1,28.85-2.58,3.56,3.56,0,0,0,3.55-3.49C735.51,382,732.77,380.82,730.39,381.22Z"/></g></svg>